<svg xmlns="http://www.w3.org/2000/svg" xmlns:xlink="http://www.w3.org/1999/xlink" viewBox="0 0 154.46 147.87"><defs><style>.cls-1{fill:#fff;}.cls-2{fill:url(#linear-gradient);}.cls-3{fill:url(#radial-gradient);}.cls-4{fill:none;stroke:#6c3e10;stroke-miterlimit:10.01;stroke-width:0.15px;}.cls-5{fill:url(#radial-gradient-2);}.cls-6{fill:url(#linear-gradient-2);}.cls-7{fill:url(#linear-gradient-3);}</style><linearGradient id="linear-gradient" x1="-1076.6" y1="2180.27" x2="-1075.4" y2="2181.45" gradientTransform="matrix(11.79, -111.68, -83.5, -8.81, 194889.57, -100896.11)" gradientUnits="userSpaceOnUse"><stop offset="0.14" stop-color="#ab611d"/><stop offset="0.22" stop-color="#bf7a26"/><stop offset="0.39" stop-color="#f4bb3d"/><stop offset="0.42" stop-color="#ffc842"/><stop offset="0.44" stop-color="#ffca4b"/><stop offset="0.46" stop-color="#ffd265"/><stop offset="0.49" stop-color="#ffde8f"/><stop offset="0.53" stop-color="#ffefc9"/><stop offset="0.56" stop-color="#fff"/><stop offset="0.58" stop-color="#ab611d"/><stop offset="0.65" stop-color="#af671f"/><stop offset="0.74" stop-color="#be7825"/><stop offset="0.85" stop-color="#d5942f"/><stop offset="0.97" stop-color="#f5bc3d"/><stop offset="1" stop-color="#ffc842"/></linearGradient><radialGradient id="radial-gradient" cx="-1075.81" cy="2162.04" r="2.03" gradientTransform="matrix(-29.97, -69.32, -26.74, 11.62, 25683.13, -99637.36)" gradientUnits="userSpaceOnUse"><stop offset="0.35" stop-color="#ffc842"/><stop offset="0.37" stop-color="#e8ae38"/><stop offset="0.38" stop-color="#d0942f"/><stop offset="0.4" stop-color="#bd7e27"/><stop offset="0.42" stop-color="#ae6d21"/><stop offset="0.45" stop-color="#a3611d"/><stop offset="0.48" stop-color="#9d5a1a"/><stop offset="0.59" stop-color="#9c591a"/></radialGradient><radialGradient id="radial-gradient-2" cx="-1073.78" cy="2173.27" r="0.61" gradientTransform="matrix(-14.19, -74.23, -44.33, 8.47, 81200.87, -98088.12)" gradientUnits="userSpaceOnUse"><stop offset="0.15" stop-color="#fff" stop-opacity="0.6"/><stop offset="0.27" stop-color="#fffdf9" stop-opacity="0.58"/><stop offset="0.4" stop-color="#fff8ea" stop-opacity="0.53"/><stop offset="0.54" stop-color="#fff1d0" stop-opacity="0.45"/><stop offset="0.67" stop-color="#ffe7ac" stop-opacity="0.34"/><stop offset="0.81" stop-color="#ffd97e" stop-opacity="0.19"/><stop offset="0.94" stop-color="#ffc946" stop-opacity="0.01"/><stop offset="0.95" stop-color="#ffc842" stop-opacity="0"/></radialGradient><linearGradient id="linear-gradient-2" x1="-1067.45" y1="2175.8" x2="-1066.57" y2="2175.8" gradientTransform="matrix(5.19, -49.15, -34.43, -3.63, 80547.33, -44477.75)" gradientUnits="userSpaceOnUse"><stop offset="0.14" stop-color="#ab611d"/><stop offset="0.63" stop-color="#ab611d"/><stop offset="0.69" stop-color="#af671f"/><stop offset="0.77" stop-color="#be7825"/><stop offset="0.87" stop-color="#d5942f"/><stop offset="0.97" stop-color="#f5bc3d"/><stop offset="1" stop-color="#ffc842"/></linearGradient><linearGradient id="linear-gradient-3" x1="-1067.47" y1="2175.79" x2="-1066.59" y2="2175.79" gradientTransform="matrix(5.19, -49.15, -34.43, -3.63, 80541.52, -44475.83)" gradientUnits="userSpaceOnUse"><stop offset="0.05" stop-color="#ffc842"/><stop offset="1" stop-color="#ab611d"/></linearGradient></defs><title>bitcoin 2</title><g id="Layer_2" data-name="Layer 2"><g id="Layer_1-2" data-name="Layer 1"><g id="Path_6902" data-name="Path 6902"><path class="cls-1" d="M69.88,33.42a146.45,146.45,0,0,0-68.34-3.1l-.38-2a148.71,148.71,0,0,1,69.28,3.13Z"/></g><g id="Path_6903" data-name="Path 6903"><path class="cls-1" d="M45.91,147.87l-1.42-1.41a148.65,148.65,0,0,1,59-36.44l.63,1.9A146.56,146.56,0,0,0,45.91,147.87Z"/></g><g id="Group_404" data-name="Group 404"><g id="Group_403" data-name="Group 403"><path id="Path_6904" data-name="Path 6904" class="cls-2" d="M85.5,4.74c-13.82,7.68-6.33,41.71,5.15,65.75,13.18,27.59,37.62,49.9,47.58,45.67,4.32-1.84,12.42-6.4,13.94-9.24,5.29-9.89,1.14-42-9.72-60.94C109.75-11.1,96.57-1.4,85.5,4.74Z"/><path id="Path_6905" data-name="Path 6905" class="cls-3" d="M85.5,4.75c-11.24,6.45-9.41,35,5.15,65.74s39.4,49.07,47.58,45.67c12-5,9.41-35-5.16-65.75S94.5-.42,85.5,4.75Z"/><path id="Path_6906" data-name="Path 6906" class="cls-4" d="M138.23,116.16c12-5,9.41-35-5.15-65.75S94.55.55,86.4,4.08"/></g><path id="Path_6907" data-name="Path 6907" class="cls-5" d="M85.5,4.75c-11.24,6.45-9.41,35,5.15,65.74s39.4,49.07,47.58,45.67c12-5,9.41-35-5.16-65.75S94.5-.42,85.5,4.75Z"/></g><g id="Group_407" data-name="Group 407"><g id="Group_405" data-name="Group 405"><path id="Path_6908" data-name="Path 6908" class="cls-6" d="M110.85,53.24l-.64.17a2.17,2.17,0,0,1-.07-.24c.15-4.6-4.46-12.41-7.36-12.37A4,4,0,0,0,99.92,42c-.23.25-.41.18-.82-.52C98.09,39.64,97,37.85,96,36c-.38-.68-.53-.67-.7-.4a13.12,13.12,0,0,1-1,1.47c-.19.25-.13.5.19,1,1.05,1.82,2.09,3.63,3.1,5.46a1.91,1.91,0,0,1,.25.83,9.81,9.81,0,0,1-.9,1.4C95.61,43.51,94.34,41.29,93,39c-.48.67-.94,1.29-1.35,2a1.6,1.6,0,0,0,.19.71c.46.85.95,1.68,1.44,2.54.74,1.29,1.47,2.61,2.24,3.92a2.85,2.85,0,0,1-.26.41c-.76,1.15-1.53,2.29-2.31,3.4-.17.24-.25.47.12,1.1s.81,1.4,1.21,2.08.75,1.28,1.14,1.93a16.54,16.54,0,0,1,1.11-1.53c.55-.67,1.2-.26,2.09,1.28l5.74,10C106,69.54,107.5,72.27,109,75c.69,1.2.83,2,.45,2.61a12.39,12.39,0,0,1-.76,1.13c-.21.23-.14.52.12,1.05.39.78.77,1.59,1.14,2.39s.81,1.67,1.26,2.59c1-1.4,1.9-2.75,2.85-4.13.23.4.41.68.56,1q1.59,2.76,3.17,5.53c.24.42.39.58.53.35.38-.57.74-1.11,1.12-1.64.14-.21.1-.39-.12-.8-.38-.62-.75-1.28-1.1-1.91-.88-1.52-1.73-3-2.61-4.57L116.72,77c.22.4.38.66.54.94,1,1.74,2,3.49,3,5.23.19.32.41.86.61.59.43-.62.87-1.27,1.31-2-.17-.31-.29-.57-.44-.81-1-1.76-2-3.49-3-5.23-.62-1.08-.56-1-.32-1.66a23.76,23.76,0,0,0,1.26-3.88,13.4,13.4,0,0,0-.84-7.06A31.74,31.74,0,0,0,116,57.33C114.18,54.35,112.45,53,110.85,53.24ZM114,63.06a7.85,7.85,0,0,1,1,4.59,9.14,9.14,0,0,1-1.94,4.73q-.24.36-.51.69c-.71-1.26-1.39-2.44-2.08-3.63-.94-1.66-1.88-3.31-2.81-4.93-.23-.39-.36-.68-.19-.88.75-.92,1.45-1.94,2.26-2.76a1.93,1.93,0,0,1,1.38-.46C112.06,60.39,113.05,61.28,114,63.06ZM106.3,52a6.67,6.67,0,0,1,.41,3.22,8.59,8.59,0,0,1-1.83,4c-.06.05-.29-.09-.38-.25-1.47-2.56-2.94-5.14-4.39-7.68A1.38,1.38,0,0,1,100,51c.73-1.21,1.45-2.49,2.69-2.75S105.41,49.56,106.3,52Z"/></g><g id="Group_406" data-name="Group 406"><path id="Path_6909" data-name="Path 6909" class="cls-7" d="M109.66,53.22l-.65.18a.69.69,0,0,1-.05-.24c.14-4.6-4.47-12.41-7.37-12.38A4,4,0,0,0,98.73,42c-.22.24-.42.17-.81-.52-1-1.85-2.09-3.64-3.11-5.47-.39-.67-.53-.67-.71-.39a13.36,13.36,0,0,1-1,1.46c-.19.26-.13.5.19,1.05,1,1.81,2.09,3.63,3.11,5.46a2.2,2.2,0,0,1,.24.83,10.4,10.4,0,0,1-.9,1.4c-1.33-2.33-2.6-4.54-3.91-6.82-.49.67-.93,1.3-1.36,2a1.79,1.79,0,0,0,.19.72c.47.85,1,1.67,1.44,2.53.75,1.3,1.48,2.61,2.24,3.93a3.45,3.45,0,0,1-.25.41c-.77,1.14-1.54,2.29-2.32,3.39-.16.24-.25.47.13,1.1s.8,1.4,1.21,2.08.74,1.28,1.13,1.94c.4-.56.74-1.09,1.12-1.53.54-.68,1.2-.26,2.09,1.28l5.74,10c1.56,2.72,3.11,5.45,4.65,8.14.68,1.2.82,2,.44,2.62a10.63,10.63,0,0,1-.76,1.13c-.2.23-.13.51.12,1,.4.79.77,1.59,1.15,2.39s.81,1.67,1.25,2.59c1-1.39,1.9-2.74,2.85-4.13l.57,1q1.59,2.76,3.16,5.53c.25.42.4.57.53.34.38-.56.75-1.11,1.13-1.63.14-.22.1-.4-.13-.8-.37-.63-.74-1.28-1.1-1.92l-2.6-4.57c.38-.53.71-1,1.06-1.51l.55,1c1,1.73,2,3.49,3,5.23.19.32.41.86.62.59.43-.63.86-1.27,1.3-2-.17-.32-.29-.57-.43-.81-1-1.76-2-3.49-3-5.23-.61-1.08-.55-1-.32-1.66a23.79,23.79,0,0,0,1.27-3.88,13.35,13.35,0,0,0-.86-7.07,30.69,30.69,0,0,0-2.84-5.85C113,54.34,111.26,53,109.66,53.22ZM112.8,63a7.85,7.85,0,0,1,1,4.59,9.29,9.29,0,0,1-1.94,4.74c-.16.23-.33.46-.51.68-.71-1.26-1.4-2.43-2.08-3.64-.94-1.65-1.88-3.31-2.81-4.92-.23-.39-.36-.68-.19-.88.76-.92,1.45-2,2.26-2.76a1.93,1.93,0,0,1,1.38-.46C110.86,60.38,111.85,61.26,112.8,63ZM105.1,52a6.44,6.44,0,0,1,.41,3.22,8.54,8.54,0,0,1-1.82,4c-.06.06-.3-.09-.38-.24q-2.2-3.84-4.39-7.69s0-.11-.08-.26c.72-1.21,1.44-2.49,2.69-2.75S104.22,49.55,105.1,52Z"/></g></g><g id="Path_6910" data-name="Path 6910"><path class="cls-1" d="M.71,105.6,0,104.9C28.16,76.1,96.81,52.71,120.43,52l0,1C97,53.71,28.72,77,.71,105.6Z"/></g></g></g></svg>