<svg xmlns="http://www.w3.org/2000/svg" xmlns:xlink="http://www.w3.org/1999/xlink" viewBox="0 0 71.25 43.08"><defs><style>.cls-1{fill:url(#linear-gradient);}.cls-2{fill:url(#radial-gradient);}.cls-3{fill:url(#linear-gradient-2);}.cls-4{fill:#ab611d;}.cls-5{fill:#ffc842;}.cls-6{fill:#cb6d20;}.cls-7{fill:#7380a4;}.cls-8{fill:url(#linear-gradient-3);}.cls-9{fill:url(#radial-gradient-2);}.cls-10{fill:none;stroke:#6c3e10;stroke-miterlimit:10;stroke-width:0.15px;}.cls-11{opacity:0.39;fill:url(#radial-gradient-3);}.cls-12{fill:url(#linear-gradient-4);}.cls-13{fill:url(#linear-gradient-5);}</style><linearGradient id="linear-gradient" x1="23.73" y1="15.25" x2="4.24" y2="-4.18" gradientUnits="userSpaceOnUse"><stop offset="0.14" stop-color="#ab611d"/><stop offset="0.22" stop-color="#bf7a26"/><stop offset="0.39" stop-color="#f4bb3d"/><stop offset="0.42" stop-color="#ffc842"/><stop offset="0.44" stop-color="#ffca4b"/><stop offset="0.46" stop-color="#ffd265"/><stop offset="0.49" stop-color="#ffde8f"/><stop offset="0.53" stop-color="#ffefc9"/><stop offset="0.56" stop-color="#fff"/><stop offset="0.58" stop-color="#ab611d"/><stop offset="0.65" stop-color="#af671f"/><stop offset="0.74" stop-color="#be7825"/><stop offset="0.85" stop-color="#d5942f"/><stop offset="0.97" stop-color="#f5bc3d"/><stop offset="1" stop-color="#ffc842"/></linearGradient><radialGradient id="radial-gradient" cx="16.29" cy="5.49" r="21.69" gradientUnits="userSpaceOnUse"><stop offset="0.45" stop-color="#fff" stop-opacity="0"/><stop offset="0.45" stop-color="#f7f0ea" stop-opacity="0.09"/><stop offset="0.45" stop-color="#e5ceba" stop-opacity="0.31"/><stop offset="0.46" stop-color="#d5b08f" stop-opacity="0.49"/><stop offset="0.46" stop-color="#c8976b" stop-opacity="0.65"/><stop offset="0.46" stop-color="#bd834e" stop-opacity="0.78"/><stop offset="0.46" stop-color="#b57338" stop-opacity="0.88"/><stop offset="0.46" stop-color="#af6928" stop-opacity="0.95"/><stop offset="0.47" stop-color="#ab621f" stop-opacity="0.99"/><stop offset="0.48" stop-color="#ab611d"/></radialGradient><linearGradient id="linear-gradient-2" x1="34.02" y1="24.83" x2="-16.51" y2="-28.3" xlink:href="#linear-gradient"/><linearGradient id="linear-gradient-3" x1="49.55" y1="33.58" x2="79.51" y2="-10.67" xlink:href="#linear-gradient"/><radialGradient id="radial-gradient-2" cx="63.78" cy="13.95" r="99.75" gradientUnits="userSpaceOnUse"><stop offset="0.35" stop-color="#ffc842"/><stop offset="0.37" stop-color="#e8ae38"/><stop offset="0.38" stop-color="#d0942f"/><stop offset="0.4" stop-color="#bd7e27"/><stop offset="0.42" stop-color="#ae6d21"/><stop offset="0.45" stop-color="#a3611d"/><stop offset="0.48" stop-color="#9d5a1a"/><stop offset="0.59" stop-color="#9c591a"/></radialGradient><radialGradient id="radial-gradient-3" cx="61.74" cy="10.8" r="22.88" gradientUnits="userSpaceOnUse"><stop offset="0.15" stop-color="#fff" stop-opacity="0.6"/><stop offset="0.27" stop-color="#fffdf9" stop-opacity="0.58"/><stop offset="0.4" stop-color="#fff8ea" stop-opacity="0.53"/><stop offset="0.54" stop-color="#fff1d0" stop-opacity="0.45"/><stop offset="0.67" stop-color="#ffe7ac" stop-opacity="0.34"/><stop offset="0.81" stop-color="#ffd97e" stop-opacity="0.19"/><stop offset="0.94" stop-color="#ffc946" stop-opacity="0.01"/><stop offset="0.95" stop-color="#ffc842" stop-opacity="0"/></radialGradient><linearGradient id="linear-gradient-4" x1="-1950.93" y1="1155.48" x2="-1950.15" y2="1155.48" gradientTransform="matrix(25.19, -9.66, -6.77, -17.66, 57004.34, 1598.56)" gradientUnits="userSpaceOnUse"><stop offset="0.14" stop-color="#ab611d"/><stop offset="0.63" stop-color="#ab611d"/><stop offset="0.69" stop-color="#af671f"/><stop offset="0.77" stop-color="#be7825"/><stop offset="0.87" stop-color="#d5942f"/><stop offset="0.97" stop-color="#f5bc3d"/><stop offset="1" stop-color="#ffc842"/></linearGradient><linearGradient id="linear-gradient-5" x1="-1950.94" y1="1155.47" x2="-1950.17" y2="1155.47" gradientTransform="matrix(25.19, -9.66, -6.77, -17.66, 57000.3, 1596.86)" gradientUnits="userSpaceOnUse"><stop offset="0.05" stop-color="#ffc842"/><stop offset="1" stop-color="#ab611d"/></linearGradient></defs><title>Coins in button</title><g id="Layer_2" data-name="Layer 2"><g id="Layer_1-2" data-name="Layer 1"><path class="cls-1" d="M26.82,16.22l0,0a6,6,0,0,1-.52.61,7.16,7.16,0,0,1-1,.81c-.12.09-.25.16-.38.24C21.58,20,15.3,22.2,5.47,11.12A22.8,22.8,0,0,1,0,0H22.69C27.14,5,29.75,12.22,26.82,16.22Z"/><path class="cls-2" d="M28.16,13.07a6.45,6.45,0,0,1-1.34,3.15l0,0a7,7,0,0,1-1.51,1.39c-3.55,2.44-9.88.27-15.28-4.79-.26-.24-.52-.49-.77-.75A29.58,29.58,0,0,1,7.08,9.69,29.67,29.67,0,0,1,5.13,7c-.16-.25-.32-.5-.46-.75A23.88,23.88,0,0,1,2,0h21.1c.19.27.39.53.58.79.43.6.84,1.2,1.22,1.8.16.24.31.49.45.73a19.58,19.58,0,0,1,2.78,7.11,7.37,7.37,0,0,1,.08.78A9.54,9.54,0,0,1,28.16,13.07Z"/><path class="cls-3" d="M27.74,14.61l-.06.18a6.17,6.17,0,0,1-1.4,2.07,7.16,7.16,0,0,1-1,.81c-.12.09-.25.16-.38.24C21.31,20,15.21,17.75,10,12.85c-.26-.24-.52-.49-.77-.75A29.58,29.58,0,0,1,7.08,9.69,29.67,29.67,0,0,1,5.13,7c-.16-.25-.32-.5-.46-.75A23.88,23.88,0,0,1,2,0H23.1l.59.79c.43.6.84,1.2,1.22,1.8.16.24.31.49.45.73a19.58,19.58,0,0,1,2.78,7.11,7.37,7.37,0,0,1,.08.78,8.16,8.16,0,0,1-.06,1.86A6.53,6.53,0,0,1,28,14,4.88,4.88,0,0,1,27.74,14.61Z"/><g id="Group_413" data-name="Group 413"><g id="Group_409" data-name="Group 409"><path id="Path_6917" data-name="Path 6917" class="cls-4" d="M19.87,11.49a.05.05,0,0,1-.05,0l-4-2.7L12.32,6.34l-.4-.28,0,0s0,0,0,0l1.41-3.5a.51.51,0,0,1,.1-.21h0l1.38.3L16.74,3c.34.07,1.09.14,1.1.18s1.94,7.75,2,8.24C19.88,11.46,19.91,11.49,19.87,11.49Z"/><path class="cls-4" d="M17.73,2.58h-.05L16,2.21l-3.17-.7h0c-.19.47-1.54,2.8-1.9,3.37l0,0a.72.72,0,0,1-.06.1,9.65,9.65,0,0,0,.17-2.21L10.72,0h2.82l4.15,2.53A.07.07,0,0,1,17.73,2.58Z"/></g><g id="Group_410" data-name="Group 410"><path id="Path_6919" data-name="Path 6919" class="cls-5" d="M19.35,11.19,16,6.36h-.07l-.47,0-1.29-.15L13.2,6l-1.44-.17a1,1,0,0,0-.3,0l.4.28L15.4,8.55l4,2.7.06,0Z"/><path id="Path_6920" data-name="Path 6920" class="cls-6" d="M17.87,3.18s0,0,0,0l-.17.29-.33.56-.48.79c-.12.22-.25.44-.38.65L16,6.35l3.39,4.84a.47.47,0,0,1,.06.09s0,0,0,0l-.29-1.48c-.42-2.17-.84-4.33-1.25-6.5A.17.17,0,0,0,17.87,3.18Z"/><path id="Path_6921" data-name="Path 6921" class="cls-6" d="M16,6.35,13,2.08a.72.72,0,0,0-.09.2L11.45,5.79a0,0,0,0,0,0,0l0,0a1,1,0,0,1,.3,0L13.2,6l.93.11,1.29.15.47,0Z"/><path id="Path_6922" data-name="Path 6922" class="cls-4" d="M17.87,3.18s0,0-.06,0L17.3,3l-1-.22-1.93-.43L13,2.07h0l3,4.27h0c.17-.29.35-.58.51-.87l.39-.64.48-.79.33-.57.17-.28S17.84,3.18,17.87,3.18Z"/><path class="cls-5" d="M12.4,1.29v0c-.21.54-.43,1.08-.64,1.61s-.54,1.31-.79,2l0,0,0,.08s0,0,0,0a.11.11,0,0,0,0,0c-.09-.79-.18-1.58-.28-2.37S10.38.87,10.28,0h1.21Z"/><path class="cls-6" d="M17.28,2.36s0,0-.06,0L15.58,2l-3.18-.7L11.49,0h1.94l3.8,2.32A.1.1,0,0,1,17.28,2.36Z"/><path id="Path_6925" data-name="Path 6925" class="cls-7" d="M11.46,5.84l0,0S11.44,5.84,11.46,5.84Z"/></g></g><g id="Group_415" data-name="Group 415"><g id="Group_403" data-name="Group 403"><path class="cls-8" d="M60.21,42.49l-.35.51H29.2c.41-1.3.91-2.65,1.48-4,.12-.3.25-.6.38-.91a61.2,61.2,0,0,1,6.09-10.79c.39-.56.8-1.1,1.22-1.65.78-1,1.57-2,2.37-2.92.26-.3.51-.6.77-.89.54-.62,1.09-1.22,1.64-1.8s1-1,1.5-1.53l.76-.75c.33-.32.65-.63,1-.93l1.22-1.09q.6-.53,1.2-1C55,9.5,61.53,6.39,65.46,9l.72.48C71.13,12.82,76.75,17.22,60.21,42.49Z"/><path class="cls-9" d="M67.22,13.88c0,.11,0,.21,0,.32-.1,5-2.71,12.81-7.66,20.55q-.46.73-1,1.47l-1,1.41a.1.1,0,0,0,0,0c-.42.58-.86,1.17-1.31,1.75-.77,1-1.56,2-2.34,2.9l-.59.67H29.26c.39-1.29.86-2.64,1.42-4,.12-.3.25-.6.38-.91a56.16,56.16,0,0,1,6.09-10.79c.39-.56.8-1.1,1.22-1.65.78-1,1.57-2,2.37-2.92.26-.3.51-.6.77-.89.54-.62,1.09-1.22,1.64-1.8s1-1.05,1.5-1.53l.76-.75c.33-.32.65-.63,1-.93s.81-.74,1.22-1.09.8-.69,1.2-1C55.63,9.09,62,6.77,65.46,9,66.64,9.8,67.22,11.52,67.22,13.88Z"/><path class="cls-10" d="M53.33,43h0l.58-.67c.78-.93,1.57-1.9,2.34-2.9.45-.58.89-1.17,1.31-1.75a.1.1,0,0,1,0,0l1-1.41q.49-.73,1-1.47c.31-.49.61-1,.9-1.46C64.8,26,67,18.86,67.21,14.2c0-.11,0-.21,0-.32,0-2-.3-3.56-1-4.37l-.24-.24"/></g><path class="cls-11" d="M67.48,13.88c0,.11,0,.21,0,.32-.1,5-2.71,12.81-7.66,20.55q-.47.73-1,1.47l-1,1.41a.1.1,0,0,0,0,0c-.42.58-.86,1.17-1.31,1.75-.77,1-1.56,2-2.34,2.9l-.59.67H29.52c.39-1.29.86-2.64,1.42-4,.12-.3.25-.6.38-.91a56.16,56.16,0,0,1,6.09-10.79c.39-.56.8-1.1,1.22-1.65.78-1,1.57-2,2.37-2.92.26-.3.51-.6.77-.89.54-.62,1.09-1.22,1.64-1.8s1-1.05,1.5-1.53l.76-.75c.33-.32.65-.63,1-.93s.81-.74,1.22-1.09l1.2-1C55.89,9.09,62.25,6.77,65.72,9,66.9,9.8,67.48,11.52,67.48,13.88Z"/></g><g id="Group_416" data-name="Group 416"><g id="Group_405" data-name="Group 405"><path id="Path_6908" data-name="Path 6908" class="cls-12" d="M52.66,22.9c.57-.84,1.1-1.69,1.66-2.53.21-.31.18-.37,0-.39L54,20l-.52-.08c-.15,0-.24.05-.4.31-.56.84-1.11,1.69-1.67,2.52a.86.86,0,0,1-.31.29,4.23,4.23,0,0,1-.79-.08l.3-.45,1.77-2.72-.54-.08-.6-.08a.75.75,0,0,0-.26.24c-.27.39-.52.78-.78,1.17-.39.61-.8,1.21-1.19,1.82a.86.86,0,0,1-.23,0c-.66-.07-1.32-.15-2-.25-.13,0-.25,0-.44.3s-.42.65-.63,1l-.3.47c-.1.14-.19.29-.28.44a6.89,6.89,0,0,1,.89.15h0c.41.08.37.45-.09,1.17l-3,4.65-2.48,3.78c-.36.56-.69.8-1,.76a4.62,4.62,0,0,1-.65-.08c-.15,0-.26.06-.43.28l-.77,1-.51.67-.33.43,1.86.25.54.07-.29.46-1.57,2.4-.11.17c-.13.19-.17.29,0,.3.33,0,.64.07,1,.12.12,0,.19,0,.32-.22s.38-.61.58-.9l1.39-2.12.34,0,.54.09-.28.43L39.44,41l0,.08c-.1.15-.28.36-.12.39l1.12.14c.1-.15.19-.25.26-.37.53-.81,1.06-1.62,1.58-2.43.33-.5.3-.45.64-.5a11.63,11.63,0,0,0,2-.3,6.43,6.43,0,0,0,2.84-1.91,15.84,15.84,0,0,0,1.9-2.5c.87-1.44,1.08-2.49.62-3.11a.12.12,0,0,0,0-.05,1.46,1.46,0,0,0-.16-.19.27.27,0,0,1,.08-.07h0c2-.94,4.35-4.63,3.7-5.86a1.45,1.45,0,0,0-.17-.26,1.88,1.88,0,0,0-1-.7c-.14-.05-.16-.13,0-.41Zm-2.11,3c.38.45,0,1.44-.82,2.35a3.17,3.17,0,0,1-1.29.88,4.2,4.2,0,0,1-2.11.09s0-.15,0-.22l.15-.22c.72-1.12,1.46-2.23,2.19-3.34a.38.38,0,0,1,.09-.09,2.6,2.6,0,0,1,1.66.44A.57.57,0,0,1,50.55,25.93Zm-5.64,9.52a4.45,4.45,0,0,1-2.45.21l-.41-.07c.1-.14.19-.29.28-.43.29-.43.55-.85.82-1.26l1.51-2.28c.11-.19.21-.31.33-.28.56.12,1.15.2,1.68.37a.87.87,0,0,1,.32.22,1.27,1.27,0,0,1,.18.27c.21.39,0,1-.52,1.8A3.74,3.74,0,0,1,44.91,35.45Z"/></g><g id="Group_406" data-name="Group 406"><path id="Path_6909" data-name="Path 6909" class="cls-13" d="M54.08,19.47a8.24,8.24,0,0,1-.85-.11c-.15,0-.24.05-.4.31-.55.84-1.1,1.69-1.67,2.53a1,1,0,0,1-.3.28h-.24a5.35,5.35,0,0,1-.56-.07l1.79-2.73.28-.44L51,19.08a.85.85,0,0,0-.26.24c-.27.38-.51.77-.77,1.17-.4.6-.8,1.2-1.2,1.82l-.23,0c-.66-.08-1.31-.16-2-.26-.14,0-.26,0-.44.3s-.43.65-.63,1l-.59.91.54.08.36.07c.27.05.35.22.25.52a2.74,2.74,0,0,1-.34.65l-3,4.66L40.21,34c-.37.56-.69.8-1,.77s-.43,0-.65-.09-.25.06-.42.29-.51.67-.78,1-.54.71-.83,1.11l.58.08,1.81.24-.28.44h0l-1.68,2.57c-.13.2-.16.29,0,.3l.4.05.54.08c.13,0,.2,0,.32-.23l.58-.89c.46-.7.93-1.4,1.39-2.12l.88.13c-.11.18-.19.3-.28.43h0l-1.59,2.43c-.1.15-.28.37-.12.39l.43.05q.33.06.69.09c.1-.14.19-.25.26-.36L42,38.32c.33-.5.3-.46.65-.5a11.7,11.7,0,0,0,1.94-.31,6.46,6.46,0,0,0,2.85-1.91,15.34,15.34,0,0,0,1.89-2.5,3.94,3.94,0,0,0,.83-2.64.79.79,0,0,0-.08-.26,1.13,1.13,0,0,0-.12-.21c-.08-.08-.14-.16-.22-.23l.09-.08c1.88-.88,4.06-4.18,3.79-5.61a1,1,0,0,0-.09-.26,1.91,1.91,0,0,0-.88-.85,1.53,1.53,0,0,0-.27-.11c-.15,0-.16-.14,0-.46C53,21.58,53.46,20.77,54,20l.06-.1C54.27,19.54,54.24,19.48,54.08,19.47ZM50.3,25.41a.64.64,0,0,1,.14.41,3,3,0,0,1-1,1.94,3.12,3.12,0,0,1-1.29.89,4.17,4.17,0,0,1-1.68.16l-.43-.08s0-.14,0-.21c.78-1.19,1.56-2.39,2.34-3.57,0,0,0,0,.1-.09A2.45,2.45,0,0,1,50.3,25.41Zm-8.51,9.66c.39-.58.74-1.13,1.11-1.69l1.5-2.28c.11-.18.21-.3.34-.27.55.12,1.15.19,1.67.36a.91.91,0,0,1,.5.5.62.62,0,0,1,.08.24,2.42,2.42,0,0,1-.59,1.56,3.85,3.85,0,0,1-1.74,1.45,4.42,4.42,0,0,1-2.33.22l-.13,0A2.93,2.93,0,0,1,41.79,35.07Z"/></g></g></g></g></svg>