<svg xmlns="http://www.w3.org/2000/svg" xmlns:xlink="http://www.w3.org/1999/xlink" viewBox="0 0 192.58 94.01"><defs><style>.cls-1{fill:url(#radial-gradient);}.cls-2{fill:#fff;}.cls-3{fill:url(#linear-gradient);}.cls-4{fill:url(#linear-gradient-2);}.cls-5{fill:#ab611d;}.cls-6{fill:#ffc842;}.cls-7{fill:#cb6d20;}.cls-8{fill:#7380a4;}</style><radialGradient id="radial-gradient" cx="194.56" cy="2217.7" r="1.62" gradientTransform="matrix(-64.59, -15.79, -8.22, 33.66, 30937.84, -71552.52)" gradientUnits="userSpaceOnUse"><stop offset="0.45" stop-color="#fff" stop-opacity="0"/><stop offset="0.45" stop-color="#f7f0ea" stop-opacity="0.09"/><stop offset="0.45" stop-color="#e5ceba" stop-opacity="0.31"/><stop offset="0.46" stop-color="#d5b08f" stop-opacity="0.49"/><stop offset="0.46" stop-color="#c8976b" stop-opacity="0.65"/><stop offset="0.46" stop-color="#bd834e" stop-opacity="0.78"/><stop offset="0.46" stop-color="#b57338" stop-opacity="0.88"/><stop offset="0.46" stop-color="#af6928" stop-opacity="0.95"/><stop offset="0.47" stop-color="#ab621f" stop-opacity="0.99"/><stop offset="0.48" stop-color="#ab611d"/></radialGradient><linearGradient id="linear-gradient" x1="166.64" y1="2237.41" x2="165.89" y2="2236.66" gradientTransform="matrix(77.84, 58.65, 42.89, -56.93, -108757.1, 117637.92)" gradientUnits="userSpaceOnUse"><stop offset="0.14" stop-color="#ab611d"/><stop offset="0.22" stop-color="#bf7a26"/><stop offset="0.39" stop-color="#f4bb3d"/><stop offset="0.42" stop-color="#ffc842"/><stop offset="0.44" stop-color="#ffca4b"/><stop offset="0.46" stop-color="#ffd265"/><stop offset="0.49" stop-color="#ffde8f"/><stop offset="0.53" stop-color="#ffefc9"/><stop offset="0.56" stop-color="#fff"/><stop offset="0.58" stop-color="#ab611d"/><stop offset="0.65" stop-color="#af671f"/><stop offset="0.74" stop-color="#be7825"/><stop offset="0.85" stop-color="#d5942f"/><stop offset="0.97" stop-color="#f5bc3d"/><stop offset="1" stop-color="#ffc842"/></linearGradient><linearGradient id="linear-gradient-2" x1="166.66" y1="2238" x2="164.51" y2="2235.75" gradientTransform="matrix(75.41, 56.82, 39.99, -53.08, -101835.95, 109357.87)" xlink:href="#linear-gradient"/></defs><title>Eth 2</title><g id="Layer_2" data-name="Layer 2"><g id="Layer_1-2" data-name="Layer 1"><path id="Path_6915" data-name="Path 6915" class="cls-1" d="M192.53,45.93c.84-15.21-21-30.28-48.38-33.86S93.18,17.83,91,32.92c-1.38,9.58,22.78,30.75,50.15,34.34S191.49,64.91,192.53,45.93Z"/><g id="Path_6911" data-name="Path 6911"><path class="cls-2" d="M37.77,8.24a1,1,0,0,1-.38-1.92C53-.19,79.29-2.73,93.71,3.85a1,1,0,0,1,.49,1.33,1,1,0,0,1-1.32.49C78.94-.7,53.33,1.82,38.16,8.16A.91.91,0,0,1,37.77,8.24Z"/></g><g id="Path_6912" data-name="Path 6912"><path class="cls-2" d="M1,39.08a1,1,0,0,1-.4-1.92C16.4,30.35,49.83,22,77.21,26.93a1,1,0,0,1-.35,2C49.92,24.05,17,32.28,1.4,39A1.14,1.14,0,0,1,1,39.08Z"/></g><path id="Path_6913" data-name="Path 6913" class="cls-3" d="M192.53,45.93c.51-11.55-2.26-32-47.24-40.12C118.12.9,88.24,12.43,91,32.92c1,7.42,10.73,24.57,50.2,33.19C164,71.08,191.7,64.91,192.53,45.93Z"/><path id="Path_6914" data-name="Path 6914" class="cls-4" d="M192.53,45.93c.84-15.21-21-30.28-48.38-33.86S93.18,17.83,91,32.92c-1.38,9.58,22.78,30.75,50.15,34.34S191.49,64.91,192.53,45.93Z"/><g id="Path_6916" data-name="Path 6916"><path class="cls-2" d="M52,94a.51.51,0,0,1-.44-.25.5.5,0,0,1,.19-.68,282.07,282.07,0,0,1,103.89-34.8.5.5,0,0,1,.56.44.51.51,0,0,1-.43.56A280.81,280.81,0,0,0,52.26,94,.57.57,0,0,1,52,94Z"/></g><g id="Group_411" data-name="Group 411"><g id="Group_409" data-name="Group 409"><path id="Path_6917" data-name="Path 6917" class="cls-5" d="M168.51,41.73a.28.28,0,0,0-.17-.09l-13-5.85c-3.87-1.73-7.72-3.47-11.59-5.23-.45-.19-.88-.41-1.35-.58h-.09l-.06.07c-2.24,3-4.47,6-6.7,9a1.87,1.87,0,0,0-.38.55v0c1,1,1.94,2,2.9,3,1.37,1.4,2.71,2.81,4.08,4.23.71.74,2,2.52,2.16,2.48s22.64-7,24-7.55C168.43,41.81,168.55,41.82,168.51,41.73Z"/><path id="Path_6918" data-name="Path 6918" class="cls-5" d="M139.05,46.37c-2.22-2.33-4.44-4.64-6.67-7l0,0c1-1.38,5.86-10.36,5.8-10.4a30.62,30.62,0,0,1-5.33,3.85l-10.72,4.91-1.8.83c-.06,0-.17,0-.06.1l.06,0L142.43,50a.31.31,0,0,0,.2.07s-.08-.1-.12-.13C141.36,48.77,140.2,47.56,139.05,46.37Z"/></g><g id="Group_410" data-name="Group 410"><path id="Path_6919" data-name="Path 6919" class="cls-6" d="M166.94,40.88l-17.5-1.13h0a.8.8,0,0,0-.08-.16c-.3-.36-.6-.73-.88-1.11-.8-1-1.59-2-2.37-3l-1.7-2.17-2.65-3.39a5.11,5.11,0,0,1-.54-.75c.47.17.89.39,1.35.58,3.87,1.76,7.72,3.49,11.59,5.23l13,5.85c.07,0,.14,0,.17.1Z"/><path id="Path_6920" data-name="Path 6920" class="cls-7" d="M144.34,49.49a.08.08,0,0,1,0-.11,8.93,8.93,0,0,1,.45-.87c.3-.58.6-1.14.92-1.72.43-.81.84-1.62,1.27-2.43.35-.66.7-1.31,1-2,.48-.88.93-1.76,1.41-2.63l17.49,1.13h.32c.05.08-.08.07-.11.09L163,42.54l-18.4,6.88A.52.52,0,0,1,144.34,49.49Z"/><path id="Path_6921" data-name="Path 6921" class="cls-7" d="M149.41,39.74l-15.45-1a1.83,1.83,0,0,1,.38-.54l6.69-9a.46.46,0,0,0,.07-.07h.09a5.11,5.11,0,0,0,.54.75c.88,1.12,1.75,2.25,2.65,3.39.55.72,1.13,1.44,1.7,2.17l2.37,3c.28.37.58.75.87,1.11A.46.46,0,0,1,149.41,39.74Z"/><path id="Path_6922" data-name="Path 6922" class="cls-5" d="M144.34,49.49c-.12,0-.12-.05-.16-.07-.35-.38-.73-.76-1.08-1.13-.72-.75-1.45-1.5-2.15-2.25-1.37-1.4-2.72-2.81-4.08-4.23l-2.91-3v0l15.46,1h0c-.48.87-.93,1.75-1.41,2.63-.33.66-.68,1.32-1,2-.43.81-.85,1.62-1.27,2.43l-.92,1.72c-.16.28-.31.58-.45.87C144.33,49.42,144.31,49.44,144.34,49.49Z"/><path id="Path_6923" data-name="Path 6923" class="cls-6" d="M119,37.8c-.1-.08,0-.07.06-.09l1.81-.84L131.62,32l6.46-3c.06,0,.09,0,.13,0s0,.06,0,.08c-1.33,1.79-2.66,3.57-4,5.35l-3.08,4.12,0,.05-11.9-.77C119.15,37.78,119.07,37.77,119,37.8Z"/><path id="Path_6924" data-name="Path 6924" class="cls-7" d="M141.37,49.26a.36.36,0,0,1-.2-.06L119.1,37.85l-.06,0s.11,0,.19,0l11.89.77,6.68,7c1.14,1.2,2.31,2.4,3.45,3.61C141.3,49.17,141.36,49.21,141.37,49.26Z"/><path id="Path_6925" data-name="Path 6925" class="cls-8" d="M141.19,29.13h-.09C141.11,29.08,141.14,29.09,141.19,29.13Z"/></g></g></g></g></svg>