<svg xmlns="http://www.w3.org/2000/svg" width="19.756" height="19.256" viewBox="0 0 19.756 19.256">
  <path id="Icon_awesome-arrow-right" data-name="Icon awesome-arrow-right" d="M8.4,3.937l.979-.979a1.054,1.054,0,0,1,1.495,0l8.572,8.567a1.054,1.054,0,0,1,0,1.495l-8.572,8.572a1.054,1.054,0,0,1-1.495,0L8.4,20.613A1.059,1.059,0,0,1,8.417,19.1l5.313-5.062H1.058A1.056,1.056,0,0,1,0,12.981V11.57a1.056,1.056,0,0,1,1.058-1.058H13.731L8.417,5.449A1.052,1.052,0,0,1,8.4,3.937Z" transform="translate(0 -2.647)" fill="#ea0000"/>
</svg>
