<?xml version="1.0" encoding="utf-8"?>
<!-- Generator: Adobe Illustrator 23.1.0, SVG Export Plug-In . SVG Version: 6.00 Build 0)  -->
<svg version="1.1" id="Layer_1" xmlns="http://www.w3.org/2000/svg" xmlns:xlink="http://www.w3.org/1999/xlink" x="0px" y="0px"
	 viewBox="0 0 493 301.7" style="enable-background:new 0 0 493 301.7;" xml:space="preserve">
<style type="text/css">
	.st0{fill:url(#SVGID_1_);}
	.st1{fill:#580C48;}
	.st2{fill:url(#SVGID_2_);}
	.st3{opacity:0.61;fill:url(#SVGID_3_);}
	.st4{opacity:0.61;fill:url(#SVGID_4_);}
	.st5{opacity:0.61;fill:url(#SVGID_5_);}
	.st6{opacity:0.61;fill:url(#SVGID_6_);}
	.st7{opacity:0.61;fill:url(#SVGID_7_);}
	.st8{opacity:0.61;fill:url(#SVGID_8_);}
	.st9{opacity:0.61;fill:url(#SVGID_9_);}
	.st10{opacity:0.61;fill:url(#SVGID_10_);}
	.st11{fill:url(#SVGID_11_);}
	.st12{opacity:0.61;fill:url(#SVGID_12_);}
	.st13{opacity:0.62;fill:url(#SVGID_13_);}
	.st14{opacity:0.62;fill:url(#SVGID_14_);}
	.st15{opacity:0.78;fill:url(#SVGID_15_);}
	.st16{opacity:0.62;fill:url(#SVGID_16_);}
	.st17{fill:#262261;}
	.st18{fill:#892759;}
	.st19{fill:url(#SVGID_17_);}
	.st20{fill:#A82671;}
	.st21{fill:#E76F81;}
	.st22{fill:url(#SVGID_18_);}
	.st23{fill:#FFFFFF;}
	.st24{fill:#312F68;}
	.st25{opacity:0.56;fill:url(#SVGID_19_);}
	.st26{fill:#977280;}
	.st27{opacity:0.47;fill:#E6E7E8;}
	.st28{fill:#7D1854;}
	.st29{fill:#69505C;}
	.st30{fill:#6966AB;}
	.st31{opacity:0.18;}
	.st32{fill:#F9CDD4;}
	.st33{opacity:0.35;}
	.st34{fill:#C2242D;}
	.st35{fill:#080018;}
	.st36{opacity:0.58;fill:url(#SVGID_20_);}
	.st37{fill:url(#SVGID_21_);}
	.st38{fill:url(#SVGID_22_);}
	.st39{fill:#0B0018;}
	.st40{fill:#CB5474;}
	.st41{opacity:0.75;fill:url(#SVGID_23_);}
	.st42{opacity:0.33;}
	.st43{fill:#231F20;}
	.st44{opacity:0.58;fill:url(#SVGID_24_);}
	.st45{fill:url(#SVGID_25_);}
	.st46{fill:url(#SVGID_26_);}
	.st47{fill:#F497A9;}
	.st48{fill:#F3A095;}
	.st49{fill:#130E20;}
	.st50{opacity:0.94;}
	.st51{opacity:0.2;fill:#FFFFFF;}
	.st52{opacity:0.75;fill:url(#SVGID_27_);}
	.st53{opacity:0.75;fill:url(#SVGID_28_);}
	.st54{opacity:0.55;fill:#EF7D92;}
	.st55{fill:url(#SVGID_29_);}
	.st56{opacity:0.32;fill:url(#SVGID_30_);}
	.st57{fill:url(#SVGID_31_);}
	.st58{fill:url(#SVGID_32_);}
	.st59{fill:url(#SVGID_33_);}
	.st60{opacity:0.21;fill:url(#SVGID_34_);}
	.st61{fill:#3D3D3D;}
	.st62{opacity:0.19;}
	.st63{opacity:0.21;fill:url(#SVGID_35_);}
	.st64{opacity:0.1;}
	.st65{fill:#D5D6D5;}
	.st66{opacity:0.62;fill:url(#SVGID_36_);}
	.st67{fill:url(#SVGID_37_);}
	.st68{opacity:0.62;fill:url(#SVGID_38_);}
	.st69{fill:url(#SVGID_39_);}
	.st70{fill:#6B134C;}
	.st71{fill:#F3F4F5;}
	.st72{opacity:5.000000e-02;fill:#FFFFFF;}
	.st73{opacity:0.62;fill:url(#SVGID_40_);}
	.st74{fill:url(#SVGID_41_);}
	.st75{opacity:0.62;fill:url(#SVGID_42_);}
	.st76{fill:url(#SVGID_43_);}
	.st77{opacity:0.12;fill:url(#SVGID_44_);}
	.st78{opacity:0.12;fill:url(#SVGID_45_);}
	.st79{fill:url(#SVGID_46_);}
	.st80{opacity:0.37;fill:url(#SVGID_47_);}
	.st81{opacity:0.16;}
	.st82{opacity:0.36;}
	.st83{opacity:0.11;}
</style>
<title>jelly-butler</title>
<g>
	<path d="M356,160.8c4.2,8.1,18,42.1,69.1,90.3h-2c0,0-29.5-5.5-111.5,0l-41.6-25.7L356,160.8z"/>
	<path d="M127.7,158.1c-4.2,8.1-11,30.5-64.4,92.9h1.4c0,0,29.5-5.5,111.5,0l41.6-25.7L127.7,158.1z"/>
	<linearGradient id="SVGID_1_" gradientUnits="userSpaceOnUse" x1="259.768" y1="181.7354" x2="298.7613" y2="238.533">
		<stop  offset="0.2191" style="stop-color:#FFFFFF;stop-opacity:0"/>
		<stop  offset="0.3029" style="stop-color:#FCFCFC;stop-opacity:0.2204"/>
		<stop  offset="0.3545" style="stop-color:#F4F4F4;stop-opacity:0.3562"/>
		<stop  offset="0.3974" style="stop-color:#E5E5E5;stop-opacity:0.4692"/>
		<stop  offset="0.4356" style="stop-color:#D1D1D1;stop-opacity:0.5696"/>
		<stop  offset="0.4706" style="stop-color:#B6B6B6;stop-opacity:0.6617"/>
		<stop  offset="0.5033" style="stop-color:#969696;stop-opacity:0.7478"/>
		<stop  offset="0.5343" style="stop-color:#6F6F6F;stop-opacity:0.8292"/>
		<stop  offset="0.5638" style="stop-color:#424242;stop-opacity:0.9069"/>
		<stop  offset="0.5912" style="stop-color:#101010;stop-opacity:0.979"/>
		<stop  offset="0.5992" style="stop-color:#000000"/>
	</linearGradient>
	<path class="st0" d="M130,149.4c0,0,78,46.9,107.6,46.9c31.4,0,114.2-49.8,114.2-49.8l3.2,10.6l-105.7,76.4l-11.8-37.2l-8.5,37.2
		l-102.4-76.4L130,149.4z"/>
	<g>
		<g>
			<path class="st1" d="M261.1,4.1c-0.2-0.2-0.3-0.4-0.5-0.6C260.8,3.7,261,3.9,261.1,4.1z"/>
			<path class="st1" d="M262.1,5.2c-0.3-0.4-0.7-0.7-1-1.2C261.5,4.5,261.8,4.9,262.1,5.2z"/>
			<path class="st1" d="M265.2,7.9c-0.1,0-0.1-0.1-0.2-0.1C265.1,7.8,265.2,7.9,265.2,7.9z"/>
			<path class="st1" d="M265.3,7.9C265.3,7.9,265.2,7.9,265.3,7.9C265.2,7.9,265.3,7.9,265.3,7.9z"/>
			<path class="st1" d="M265.5,8.1c-0.1,0-0.1-0.1-0.2-0.1C265.3,8,265.4,8,265.5,8.1c0.1,0.1,0.3,0.1,0.4,0.2
				C265.7,8.2,265.6,8.1,265.5,8.1z"/>
			<path class="st1" d="M266.2,8.5c-0.1-0.1-0.2-0.1-0.4-0.2C265.9,8.3,266,8.4,266.2,8.5C266.2,8.5,266.2,8.5,266.2,8.5z"/>
			<path class="st1" d="M267.9,9.6c-0.1-0.1-0.2-0.2-0.3-0.2c0,0,0,0,0,0C267.7,9.5,267.8,9.6,267.9,9.6
				C267.9,9.6,267.9,9.6,267.9,9.6z"/>
			<path class="st1" d="M269,10.6c-0.2-0.2-0.4-0.3-0.6-0.5C268.7,10.3,268.8,10.5,269,10.6z"/>
			<path class="st1" d="M273,16.6c0.1,0.2,0.2,0.4,0.3,0.7C273.2,17,273.1,16.8,273,16.6z"/>
			
				<radialGradient id="SVGID_2_" cx="266.9047" cy="8.9317" r="8.306673e-03" fx="266.9046" fy="8.9317" gradientUnits="userSpaceOnUse">
				<stop  offset="0.4782" style="stop-color:#D04C5E;stop-opacity:0.5"/>
				<stop  offset="0.5603" style="stop-color:#C54960;stop-opacity:0.4213"/>
				<stop  offset="0.7039" style="stop-color:#A84065;stop-opacity:0.2837"/>
				<stop  offset="0.8907" style="stop-color:#7A336E;stop-opacity:0.1048"/>
				<stop  offset="1" style="stop-color:#5B2A73;stop-opacity:0"/>
			</radialGradient>
			<path class="st2" d="M266.9,8.9C266.9,8.9,266.9,8.9,266.9,8.9C266.9,8.9,266.9,8.9,266.9,8.9C266.9,8.9,266.9,8.9,266.9,8.9z"/>
			<radialGradient id="SVGID_3_" cx="260.8654" cy="3.7595" r="0.4283" fx="260.8662" fy="3.7626" gradientUnits="userSpaceOnUse">
				<stop  offset="0.238" style="stop-color:#FFFFFF;stop-opacity:0"/>
				<stop  offset="0.3115" style="stop-color:#EFD0D1;stop-opacity:8.144331e-02"/>
				<stop  offset="0.4009" style="stop-color:#DD9D9F;stop-opacity:0.1805"/>
				<stop  offset="0.4924" style="stop-color:#CE7275;stop-opacity:0.2819"/>
				<stop  offset="0.5841" style="stop-color:#C24F52;stop-opacity:0.3835"/>
				<stop  offset="0.6763" style="stop-color:#B83337;stop-opacity:0.4857"/>
				<stop  offset="0.7692" style="stop-color:#B12024;stop-opacity:0.5886"/>
				<stop  offset="0.8631" style="stop-color:#AD1419;stop-opacity:0.6927"/>
				<stop  offset="0.9599" style="stop-color:#AC1015;stop-opacity:0.8"/>
			</radialGradient>
			<path class="st3" d="M260.6,3.4c0.2,0.2,0.3,0.4,0.5,0.6C260.9,3.9,260.8,3.7,260.6,3.4z"/>
			<radialGradient id="SVGID_4_" cx="261.6163" cy="4.6547" r="0.8032" fx="261.6178" fy="4.6605" gradientUnits="userSpaceOnUse">
				<stop  offset="0.238" style="stop-color:#FFFFFF;stop-opacity:0"/>
				<stop  offset="0.3115" style="stop-color:#EFD0D1;stop-opacity:8.144331e-02"/>
				<stop  offset="0.4009" style="stop-color:#DD9D9F;stop-opacity:0.1805"/>
				<stop  offset="0.4924" style="stop-color:#CE7275;stop-opacity:0.2819"/>
				<stop  offset="0.5841" style="stop-color:#C24F52;stop-opacity:0.3835"/>
				<stop  offset="0.6763" style="stop-color:#B83337;stop-opacity:0.4857"/>
				<stop  offset="0.7692" style="stop-color:#B12024;stop-opacity:0.5886"/>
				<stop  offset="0.8631" style="stop-color:#AD1419;stop-opacity:0.6927"/>
				<stop  offset="0.9599" style="stop-color:#AC1015;stop-opacity:0.8"/>
			</radialGradient>
			<path class="st4" d="M261.1,4.1c0.3,0.4,0.7,0.8,1,1.2C261.8,4.9,261.5,4.5,261.1,4.1z"/>
			
				<radialGradient id="SVGID_5_" cx="265.2502" cy="7.9255" r="3.573612e-02" fx="265.2503" fy="7.9257" gradientUnits="userSpaceOnUse">
				<stop  offset="0.238" style="stop-color:#FFFFFF;stop-opacity:0"/>
				<stop  offset="0.3115" style="stop-color:#EFD0D1;stop-opacity:8.144331e-02"/>
				<stop  offset="0.4009" style="stop-color:#DD9D9F;stop-opacity:0.1805"/>
				<stop  offset="0.4924" style="stop-color:#CE7275;stop-opacity:0.2819"/>
				<stop  offset="0.5841" style="stop-color:#C24F52;stop-opacity:0.3835"/>
				<stop  offset="0.6763" style="stop-color:#B83337;stop-opacity:0.4857"/>
				<stop  offset="0.7692" style="stop-color:#B12024;stop-opacity:0.5886"/>
				<stop  offset="0.8631" style="stop-color:#AD1419;stop-opacity:0.6927"/>
				<stop  offset="0.9599" style="stop-color:#AC1015;stop-opacity:0.8"/>
			</radialGradient>
			<path class="st5" d="M265.2,7.9C265.2,7.9,265.3,7.9,265.2,7.9C265.3,7.9,265.2,7.9,265.2,7.9z"/>
			<radialGradient id="SVGID_6_" cx="265.1196" cy="7.8455" r="0.1256" fx="265.1199" fy="7.8464" gradientUnits="userSpaceOnUse">
				<stop  offset="0.238" style="stop-color:#FFFFFF;stop-opacity:0"/>
				<stop  offset="0.3115" style="stop-color:#EFD0D1;stop-opacity:8.144331e-02"/>
				<stop  offset="0.4009" style="stop-color:#DD9D9F;stop-opacity:0.1805"/>
				<stop  offset="0.4924" style="stop-color:#CE7275;stop-opacity:0.2819"/>
				<stop  offset="0.5841" style="stop-color:#C24F52;stop-opacity:0.3835"/>
				<stop  offset="0.6763" style="stop-color:#B83337;stop-opacity:0.4857"/>
				<stop  offset="0.7692" style="stop-color:#B12024;stop-opacity:0.5886"/>
				<stop  offset="0.8631" style="stop-color:#AD1419;stop-opacity:0.6927"/>
				<stop  offset="0.9599" style="stop-color:#AC1015;stop-opacity:0.8"/>
			</radialGradient>
			<path class="st6" d="M265,7.8c0.1,0,0.1,0.1,0.2,0.1C265.2,7.9,265.1,7.8,265,7.8z"/>
			<radialGradient id="SVGID_7_" cx="265.5585" cy="8.1017" r="0.3385" fx="265.5592" fy="8.1042" gradientUnits="userSpaceOnUse">
				<stop  offset="0.238" style="stop-color:#FFFFFF;stop-opacity:0"/>
				<stop  offset="0.3115" style="stop-color:#EFD0D1;stop-opacity:8.144331e-02"/>
				<stop  offset="0.4009" style="stop-color:#DD9D9F;stop-opacity:0.1805"/>
				<stop  offset="0.4924" style="stop-color:#CE7275;stop-opacity:0.2819"/>
				<stop  offset="0.5841" style="stop-color:#C24F52;stop-opacity:0.3835"/>
				<stop  offset="0.6763" style="stop-color:#B83337;stop-opacity:0.4857"/>
				<stop  offset="0.7692" style="stop-color:#B12024;stop-opacity:0.5886"/>
				<stop  offset="0.8631" style="stop-color:#AD1419;stop-opacity:0.6927"/>
				<stop  offset="0.9599" style="stop-color:#AC1015;stop-opacity:0.8"/>
			</radialGradient>
			<path class="st7" d="M265.5,8c0.1,0.1,0.2,0.1,0.4,0.2C265.7,8.2,265.6,8.1,265.5,8c-0.1,0-0.1-0.1-0.2-0.1
				C265.3,8,265.4,8,265.5,8z"/>
			<radialGradient id="SVGID_8_" cx="266.1514" cy="8.4476" r="0.1602" fx="266.1517" fy="8.4488" gradientUnits="userSpaceOnUse">
				<stop  offset="0.238" style="stop-color:#FFFFFF;stop-opacity:0"/>
				<stop  offset="0.3115" style="stop-color:#EFD0D1;stop-opacity:8.144331e-02"/>
				<stop  offset="0.4009" style="stop-color:#DD9D9F;stop-opacity:0.1805"/>
				<stop  offset="0.4924" style="stop-color:#CE7275;stop-opacity:0.2819"/>
				<stop  offset="0.5841" style="stop-color:#C24F52;stop-opacity:0.3835"/>
				<stop  offset="0.6763" style="stop-color:#B83337;stop-opacity:0.4857"/>
				<stop  offset="0.7692" style="stop-color:#B12024;stop-opacity:0.5886"/>
				<stop  offset="0.8631" style="stop-color:#AD1419;stop-opacity:0.6927"/>
				<stop  offset="0.9599" style="stop-color:#AC1015;stop-opacity:0.8"/>
			</radialGradient>
			<path class="st8" d="M266.3,8.5C266.3,8.5,266.2,8.5,266.3,8.5c-0.1-0.1-0.2-0.1-0.3-0.2c0,0,0.1,0,0.1,0.1c0,0,0,0,0,0
				C266.2,8.5,266.2,8.5,266.3,8.5z"/>
			
				<radialGradient id="SVGID_9_" cx="266.9321" cy="8.9498" r="4.699481e-02" fx="266.9322" fy="8.9501" gradientUnits="userSpaceOnUse">
				<stop  offset="0.238" style="stop-color:#FFFFFF;stop-opacity:0"/>
				<stop  offset="0.3115" style="stop-color:#EFD0D1;stop-opacity:8.144331e-02"/>
				<stop  offset="0.4009" style="stop-color:#DD9D9F;stop-opacity:0.1805"/>
				<stop  offset="0.4924" style="stop-color:#CE7275;stop-opacity:0.2819"/>
				<stop  offset="0.5841" style="stop-color:#C24F52;stop-opacity:0.3835"/>
				<stop  offset="0.6763" style="stop-color:#B83337;stop-opacity:0.4857"/>
				<stop  offset="0.7692" style="stop-color:#B12024;stop-opacity:0.5886"/>
				<stop  offset="0.8631" style="stop-color:#AD1419;stop-opacity:0.6927"/>
				<stop  offset="0.9599" style="stop-color:#AC1015;stop-opacity:0.8"/>
			</radialGradient>
			<path class="st9" d="M266.9,8.9C266.9,8.9,266.9,9,266.9,8.9C267,9,266.9,9,266.9,8.9C266.9,8.9,266.9,8.9,266.9,8.9
				C266.9,8.9,266.9,8.9,266.9,8.9z"/>
			<radialGradient id="SVGID_10_" cx="267.7073" cy="9.5131" r="0.2081" fx="267.7077" fy="9.5146" gradientUnits="userSpaceOnUse">
				<stop  offset="0.238" style="stop-color:#FFFFFF;stop-opacity:0"/>
				<stop  offset="0.3115" style="stop-color:#EFD0D1;stop-opacity:8.144331e-02"/>
				<stop  offset="0.4009" style="stop-color:#DD9D9F;stop-opacity:0.1805"/>
				<stop  offset="0.4924" style="stop-color:#CE7275;stop-opacity:0.2819"/>
				<stop  offset="0.5841" style="stop-color:#C24F52;stop-opacity:0.3835"/>
				<stop  offset="0.6763" style="stop-color:#B83337;stop-opacity:0.4857"/>
				<stop  offset="0.7692" style="stop-color:#B12024;stop-opacity:0.5886"/>
				<stop  offset="0.8631" style="stop-color:#AD1419;stop-opacity:0.6927"/>
				<stop  offset="0.9599" style="stop-color:#AC1015;stop-opacity:0.8"/>
			</radialGradient>
			<path class="st10" d="M267.6,9.4c0.1,0.1,0.2,0.1,0.3,0.2C267.8,9.6,267.7,9.5,267.6,9.4C267.6,9.4,267.6,9.4,267.6,9.4z"/>
			<path class="st1" d="M402.1,234c-0.1,0.2-0.1,0.4-0.2,0.6c-0.1,0.4-0.3,0.8-0.5,1.2c-0.1,0.1-0.1,0.3-0.2,0.4c0,0,0,0,0,0
				c-0.5,1.1-1.2,2.1-2.1,3c-0.1,0.1-0.2,0.2-0.3,0.3c-0.1,0.1-0.2,0.2-0.3,0.3c-0.2,0.2-0.3,0.3-0.5,0.5c-0.1,0.1-0.1,0.1-0.2,0.2
				c-1.1,0.9-2.4,1.7-3.9,2.4c0,0,0,0,0,0c-0.1,0-0.2,0.1-0.3,0.1c-0.1,0-0.1,0.1-0.2,0.1c-0.1,0-0.1,0-0.2,0.1
				c-3,1.2-6.7,1.8-11.2,1.6c-1,0-2-0.1-3-0.1c-0.6,0-1.2,0-1.8-0.1c-0.1,0-0.1,0-0.2,0c-4.4-0.1-8.4-0.1-12-0.1c-0.3,0-0.6,0-0.9,0
				c-0.4,0-0.9,0-1.3,0c-0.4,0-0.9,0-1.3,0c-0.3,0-0.5,0-0.8,0c-0.4,0-0.7,0-1.1,0c-0.1,0-0.2,0-0.3,0c-0.4,0-0.7,0-1.1,0
				c-0.2,0-0.4,0-0.6,0c-0.4,0-0.8,0-1.2,0c-0.1,0-0.3,0-0.4,0c-0.3,0-0.6,0-0.8,0h0c-0.3,0-0.6,0-0.8,0c-0.1,0-0.3,0-0.4,0
				c-0.3,0-0.6,0-1,0c-0.3,0-0.7,0-1,0c-0.3,0-0.5,0-0.7,0c-0.5,0-1,0.1-1.4,0.1c-0.8,0-1.5,0.1-2.3,0.1c-0.2,0-0.4,0-0.6,0
				c-0.1,0-0.2,0-0.3,0c-0.2,0-0.4,0-0.6,0c-1.2,0.1-2.2,0.2-3.1,0.3c-2,0.2-4,0.8-5.7,1.8c-4.7,2.6-9.2,4.5-13.5,5.8c0,0,0,0,0,0
				c-0.4,0.1-0.8,0.2-1.1,0.3c0,0,0,0,0,0c-16.6,4.7-28.9,0.8-28.9,0.8c-39.7-4.5-46-3.1-59.6,1c-13.6,4.2-18.8-3.1-27.2-1
				c-0.1,0-0.1,0-0.2,0.1c-5.8,1.4-13.4,0-17.4-0.9c-0.4-0.1-0.7-0.1-1.1-0.2c0,0,0,0,0,0c-1.5-0.2-3,0.1-4.4,0.7
				c-0.1,0-0.1,0.1-0.2,0.1c-9.8,4.2-16.5,7.1-21,7.8c-0.1,0-0.1,0-0.2,0c-3.3,0.4-5.7,0.1-7.3-0.7c0,0,0,0,0,0
				c-1.1-0.5-1.9-1.2-2.5-2c-1.6-2.1-1.8-4.7-2.2-6c0,0,0,0,0,0c0-0.1-0.1-0.3-0.1-0.4c-0.2-0.5-0.5-0.9-0.8-1.3
				c0,0-0.1-0.1-0.1-0.1c0,0-0.1-0.1-0.1-0.1c0,0,0,0,0,0c0,0,0,0-0.1-0.1c0,0,0,0-0.1-0.1c0,0,0,0,0,0c-0.1-0.1-0.2-0.1-0.3-0.2
				c0,0-0.1-0.1-0.1-0.1c-0.1-0.1-0.2-0.1-0.3-0.2c-3.8-1.9-11,1.4-16,2.2c-1,0.2-1.9,0.3-2.9,0.4c0,0,0,0,0,0
				c-5.2,0.7-9.8,1-13.8,0.9c-0.2,0-0.3,0-0.5,0c-0.1,0-0.2,0-0.3,0c-0.7,0-1.3,0-2-0.1c-0.2,0-0.3,0-0.4,0c-0.7,0-1.3-0.1-1.9-0.1
				c-0.2,0-0.4,0-0.7-0.1c-0.6-0.1-1.1-0.1-1.7-0.2c-0.1,0-0.2,0-0.3,0c-0.7-0.1-1.3-0.2-1.9-0.3c-0.2,0-0.5-0.1-0.7-0.1
				c-0.4-0.1-0.7-0.2-1.1-0.2c-0.1,0-0.2-0.1-0.4-0.1c-0.5-0.1-0.9-0.2-1.4-0.4c-0.1,0-0.2-0.1-0.3-0.1c-0.2,0-0.3-0.1-0.5-0.1
				c-0.2-0.1-0.3-0.1-0.5-0.2c-0.1,0-0.2-0.1-0.3-0.1c-0.1,0-0.2-0.1-0.3-0.1c-0.1,0-0.2-0.1-0.3-0.1c-0.1,0-0.2-0.1-0.3-0.1
				c-0.1,0-0.2-0.1-0.3-0.1c-0.2-0.1-0.4-0.1-0.5-0.2c0,0,0,0,0,0c0,0,0,0,0,0c0,0-0.1,0-0.1,0c0,0-0.1,0-0.1,0
				c-0.5-0.2-1-0.4-1.5-0.7c-0.1,0-0.1-0.1-0.2-0.1c-0.3-0.1-0.6-0.3-0.9-0.4c-0.1,0-0.2-0.1-0.2-0.1c-0.8-0.5-1.6-1-2.3-1.5
				c-0.1-0.1-0.2-0.1-0.2-0.2c-0.1-0.1-0.1-0.1-0.2-0.2c-0.1-0.1-0.1-0.1-0.2-0.2c0,0-0.1-0.1-0.1-0.1c-0.1-0.1-0.1-0.1-0.2-0.2
				c-0.1-0.1-0.1-0.1-0.2-0.2c-0.1,0-0.1-0.1-0.2-0.1c-0.1-0.1-0.1-0.1-0.2-0.2c-0.1-0.1-0.2-0.2-0.3-0.3c-0.2-0.2-0.4-0.4-0.5-0.5
				c0-0.1-0.1-0.1-0.1-0.2c0,0,0-0.1-0.1-0.1c0-0.1-0.1-0.1-0.1-0.2c0,0,0,0,0,0c-0.1-0.1-0.2-0.2-0.2-0.3c-0.1-0.1-0.1-0.1-0.2-0.2
				c-0.1-0.2-0.3-0.3-0.4-0.5c-0.1-0.2-0.3-0.4-0.4-0.6c0-0.1-0.1-0.1-0.1-0.2c-0.1-0.1-0.2-0.2-0.2-0.4c0-0.1-0.1-0.1-0.1-0.2
				c-0.1-0.2-0.2-0.4-0.3-0.6c0-0.1-0.1-0.1-0.1-0.2c-0.1-0.1-0.1-0.3-0.2-0.4c-0.1-0.1-0.1-0.3-0.2-0.4c-0.1-0.1-0.1-0.2-0.2-0.3
				c0-0.1-0.1-0.1-0.1-0.2c0-0.1-0.1-0.1-0.1-0.2c0-0.1-0.1-0.1-0.1-0.2c0-0.1,0-0.1-0.1-0.2c-0.2-0.6-0.4-1.2-0.6-1.8
				c0-0.1,0-0.1-0.1-0.2c0-0.1,0-0.1,0-0.2c0-0.2-0.1-0.4-0.1-0.6c0-0.1,0-0.3-0.1-0.4c0-0.2-0.1-0.4-0.1-0.6c0,0,0,0,0,0
				c0-0.2,0-0.4-0.1-0.5c-0.2-2.5,0.1-4.9,0.8-7.1c0-0.1,0.1-0.3,0.1-0.4c0.1-0.4,0.3-0.7,0.4-1.1c0.1-0.2,0.2-0.4,0.3-0.6
				c0.1-0.2,0.2-0.4,0.3-0.6c0,0,0,0,0,0c0.1-0.3,0.3-0.5,0.5-0.8c0.1-0.1,0.1-0.2,0.2-0.3c0.1-0.2,0.2-0.3,0.3-0.5
				c0.1-0.2,0.2-0.3,0.4-0.5c0.1-0.2,0.2-0.3,0.4-0.5s0.3-0.3,0.4-0.4c0.1-0.1,0.2-0.2,0.3-0.3c0,0,0.1-0.1,0.1-0.1
				c0.1-0.1,0.1-0.1,0.2-0.2c1.3-1.2,2.8-2.1,4.3-2.4c0.3-0.1,0.7-0.1,1-0.1c0.7-0.1,1.2-0.3,1.6-0.6c2-1.8,0.3-7.3,4.8-11.6
				c0.1-0.1,0.1-0.1,0.2-0.2c0.1-0.1,0.2-0.2,0.3-0.3c0.1-0.1,0.2-0.2,0.4-0.3c0.1-0.1,0.1-0.1,0.2-0.2c0.1-0.1,0.3-0.2,0.4-0.3
				c0.2-0.1,0.4-0.3,0.7-0.4c0.2-0.1,0.5-0.3,0.7-0.4c0.1-0.1,0.2-0.1,0.3-0.2c0.2-0.1,0.4-0.2,0.6-0.3c0.1-0.1,0.2-0.1,0.4-0.2
				c0.3-0.1,0.5-0.2,0.8-0.3c0.1-0.1,0.3-0.1,0.4-0.2c0.2-0.1,0.4-0.2,0.6-0.2c0.1,0,0.2-0.1,0.3-0.1c0.1,0,0.2-0.1,0.3-0.1
				c0.1,0,0.2-0.1,0.2-0.1c0.2-0.1,0.4-0.1,0.6-0.2c0.1,0,0.2,0,0.3-0.1c0.1,0,0.2-0.1,0.3-0.1c0.1,0,0.2,0,0.3-0.1
				c0.1,0,0.1,0,0.2,0c0.1,0,0.1,0,0.2,0c0,0,0,0,0,0c0.1,0,0.2,0,0.3-0.1c0,0,0,0,0,0c0,0,0,0,0,0c0,0,0,0,0,0
				c0.1,0,0.3-0.1,0.4-0.1c0.2-0.1,0.4-0.1,0.5-0.2c0,0,0,0,0,0c0,0,0,0,0,0c0.1,0,0.1-0.1,0.2-0.1c0.1,0,0.1-0.1,0.2-0.1
				c1-1.1,1.6-4.3,3.1-15.3c2.7-19.2,14.6-40.2,14.6-40.2c-2-19.6,5.1-9.2,7.3-22c3.2-17.9,32.9-61.7,32.9-61.7s54.9,2,67.7-43
				c0,0,0,0,0,0c1.5-5.2,2.4-11,2.6-17.5v0c0-0.1,0-0.2,0-0.3v0c13-4.5,20.2-1.1,24.1,2.7c0.3,0.3,0.5,0.5,0.7,0.8
				c0.1,0.1,0.2,0.3,0.3,0.4c0.1,0.1,0.1,0.1,0.2,0.2c0.2,0.2,0.3,0.4,0.4,0.6c0.1,0.2,0.3,0.4,0.4,0.6c0.1,0.1,0.2,0.2,0.2,0.4
				c0.1,0.1,0.1,0.2,0.2,0.3c0,0,0,0.1,0.1,0.1c0,0.1,0.1,0.1,0.1,0.2c0.1,0.1,0.1,0.2,0.2,0.3c0.2,0.3,0.3,0.6,0.5,0.9
				c0.1,0.1,0.2,0.3,0.3,0.4c0,0,0,0,0,0c0.4,0.3,0.9,0.4,1.4,0c2.7-2,5.5-2.9,8.4-2.8c0.1,0,0.1,0,0.2,0c0.1,0,0.1,0,0.2,0
				c0,0,0.1,0,0.1,0c0.1,0,0.2,0,0.3,0c0.1,0,0.2,0,0.3,0c0.1,0,0.2,0,0.3,0c0.1,0,0.1,0,0.2,0c0.1,0,0.2,0,0.3,0l0.2,0
				c0.1,0,0.1,0,0.2,0c0.1,0,0.1,0,0.2,0c0.1,0,0.2,0,0.3,0.1c0.1,0,0.1,0,0.2,0c0.7,0.2,1.5,0.4,2.2,0.7c0.1,0,0.2,0.1,0.3,0.1
				c0.1,0.1,0.3,0.1,0.4,0.2c0.1,0,0.2,0.1,0.3,0.1c0.2,0.1,0.4,0.2,0.6,0.3c0.1,0,0.2,0.1,0.2,0.1c0.3,0.2,0.7,0.3,1,0.5
				c0.1,0,0.1,0.1,0.2,0.1c0.1,0.1,0.2,0.1,0.3,0.2c0.1,0.1,0.2,0.1,0.3,0.2c0.1,0.1,0.2,0.1,0.3,0.2c0.1,0.1,0.2,0.1,0.3,0.2
				c0.1,0.1,0.2,0.1,0.2,0.2c0.1,0,0.1,0.1,0.2,0.1c0.1,0.1,0.2,0.1,0.3,0.2c0.1,0.1,0.2,0.1,0.2,0.2c0.1,0.1,0.2,0.2,0.3,0.2
				c0.1,0.1,0.2,0.1,0.2,0.2c0.1,0.1,0.2,0.1,0.3,0.2c0.3,0.2,0.5,0.4,0.8,0.6c0.1,0.1,0.2,0.2,0.3,0.3c0.2,0.2,0.5,0.4,0.7,0.6
				c0,0,0,0,0,0c0.1,0.1,0.2,0.2,0.3,0.3c0.1,0.1,0.2,0.2,0.3,0.3c0.1,0.1,0.2,0.2,0.3,0.3c0.2,0.1,0.3,0.3,0.5,0.5
				c0.1,0.1,0.1,0.1,0.2,0.2c0.1,0.1,0.1,0.1,0.2,0.2c0,0,0.1,0.1,0.1,0.1c0.1,0.1,0.2,0.2,0.3,0.3c0.1,0.1,0.2,0.2,0.3,0.3
				c0,0,0,0,0.1,0.1c0.1,0.1,0.2,0.2,0.3,0.3c0.2,0.2,0.5,0.5,0.7,0.7c0.2,0.2,0.4,0.5,0.7,0.7c0.5,0.5,0.9,1,1.4,1.5
				c0.1,0.1,0.2,0.3,0.3,0.4c0.1,0.1,0.2,0.3,0.4,0.4c0.1,0.1,0.2,0.3,0.3,0.4c0.6,0.7,1.1,1.4,1.7,2.1c0.2,0.3,0.4,0.5,0.6,0.8
				c1.5,1.9,2.9,3.8,4.3,5.9c0.2,0.3,0.4,0.6,0.7,1c0.1,0.2,0.2,0.3,0.3,0.5c0.1,0.2,0.2,0.3,0.3,0.5c1.8,2.6,3.5,5.4,5.2,8.3
				c0.1,0.2,0.2,0.4,0.3,0.5c0.1,0.2,0.2,0.4,0.3,0.5c0.3,0.5,0.6,1.1,0.9,1.7c0.2,0.3,0.3,0.6,0.5,0.9c0.3,0.4,0.5,0.9,0.7,1.3
				c0.1,0.1,0.1,0.2,0.2,0.4c0.1,0.1,0.1,0.3,0.2,0.4c0.1,0.2,0.2,0.4,0.3,0.6c0.4,0.8,0.9,1.6,1.3,2.5c0.1,0.2,0.2,0.4,0.3,0.6
				c0.1,0.3,0.3,0.6,0.4,0.8c0.1,0.2,0.3,0.5,0.4,0.7c0.1,0.1,0.1,0.2,0.2,0.3c0.1,0.2,0.2,0.4,0.3,0.6c0.2,0.3,0.4,0.7,0.5,1
				c0.2,0.4,0.4,0.9,0.7,1.3c0.1,0.2,0.2,0.4,0.3,0.6c0.2,0.3,0.3,0.6,0.5,0.9c0.1,0.2,0.2,0.4,0.3,0.6c1,1.9,1.9,3.8,2.8,5.8
				c0.1,0.3,0.3,0.6,0.4,0.9c0,0,0,0,0,0c1.2,2.6,2.4,5.2,3.6,7.8c0.2,0.4,0.3,0.7,0.5,1.1c0.1,0.3,0.2,0.5,0.4,0.8
				c0.1,0.3,0.3,0.7,0.4,1c0.2,0.4,0.3,0.8,0.5,1.2c0.3,0.8,0.7,1.6,1,2.3c0.5,1.2,1,2.4,1.5,3.6c0.1,0.3,0.3,0.7,0.4,1
				c0.2,0.4,0.3,0.8,0.5,1.1c0.3,0.7,0.6,1.4,0.9,2.1c0.2,0.4,0.3,0.8,0.5,1.3c0.2,0.4,0.3,0.7,0.5,1.1c0.2,0.5,0.4,1,0.6,1.6
				c0.2,0.6,0.5,1.1,0.7,1.7c0.4,1,0.8,2,1.2,2.9c0.1,0.3,0.2,0.5,0.3,0.8c0,0.1,0.1,0.1,0.1,0.2c0.1,0.3,0.2,0.6,0.3,0.8
				c0.3,0.7,0.5,1.3,0.8,2c0.1,0.3,0.2,0.5,0.3,0.8c0.2,0.5,0.4,1.1,0.6,1.6c0.1,0.3,0.2,0.6,0.4,0.9c0.1,0.3,0.2,0.6,0.4,1
				c0.1,0.3,0.2,0.6,0.3,0.8c0.3,0.8,0.6,1.5,0.8,2.2c0.1,0.1,0.1,0.3,0.2,0.4c0.1,0.2,0.1,0.4,0.2,0.5c0.1,0.2,0.2,0.5,0.3,0.7
				c0.2,0.6,0.5,1.3,0.7,1.9c0.1,0.2,0.2,0.5,0.3,0.7c0.1,0.2,0.2,0.5,0.3,0.7c0.1,0.2,0.1,0.4,0.2,0.6c0.1,0.4,0.3,0.7,0.4,1.1
				c0.1,0.2,0.1,0.4,0.2,0.6c0,0,0,0,0,0.1c0.1,0.2,0.1,0.4,0.2,0.5c0.1,0.1,0.1,0.3,0.2,0.4c0,0,0,0.1,0.1,0.1
				c0.1,0.3,0.2,0.5,0.3,0.8c0.1,0.3,0.2,0.6,0.3,0.9c0.1,0.2,0.1,0.3,0.2,0.5c0.1,0.2,0.1,0.3,0.2,0.5c0,0.1,0.1,0.2,0.1,0.2
				c0,0.1,0.1,0.2,0.1,0.4c0,0.1,0.1,0.2,0.1,0.2c0.1,0.3,0.2,0.6,0.3,0.9c0.6,1.6,2.7,13.7,2.8,14.9c0.1,0.9,0.2,1.9,0.3,2.9
				c0,0.1,0,0.2,0,0.4c0,0.2,0.1,0.4,0.1,0.6c0,0.2,0.1,0.3,0.1,0.5c0.1,0.6,0.2,1.2,0.3,1.8c0,0.2,0.1,0.3,0.1,0.5
				c0,0.2,0.1,0.4,0.1,0.6c0,0.2,0.1,0.4,0.1,0.6c0,0.2,0.1,0.4,0.1,0.6c0.1,0.4,0.2,0.8,0.2,1.2c0,0.2,0.1,0.4,0.1,0.6
				c0,0.2,0.1,0.4,0.1,0.6c0,0.2,0.1,0.4,0.1,0.6c0,0.2,0.1,0.4,0.1,0.6c0.1,0.4,0.2,0.8,0.3,1.3c0.2,0.6,0.3,1.3,0.5,2
				c0.1,0.4,0.2,0.8,0.3,1.2c0,0,0,0,0,0c0.1,0.4,0.2,0.8,0.3,1.2c0.1,0.5,0.3,0.9,0.4,1.4c0.1,0.2,0.1,0.4,0.2,0.6
				c0.5,1.7,1,3.5,1.6,5.2c0.1,0.2,0.1,0.4,0.2,0.7c0.1,0.2,0.1,0.4,0.2,0.7c0.1,0.2,0.1,0.4,0.2,0.7c0.1,0.2,0.1,0.4,0.2,0.7
				c0.5,1.4,0.9,2.7,1.4,4.1c0.1,0.4,0.3,0.8,0.4,1.2c0.1,0.2,0.2,0.4,0.2,0.6c0.4,1.1,0.8,2.1,1.3,3.2c0.2,0.4,0.3,0.8,0.5,1.2
				c0.1,0.2,0.2,0.5,0.3,0.7c0.1,0.2,0.2,0.4,0.3,0.6c0.1,0.2,0.2,0.4,0.3,0.6c0.2,0.4,0.3,0.8,0.5,1.1c0.2,0.4,0.3,0.7,0.5,1.1
				c0,0,0,0,0,0.1c0.1,0.1,0.1,0.3,0.2,0.4c0,0,0,0.1,0,0.1c0.1,0.2,0.1,0.3,0.2,0.5c0,0,0,0,0,0c0,0,0,0.1,0,0.1
				c0.2,0.4,0.3,0.7,0.5,1.1c0.3,0.5,0.5,1.1,0.8,1.6c0,0,0,0,0,0c0.1,0.2,0.2,0.4,0.3,0.5c0,0,0,0,0,0c0,0,0,0.1,0,0.1
				c0,0,0,0.1,0,0.1c0,0,0,0.1,0,0.1c0,0,0,0.1,0.1,0.1c0,0,0,0.1,0.1,0.1c0,0,0,0,0,0c0,0,0,0.1,0,0.1c0.1,0.2,0.2,0.4,0.3,0.5
				c0.9,1.9,1.9,3.6,2.8,5.3c0.1,0.2,0.2,0.3,0.3,0.5c0.1,0.1,0.1,0.2,0.2,0.3c0.1,0.2,0.2,0.3,0.3,0.5c0.7,1.1,1.3,2.2,2,3.2
				c0.1,0.2,0.3,0.4,0.4,0.6c0.1,0.1,0.2,0.3,0.3,0.4c0.1,0.1,0.2,0.2,0.2,0.3c0.1,0.1,0.2,0.2,0.3,0.4c0.1,0.1,0.1,0.1,0.2,0.2
				c0.1,0.1,0.1,0.1,0.2,0.2c0,0,0.1,0.1,0.1,0.1c0.4,0.6,0.8,1.1,1.2,1.6c0.1,0.1,0.2,0.2,0.3,0.3c0,0,0,0,0,0
				c0.1,0.1,0.2,0.2,0.3,0.3c0.1,0.1,0.1,0.1,0.2,0.2c0.1,0.1,0.1,0.1,0.2,0.2c0.1,0.2,0.3,0.3,0.4,0.5c0.1,0.1,0.1,0.1,0.2,0.2
				c0.1,0.1,0.1,0.1,0.2,0.2c0.1,0.1,0.1,0.1,0.2,0.2c0.1,0.1,0.2,0.2,0.2,0.2c0.1,0.1,0.1,0.1,0.2,0.2c0,0,0.1,0.1,0.1,0.1
				c0,0,0,0,0,0c0.1,0.1,0.2,0.1,0.2,0.2c0.1,0.1,0.2,0.1,0.2,0.2c0.1,0.1,0.2,0.1,0.2,0.2c0,0,0,0,0,0c0,0,0,0,0,0
				c2.8,2.3,5,3.2,7.2,6.3c4,5.6,2.1,11.9,4.7,12.4c0,0,0.1,0,0.1,0c0.1,0,0.3,0,0.4,0.1c0.1,0,0.3,0.1,0.4,0.1
				c0.2,0,0.4,0.1,0.6,0.1c0.1,0,0.2,0,0.3,0.1c0.1,0,0.2,0,0.3,0.1c0,0,0,0,0,0c0,0,0,0,0,0c0,0,0,0,0,0c3.3,0.9,5.1,2.5,6.8,3.4
				c0.9,0.5,2.1,1.6,3.1,3.1c0.5,0.8,1.1,1.7,1.5,2.7c0,0,0,0,0,0c0.7,1.4,1.1,2.9,1.3,4.6v0C402.5,231.7,402.4,232.8,402.1,234z"/>
			
				<radialGradient id="SVGID_11_" cx="-211.7165" cy="14642.3848" r="1282.9791" fx="-219.2124" fy="14640.5244" gradientTransform="matrix(0.1128 0 0 0.1128 268.516 -1520.0498)" gradientUnits="userSpaceOnUse">
				<stop  offset="0.4782" style="stop-color:#D04C5E;stop-opacity:0.5"/>
				<stop  offset="0.5603" style="stop-color:#C54960;stop-opacity:0.4213"/>
				<stop  offset="0.7039" style="stop-color:#A84065;stop-opacity:0.2837"/>
				<stop  offset="0.8907" style="stop-color:#7A336E;stop-opacity:0.1048"/>
				<stop  offset="1" style="stop-color:#5B2A73;stop-opacity:0"/>
			</radialGradient>
			<path class="st11" d="M402.1,234c-0.1,0.2-0.1,0.4-0.2,0.6c-0.1,0.4-0.3,0.8-0.5,1.2c-0.1,0.1-0.1,0.3-0.2,0.4c0,0,0,0,0,0
				c-0.5,1.1-1.2,2.1-2.1,3c-0.1,0.1-0.2,0.2-0.3,0.3c-0.1,0.1-0.2,0.2-0.3,0.3c-0.2,0.2-0.3,0.3-0.5,0.5c-0.1,0.1-0.1,0.1-0.2,0.2
				c-1.1,0.9-2.4,1.7-3.9,2.4c0,0,0,0,0,0c-0.1,0-0.2,0.1-0.3,0.1c-0.1,0-0.1,0.1-0.2,0.1c-0.1,0-0.1,0-0.2,0.1c0,0,0,0,0,0
				c-3,1.2-6.7,1.8-11.2,1.6c-1,0-2-0.1-3-0.1c-0.6,0-1.2,0-1.8-0.1c-0.1,0-0.1,0-0.2,0c-4.4-0.1-8.4-0.1-12-0.1c-0.3,0-0.6,0-0.9,0
				c-0.4,0-0.9,0-1.3,0c-0.4,0-0.9,0-1.3,0c-0.3,0-0.5,0-0.8,0c-0.4,0-0.7,0-1.1,0c-0.1,0-0.2,0-0.3,0c-0.4,0-0.7,0-1.1,0
				c-0.2,0-0.4,0-0.6,0c-0.4,0-0.8,0-1.2,0c-0.1,0-0.3,0-0.4,0c-0.3,0-0.6,0-0.8,0h0c-0.3,0-0.6,0-0.8,0c-0.1,0-0.3,0-0.4,0
				c-0.3,0-0.6,0-1,0c-0.3,0-0.7,0-1,0c-0.3,0-0.5,0-0.7,0c-0.5,0-1,0.1-1.4,0.1c-0.8,0-1.5,0.1-2.3,0.1c-0.2,0-0.4,0-0.6,0
				c-0.1,0-0.2,0-0.3,0c-0.2,0-0.4,0-0.6,0c-1.2,0.1-2.2,0.2-3.1,0.3c-2,0.2-4,0.8-5.7,1.8c-4.7,2.6-9.2,4.5-13.5,5.8c0,0,0,0,0,0
				c-0.4,0.1-0.8,0.2-1.1,0.3c0,0,0,0,0,0c-16.6,4.7-28.9,0.8-28.9,0.8c-39.7-4.5-46-3.1-59.6,1c-13.6,4.2-18.8-3.1-27.2-1
				c-0.1,0-0.1,0-0.2,0.1c-4.2,1-8.9-0.3-12.7-1.4c-1.4-0.4-2.7-0.8-3.8-1.1c-1.8-0.4-5.7,0.2-7.3,1.1c-4.9,2.9-9.7,5.3-13.8,6.9
				c-2.5,1-4.8,1.7-6.5,1.9c-0.1,0-0.1,0-0.2,0c-3.3,0.4-5.7,0.1-7.3-0.7c0,0,0,0,0,0c-1.1-0.5-1.9-1.2-2.5-2
				c-1.6-2.1-1.8-4.7-2.2-6c0,0,0,0,0,0c0-0.1-0.1-0.3-0.1-0.4c-0.2-0.5-0.5-0.9-0.8-1.3c0,0-0.1-0.1-0.1-0.1c0,0-0.1-0.1-0.1-0.1
				c0,0,0,0,0,0c0,0,0,0,0,0c0,0,0,0-0.1,0c0,0,0,0-0.1-0.1c0,0,0,0,0,0c-0.1-0.1-0.2-0.1-0.3-0.2c0,0-0.1-0.1-0.1-0.1
				c-0.1-0.1-0.2-0.1-0.3-0.2c-3.8-1.9-11,1.4-16,2.2c-1,0.2-1.9,0.3-2.9,0.4c0,0,0,0,0,0c-5.2,0.7-9.8,1-13.8,0.9
				c-0.2,0-0.3,0-0.5,0c-0.1,0-0.2,0-0.3,0c-0.7,0-1.3,0-2-0.1c-0.2,0-0.3,0-0.4,0c-0.7,0-1.3-0.1-1.9-0.1c-0.2,0-0.4,0-0.7-0.1
				c-0.6-0.1-1.1-0.1-1.7-0.2c-0.1,0-0.2,0-0.3,0c-0.7-0.1-1.3-0.2-1.9-0.3c-0.2,0-0.5-0.1-0.7-0.1c-0.4-0.1-0.7-0.2-1.1-0.2
				c-0.1,0-0.2-0.1-0.4-0.1c-0.5-0.1-0.9-0.2-1.4-0.4c-0.1,0-0.2-0.1-0.3-0.1c-0.2,0-0.3-0.1-0.5-0.1c-0.2-0.1-0.3-0.1-0.5-0.2
				c-0.1,0-0.2-0.1-0.3-0.1c-0.1,0-0.2-0.1-0.3-0.1c-0.1,0-0.2-0.1-0.3-0.1c-0.1,0-0.2-0.1-0.3-0.1c-0.1,0-0.2-0.1-0.3-0.1
				c-0.2-0.1-0.4-0.1-0.5-0.2c0,0,0,0,0,0c0,0,0,0,0,0c0,0-0.1,0-0.1,0c0,0-0.1,0-0.1,0c-0.5-0.2-1-0.4-1.5-0.7
				c-0.1,0-0.1-0.1-0.2-0.1c-0.3-0.1-0.6-0.3-0.9-0.4c-0.1,0-0.2-0.1-0.2-0.1c-0.8-0.5-1.6-1-2.3-1.5c-0.1-0.1-0.2-0.1-0.2-0.2
				c-0.1-0.1-0.1-0.1-0.2-0.2c-0.1-0.1-0.1-0.1-0.2-0.2c0,0-0.1-0.1-0.1-0.1c-0.1-0.1-0.1-0.1-0.2-0.2c-0.1-0.1-0.1-0.1-0.2-0.2
				c-0.1,0-0.1-0.1-0.2-0.1c-0.1-0.1-0.1-0.1-0.2-0.2c-0.1-0.1-0.2-0.2-0.3-0.3c-0.2-0.2-0.4-0.4-0.5-0.5c0-0.1-0.1-0.1-0.1-0.2
				c0,0,0-0.1-0.1-0.1c0-0.1-0.1-0.1-0.1-0.2c0,0,0,0,0,0c-0.1-0.1-0.2-0.2-0.2-0.3c-0.1-0.1-0.1-0.1-0.2-0.2
				c-0.1-0.2-0.3-0.3-0.4-0.5c-0.1-0.2-0.3-0.4-0.4-0.6c0-0.1-0.1-0.1-0.1-0.2c-0.1-0.1-0.2-0.2-0.2-0.4c0-0.1-0.1-0.1-0.1-0.2
				c-0.1-0.2-0.2-0.4-0.3-0.6c0-0.1-0.1-0.1-0.1-0.2c-0.1-0.1-0.1-0.3-0.2-0.4c-0.1-0.1-0.1-0.3-0.2-0.4c-0.1-0.1-0.1-0.2-0.2-0.3
				c0-0.1-0.1-0.1-0.1-0.2c0-0.1-0.1-0.1-0.1-0.2c0-0.1-0.1-0.1-0.1-0.2c0-0.1,0-0.1-0.1-0.2c-0.2-0.6-0.4-1.2-0.6-1.8
				c0-0.1,0-0.1-0.1-0.2c0-0.1,0-0.1,0-0.2c0-0.2-0.1-0.4-0.1-0.6c0-0.1,0-0.3-0.1-0.4c0-0.2-0.1-0.4-0.1-0.6c0,0,0,0,0,0
				c0-0.2,0-0.4-0.1-0.5c-0.2-2.5,0.1-4.9,0.8-7.1c0-0.1,0.1-0.3,0.1-0.4c0.1-0.4,0.3-0.7,0.4-1.1c0.1-0.2,0.2-0.4,0.3-0.6
				c0.1-0.2,0.2-0.4,0.3-0.6c0,0,0,0,0,0c0.1-0.3,0.3-0.5,0.5-0.8c0.1-0.1,0.1-0.2,0.2-0.3c0.1-0.2,0.2-0.3,0.3-0.5
				c0.1-0.2,0.2-0.3,0.4-0.5c0.1-0.2,0.2-0.3,0.4-0.5s0.3-0.3,0.4-0.4c0.1-0.1,0.2-0.2,0.3-0.3c0,0,0.1-0.1,0.1-0.1
				c0.1-0.1,0.1-0.1,0.2-0.2c1.3-1.2,2.8-2.1,4.3-2.4c0.3-0.1,0.7-0.1,1-0.1c0.7-0.1,1.2-0.3,1.6-0.6c2-1.8,0.3-7.3,4.8-11.6
				c0.1-0.1,0.1-0.1,0.2-0.2c0.1-0.1,0.2-0.2,0.3-0.3c0.1-0.1,0.2-0.2,0.4-0.3c0.1-0.1,0.1-0.1,0.2-0.2c0.1-0.1,0.3-0.2,0.4-0.3
				c0.2-0.1,0.4-0.3,0.7-0.4c0.2-0.1,0.5-0.3,0.7-0.4c0.1-0.1,0.2-0.1,0.3-0.2c0.2-0.1,0.4-0.2,0.6-0.3c0.1-0.1,0.2-0.1,0.4-0.2
				c0.3-0.1,0.5-0.2,0.8-0.3c0.1-0.1,0.3-0.1,0.4-0.2c0.2-0.1,0.4-0.2,0.6-0.2c0.1,0,0.2-0.1,0.3-0.1c0.1,0,0.2-0.1,0.3-0.1
				c0.1,0,0.2-0.1,0.2-0.1c0.2-0.1,0.4-0.1,0.6-0.2c0.1,0,0.2-0.1,0.3-0.1c0.1,0,0.2-0.1,0.3-0.1c0.1,0,0.2,0,0.3-0.1
				c0.1,0,0.1,0,0.2,0c0.1,0,0.1,0,0.2,0c0,0,0,0,0,0c0.1,0,0.2,0,0.3-0.1c0,0,0,0,0,0c0,0,0,0,0,0c0,0,0,0,0,0
				c0.1,0,0.3-0.1,0.4-0.1c0.2-0.1,0.4-0.1,0.5-0.2c0,0,0,0,0,0c0,0,0,0,0,0c0.1,0,0.1-0.1,0.2-0.1c0.1,0,0.1-0.1,0.2-0.1
				c1-1.1,1.6-4.3,3.1-15.3c2.7-19.2,14.6-40.2,14.6-40.2c-2-19.6,5.1-9.2,7.3-22c3.2-17.9,32.9-61.7,32.9-61.7s54.9,2,67.7-43
				c0,0,0,0,0,0c1.5-5.2,2.4-11,2.6-17.5v0c0-0.1,0-0.2,0-0.3v0c13-4.5,20.2-1.1,24.1,2.7c0.3,0.3,0.5,0.5,0.7,0.8
				c0.1,0.1,0.2,0.3,0.3,0.4c0.1,0.1,0.1,0.1,0.2,0.2c0.2,0.2,0.3,0.4,0.4,0.6c0.1,0.2,0.3,0.4,0.4,0.6c0.1,0.1,0.2,0.2,0.2,0.4
				c0.1,0.1,0.1,0.2,0.2,0.3c0,0,0,0.1,0.1,0.1c0,0.1,0.1,0.1,0.1,0.2c0.1,0.1,0.1,0.2,0.2,0.3c0.2,0.3,0.3,0.6,0.5,0.9
				c0.1,0.1,0.2,0.3,0.3,0.4c0,0,0,0,0,0c0.4,0.3,0.9,0.4,1.4,0c2.7-2,5.5-2.9,8.4-2.8c0.1,0,0.1,0,0.2,0c0.1,0,0.1,0,0.2,0
				c0,0,0.1,0,0.1,0c0.1,0,0.2,0,0.3,0c0.1,0,0.2,0,0.3,0c0.1,0,0.2,0,0.3,0c0.1,0,0.1,0,0.2,0c0.1,0,0.2,0,0.3,0l0.2,0
				c0.1,0,0.1,0,0.2,0c0.1,0,0.1,0,0.2,0c0.1,0,0.2,0,0.3,0.1c0.1,0,0.1,0,0.2,0c0.7,0.2,1.5,0.4,2.2,0.7c0.1,0,0.2,0.1,0.3,0.1
				c0.1,0.1,0.3,0.1,0.4,0.2c0.1,0,0.2,0.1,0.3,0.1c0.2,0.1,0.4,0.2,0.6,0.3c0.1,0,0.2,0.1,0.2,0.1c0.3,0.2,0.7,0.3,1,0.5
				c0.1,0,0.1,0.1,0.2,0.1c0.1,0.1,0.2,0.1,0.3,0.2c0.1,0.1,0.2,0.1,0.3,0.2c0.1,0.1,0.2,0.1,0.3,0.2c0.1,0.1,0.2,0.1,0.3,0.2
				c0.1,0.1,0.2,0.1,0.2,0.2c0.1,0,0.1,0.1,0.2,0.1c0.1,0.1,0.2,0.1,0.3,0.2c0.1,0.1,0.2,0.1,0.2,0.2c0.1,0.1,0.2,0.2,0.3,0.2
				c0.1,0.1,0.2,0.1,0.2,0.2c0.1,0.1,0.2,0.1,0.3,0.2c0.3,0.2,0.5,0.4,0.8,0.6c0.1,0.1,0.2,0.2,0.3,0.3c0.2,0.2,0.5,0.4,0.7,0.6
				c0,0,0,0,0,0c0.1,0.1,0.2,0.2,0.3,0.3c0.1,0.1,0.2,0.2,0.3,0.3c0.1,0.1,0.2,0.2,0.3,0.3c0.2,0.1,0.3,0.3,0.5,0.5
				c0.1,0.1,0.1,0.1,0.2,0.2c0.1,0.1,0.1,0.1,0.2,0.2c0,0,0.1,0.1,0.1,0.1c0.1,0,0.1,0.1,0.2,0.2c0.1,0.1,0.1,0.1,0.2,0.2
				c0.1,0.1,0.2,0.2,0.3,0.3c0,0,0,0,0.1,0.1c0.1,0.1,0.2,0.2,0.3,0.3c0.2,0.2,0.5,0.5,0.7,0.7c0.2,0.2,0.4,0.5,0.7,0.7
				c0.5,0.5,0.9,1,1.4,1.5c0.1,0.1,0.2,0.3,0.3,0.4c0.1,0.1,0.2,0.3,0.4,0.4c0.1,0.1,0.2,0.3,0.3,0.4c0.6,0.7,1.1,1.4,1.7,2.1
				c0.2,0.3,0.4,0.5,0.6,0.8c1.5,1.9,2.9,3.8,4.3,5.9c0.2,0.3,0.4,0.6,0.7,1c0.1,0.2,0.2,0.3,0.3,0.5c0.1,0.2,0.2,0.3,0.3,0.5
				c1.8,2.6,3.5,5.4,5.2,8.3c0.1,0.2,0.2,0.4,0.3,0.5c0.1,0.2,0.2,0.4,0.3,0.5c0.3,0.5,0.6,1.1,0.9,1.7c0.2,0.3,0.3,0.6,0.5,0.9
				c0.3,0.4,0.5,0.9,0.7,1.3c0.1,0.1,0.1,0.2,0.2,0.4c0.1,0.1,0.1,0.3,0.2,0.4c0.1,0.2,0.2,0.4,0.3,0.6c0.4,0.8,0.9,1.6,1.3,2.5
				c0.1,0.2,0.2,0.4,0.3,0.6c0.1,0.3,0.3,0.6,0.4,0.8c0.1,0.2,0.3,0.5,0.4,0.7c0.1,0.1,0.1,0.2,0.2,0.3c0.1,0.2,0.2,0.4,0.3,0.6
				c0.2,0.3,0.4,0.7,0.5,1c0.2,0.4,0.4,0.9,0.7,1.3c0.1,0.2,0.2,0.4,0.3,0.6c0.2,0.3,0.3,0.6,0.5,0.9c0.1,0.2,0.2,0.4,0.3,0.6
				c1,1.9,1.9,3.8,2.8,5.8c0.1,0.3,0.3,0.6,0.4,0.9c0,0,0,0,0,0c1.2,2.6,2.4,5.2,3.6,7.8c0.2,0.4,0.3,0.7,0.5,1.1
				c0.1,0.3,0.2,0.5,0.4,0.8c0.1,0.3,0.3,0.7,0.4,1c0.2,0.4,0.3,0.8,0.5,1.2c0.3,0.8,0.7,1.6,1,2.3c0.5,1.2,1,2.4,1.5,3.6
				c0.1,0.3,0.3,0.7,0.4,1c0.2,0.4,0.3,0.8,0.5,1.1c0.3,0.7,0.6,1.4,0.9,2.1c0.2,0.4,0.3,0.8,0.5,1.3c0.2,0.4,0.3,0.7,0.5,1.1
				c0.2,0.5,0.4,1,0.6,1.6c0.2,0.6,0.5,1.1,0.7,1.7c0.4,1,0.8,2,1.2,2.9c0.1,0.3,0.2,0.5,0.3,0.8c0,0.1,0.1,0.1,0.1,0.2
				c0.1,0.3,0.2,0.6,0.3,0.8c0.3,0.7,0.5,1.3,0.8,2c0.1,0.3,0.2,0.5,0.3,0.8c0.2,0.5,0.4,1.1,0.6,1.6c0.1,0.3,0.2,0.6,0.4,0.9
				c0.1,0.3,0.2,0.6,0.4,1c0.1,0.3,0.2,0.6,0.3,0.8c0.3,0.8,0.6,1.5,0.8,2.2c0.1,0.1,0.1,0.3,0.2,0.4c0.1,0.2,0.1,0.4,0.2,0.5
				c0.1,0.2,0.2,0.5,0.3,0.7c0.2,0.6,0.5,1.3,0.7,1.9c0.1,0.2,0.2,0.5,0.3,0.7c0.1,0.2,0.2,0.5,0.3,0.7c0.1,0.2,0.1,0.4,0.2,0.6
				c0.1,0.4,0.3,0.7,0.4,1.1c0.1,0.2,0.1,0.4,0.2,0.6c0,0,0,0,0,0.1c0.1,0.2,0.1,0.4,0.2,0.5c0.1,0.1,0.1,0.3,0.2,0.4
				c0,0,0,0.1,0.1,0.1c0.1,0.3,0.2,0.5,0.3,0.8c0.1,0.3,0.2,0.6,0.3,0.9c0.1,0.2,0.1,0.3,0.2,0.5c0.1,0.2,0.1,0.3,0.2,0.5
				c0,0.1,0.1,0.2,0.1,0.2c0,0.1,0.1,0.2,0.1,0.4c0,0.1,0.1,0.2,0.1,0.2c0.1,0.3,0.2,0.6,0.3,0.9c0.6,1.6,2.7,13.7,2.8,14.9
				c0.1,0.9,0.2,1.9,0.3,2.9c0,0.1,0,0.2,0,0.4c0,0.2,0.1,0.4,0.1,0.6c0,0.2,0.1,0.3,0.1,0.5c0.1,0.6,0.2,1.2,0.3,1.8
				c0,0.2,0.1,0.3,0.1,0.5c0,0.2,0.1,0.4,0.1,0.6c0,0.2,0.1,0.4,0.1,0.6c0,0.2,0.1,0.4,0.1,0.6c0.1,0.4,0.2,0.8,0.2,1.2
				c0,0.2,0.1,0.4,0.1,0.6c0,0.2,0.1,0.4,0.1,0.6c0,0.2,0.1,0.4,0.1,0.6c0,0.2,0.1,0.4,0.1,0.6c0.1,0.4,0.2,0.8,0.3,1.3
				c0.2,0.6,0.3,1.3,0.5,2c0.1,0.4,0.2,0.8,0.3,1.2c0,0,0,0,0,0c0.1,0.4,0.2,0.8,0.3,1.2c0.1,0.5,0.3,0.9,0.4,1.4
				c0.1,0.2,0.1,0.4,0.2,0.6c0.5,1.7,1,3.5,1.6,5.2c0.1,0.2,0.1,0.4,0.2,0.7c0.1,0.2,0.1,0.4,0.2,0.7c0.1,0.2,0.1,0.4,0.2,0.7
				c0.1,0.2,0.1,0.4,0.2,0.7c0.5,1.4,0.9,2.7,1.4,4.1c0.1,0.4,0.3,0.8,0.4,1.2c0.1,0.2,0.2,0.4,0.2,0.6c0.4,1.1,0.8,2.1,1.3,3.2
				c0.2,0.4,0.3,0.8,0.5,1.2c0.1,0.2,0.2,0.5,0.3,0.7c0.1,0.2,0.2,0.4,0.3,0.6c0.1,0.2,0.2,0.4,0.3,0.6c0.2,0.4,0.3,0.8,0.5,1.1
				c0.2,0.4,0.3,0.7,0.5,1.1c0,0,0,0,0,0.1c0.1,0.1,0.1,0.3,0.2,0.4c0,0,0,0.1,0,0.1c0,0,0,0,0,0c0.1,0.1,0.1,0.3,0.2,0.4
				c0,0,0,0,0,0c0,0,0,0.1,0,0.1c0.2,0.4,0.3,0.7,0.5,1.1c0.3,0.5,0.5,1.1,0.8,1.6c0,0,0,0,0,0c0.1,0.2,0.2,0.4,0.3,0.5
				c0,0,0,0.1,0,0.1c0,0,0,0.1,0,0.1c0,0,0,0.1,0,0.1c0,0,0,0.1,0.1,0.1c0,0,0,0.1,0.1,0.1c0,0,0,0,0,0c0,0,0,0.1,0,0.1
				c0.1,0.2,0.2,0.4,0.3,0.5c0.9,1.9,1.9,3.6,2.8,5.3c0.1,0.2,0.2,0.3,0.3,0.5c0.1,0.1,0.1,0.2,0.2,0.3c0.1,0.2,0.2,0.3,0.3,0.5
				c0.7,1.1,1.3,2.2,2,3.2c0.1,0.2,0.3,0.4,0.4,0.6c0.1,0.1,0.2,0.3,0.3,0.4c0.1,0.1,0.2,0.2,0.2,0.3c0.1,0.1,0.2,0.2,0.3,0.4
				c0.1,0.1,0.1,0.1,0.2,0.2c0.1,0.1,0.1,0.1,0.2,0.2c0,0,0.1,0.1,0.1,0.1c0.4,0.6,0.8,1.1,1.2,1.6c0.1,0.1,0.2,0.2,0.3,0.3
				c0,0,0,0,0,0c0.1,0.1,0.2,0.2,0.3,0.3c0.1,0.1,0.1,0.1,0.2,0.2c0.1,0.1,0.1,0.1,0.2,0.2c0.1,0.2,0.3,0.3,0.4,0.5
				c0.1,0.1,0.1,0.1,0.2,0.2c0.1,0.1,0.1,0.1,0.2,0.2c0.1,0.1,0.1,0.1,0.2,0.2c0.1,0.1,0.2,0.2,0.2,0.2c0.1,0.1,0.1,0.1,0.2,0.2
				c0,0,0.1,0.1,0.1,0.1c0,0,0,0,0,0c0.1,0.1,0.2,0.1,0.2,0.2c0.1,0.1,0.2,0.1,0.2,0.2c0.1,0.1,0.2,0.1,0.2,0.2c0,0,0,0,0,0
				c0,0,0,0,0,0c2.8,2.3,5,3.2,7.2,6.3c4,5.6,2.1,11.9,4.7,12.4c0,0,0.1,0,0.1,0c0.1,0,0.3,0,0.4,0.1c0.1,0,0.3,0.1,0.4,0.1
				c0.2,0,0.4,0.1,0.6,0.1c0.1,0,0.2,0,0.3,0.1c0.1,0,0.2,0,0.3,0.1c0,0,0,0,0,0c0,0,0,0,0,0c0,0,0,0,0.1,0c0,0,0,0,0,0
				c3.3,0.9,5.1,2.5,6.8,3.4c0.9,0.5,2.1,1.6,3.1,3.1c0.5,0.8,1.1,1.7,1.5,2.7c0,0,0,0,0,0c0.7,1.4,1.1,2.9,1.3,4.6v0
				C402.5,231.7,402.4,232.8,402.1,234z"/>
			
				<radialGradient id="SVGID_12_" cx="-207.5076" cy="14642.502" r="1906.7699" fx="-203.8134" fy="14656.2959" gradientTransform="matrix(0.1128 0 0 0.1128 268.516 -1520.0498)" gradientUnits="userSpaceOnUse">
				<stop  offset="0.1581" style="stop-color:#FFFFFF;stop-opacity:0"/>
				<stop  offset="0.2454" style="stop-color:#D9CBD3;stop-opacity:0.1109"/>
				<stop  offset="0.3418" style="stop-color:#B598A8;stop-opacity:0.2335"/>
				<stop  offset="0.4405" style="stop-color:#966D84;stop-opacity:0.3589"/>
				<stop  offset="0.5395" style="stop-color:#7C4A66;stop-opacity:0.4846"/>
				<stop  offset="0.6391" style="stop-color:#682E4F;stop-opacity:0.6111"/>
				<stop  offset="0.7393" style="stop-color:#5A1B3E;stop-opacity:0.7384"/>
				<stop  offset="0.8407" style="stop-color:#520F34;stop-opacity:0.8673"/>
				<stop  offset="0.9452" style="stop-color:#4F0B31"/>
			</radialGradient>
			<path class="st12" d="M401.3,236.2C401.3,236.2,401.3,236.2,401.3,236.2c-0.1,0.1-0.1,0.2-0.2,0.2c-2,3.1-6.2,5.6-11.7,7
				c-3.4,0.8-7.3,1.2-11.5,1.1c-19.8-0.8-24.6-1.9-33.8-0.9c-7.8,0.8-16.9,7.9-20.2,9.5c0,0,0,0,0,0c-0.4,0.2-0.8,0.3-1,0.3
				c-0.1,0-0.1,0-0.2,0c0,0,0,0,0,0c-18,0.6-22.6-7.9-38.6-9.2c-12.6-1-39,8.2-52.9,11.2c-9.3,2-5.9-5.3-21.5-1.8
				c-1.5,0.3-8-0.8-15.6-0.8c-1.9,0-3.8,0.1-5.8,0.3c0,0,0,0,0,0c-1.5,0.2-3.1,0.4-4.6,0.7c-2.8,0.6-5.5,1.6-7.9,2.9
				c-2,1.2-4.3,2.2-6.6,2.9c-5.4,1.8-10.9,2.3-14.1,1.3c0,0,0,0,0,0c-1.3-0.4-2.1-1-2.5-2c0,0,0,0,0,0c-0.6-1.6-1.2-4-2.2-6
				c0,0,0,0,0,0c-0.4-0.7-0.8-1.3-1.3-1.9c0,0,0,0,0,0c0,0,0,0,0,0c-1.3-1.5-3.3-2.3-6.3-1.3c-3.6,1.2-8.3,2.4-13.4,3.3c0,0,0,0,0,0
				c-9.9,1.7-21.6,2-30.5-2c0,0,0,0,0,0c0,0,0,0,0,0c-4.2-1.9-7.8-4.7-10.4-8.8c-1.3-3.8-1.2-7.9-0.2-11.5c0,0,0,0,0,0
				c0.6-2.2,1.4-4.1,2.5-5.8c1.3-2,2.9-3.5,4.6-4.1c0,0,0,0,0,0c0.4-0.2,0.9-0.3,1.4-0.3c0.7-0.1,1.2-0.3,1.5-0.6
				c2.8-2.4-1.4-11.7,12.6-15.6c0.4-0.1,0.7-0.2,1-0.2c0.4-0.1,0.7-0.1,0.9-0.2c0.1,0,0.3-0.1,0.4-0.2c1.2-0.8,1.8-3.5,3.4-15.3
				c0.2-0.5,0.3-1,0.5-1.5c0-0.1,0.1-0.2,0.2-0.2c0.5-3.2,1.2-6.5,2-9.6c0.5-1.8,1-3.5,1.5-5.3c4.5-13.1,10.5-23.8,10.5-23.8
				c0-0.2,0-0.3,0-0.5c-1.8-19,5.1-8.9,7.4-21.5c3.2-17.9,32.9-61.7,32.9-61.7s55.2,2.4,67.7-43c0,0,0,0,0,0
				c1.4-5.1,2.3-10.9,2.5-17.3c0,0-0.1-0.2,0-0.2c0.1,0,0.1,0,0.2-0.1v0c16.4-5.6,23.8,1.2,26.5,5.5c0,0,0,0.1,0.1,0.1
				c0.3,0.5,0.6,1,0.8,1.5c0.1,0.1,0.1,0.2,0.2,0.3c0,0,0,0,0,0c0.4,0.4,1,0.4,1.4,0.1c6.8-5,14.1-3,21.5,3.3
				c0.1,0.1,0.2,0.2,0.3,0.3c0.1,0.1,0.2,0.2,0.3,0.3c0.1,0.1,0.2,0.2,0.3,0.3c0.2,0.1,0.3,0.3,0.5,0.5c0.1,0.1,0.1,0.1,0.2,0.2
				c0.1,0.1,0.1,0.1,0.2,0.2c0.1,0.1,0.2,0.2,0.3,0.3c10.4,10,20.7,27.9,29.4,46.2c0.1,0.3,0.3,0.6,0.4,0.9c0,0,0,0,0,0
				c8.8,20.1,11.3,40.1,13.8,47.3c0.6,1.6,7.2,12.4,7.3,13.6c1.2,13.6,7.7,34.2,15,48.7c0.4,0.9,0.8,1.8,1.2,2.7c0,0,0,0,0,0
				c5,11.1,10.6,20.3,15.1,22.8c2.1,1.2,3.7,2.6,5,4.1c0.2,1.1,0.5,1.6,0.6,2.4c0.1,1.3,1,2.3,2.3,2.6c0.1,0,0.7,1.9,1.1,3.6
				c0.2,1,0.4,2,0.5,2.5c0.1,1.1,0.6,2.3,1.5,2.8c0.1,0.1,0.3,0.1,0.4,0.1c2.7,0.5,7.9,2.4,11.3,6.3c0.7,0.8,1.3,1.8,1.8,2.8
				c0,0,0,0,0,0c0.7,1.4,1.1,2.9,1.3,4.6v0c0,0.3,0,0.6,0.1,0.9C402.7,233.1,402.2,234.8,401.3,236.2z"/>
			
				<radialGradient id="SVGID_13_" cx="-212.4548" cy="13542.0059" r="6.7336" gradientTransform="matrix(6.907221e-18 0.1128 -0.3384 2.072168e-17 4827.3062 31.5026)" gradientUnits="userSpaceOnUse">
				<stop  offset="6.255737e-02" style="stop-color:#FAAF40;stop-opacity:0.3"/>
				<stop  offset="6.316967e-02" style="stop-color:#F9AE40;stop-opacity:0.3007"/>
				<stop  offset="0.1132" style="stop-color:#C08631;stop-opacity:0.3607"/>
				<stop  offset="0.1638" style="stop-color:#8D6324;stop-opacity:0.4215"/>
				<stop  offset="0.2153" style="stop-color:#624419;stop-opacity:0.4832"/>
				<stop  offset="0.267" style="stop-color:#3E2C10;stop-opacity:0.5452"/>
				<stop  offset="0.319" style="stop-color:#231909;stop-opacity:0.6076"/>
				<stop  offset="0.3714" style="stop-color:#100B04;stop-opacity:0.6705"/>
				<stop  offset="0.4245" style="stop-color:#040301;stop-opacity:0.7341"/>
				<stop  offset="0.4795" style="stop-color:#000000;stop-opacity:0.8"/>
			</radialGradient>
			<path class="st13" d="M244.5,7.3c0.3-0.1,0.6-0.3,0.9-0.4c-0.7,0.4-1.3,0.7-1.6,0.8c0,0,0,0.2,0.1,0.6c0-0.1-0.1-0.3-0.1-0.5
				c0,0,0,0,0,0C243.9,7.6,244.2,7.4,244.5,7.3C244.4,7.3,244.5,7.3,244.5,7.3z"/>
			
				<radialGradient id="SVGID_14_" cx="3.3796" cy="13586.0654" r="0.7118" gradientTransform="matrix(6.907221e-18 0.1128 -0.3384 2.072168e-17 4866.5635 12.1258)" gradientUnits="userSpaceOnUse">
				<stop  offset="6.255737e-02" style="stop-color:#FAAF40;stop-opacity:0.3"/>
				<stop  offset="6.316967e-02" style="stop-color:#F9AE40;stop-opacity:0.3007"/>
				<stop  offset="0.1132" style="stop-color:#C08631;stop-opacity:0.3607"/>
				<stop  offset="0.1638" style="stop-color:#8D6324;stop-opacity:0.4215"/>
				<stop  offset="0.2153" style="stop-color:#624419;stop-opacity:0.4832"/>
				<stop  offset="0.267" style="stop-color:#3E2C10;stop-opacity:0.5452"/>
				<stop  offset="0.319" style="stop-color:#231909;stop-opacity:0.6076"/>
				<stop  offset="0.3714" style="stop-color:#100B04;stop-opacity:0.6705"/>
				<stop  offset="0.4245" style="stop-color:#040301;stop-opacity:0.7341"/>
				<stop  offset="0.4795" style="stop-color:#000000;stop-opacity:0.8"/>
			</radialGradient>
			<path class="st14" d="M268.9,12.6c0-0.1,0-0.1,0-0.2c0,0,0.1,0.1,0.1,0.1C268.9,12.5,268.9,12.6,268.9,12.6z"/>
			
				<radialGradient id="SVGID_15_" cx="-231.8391" cy="14589.8496" r="1384.8647" fx="-239.9303" fy="14587.8418" gradientTransform="matrix(0.1128 0 0 0.1128 268.516 -1520.0498)" gradientUnits="userSpaceOnUse">
				<stop  offset="0.2239" style="stop-color:#E4333D"/>
				<stop  offset="0.5037" style="stop-color:#CC2D3D"/>
				<stop  offset="1" style="stop-color:#A5223D"/>
			</radialGradient>
			<path class="st15" d="M148.5,218.3c-8.8-1.5-30.1-14.1-26.1-31.4c4.3-18.3,14.6-48,22.4-58.8c8.9-12.4,25.2-50.5,31.5-61.7
				c1.2-2.1,6-1.2,6-1.2s25.9-2,46.3-15c5.3-3.4,7.9-15.8,11.7-23.3c5.6-1.5,17.5,2.6,24.4,20.9c1.3,3.6,1-7.6-6.9-18.3
				c-1.9-2.6,6.5-6.7,15.6-3c8.1,3.3,13,13.4,13.6,14.1c2.3,3-1.4-4-7.5-13.3c29.9-10.6,38.9,36,47.8,56.2
				c14.2,32.2,25.7,83.9,33.6,103.3C382.2,238.7,209.6,228.4,148.5,218.3z"/>
			
				<radialGradient id="SVGID_16_" cx="-169.9705" cy="14573.9492" r="1089.6825" fx="-176.337" fy="14572.3691" gradientTransform="matrix(0.1128 0 0 0.1128 268.516 -1520.0498)" gradientUnits="userSpaceOnUse">
				<stop  offset="0.225" style="stop-color:#E63A42"/>
				<stop  offset="0.4471" style="stop-color:#E03C4D"/>
				<stop  offset="0.8343" style="stop-color:#D1416A"/>
				<stop  offset="1" style="stop-color:#CA4478"/>
			</radialGradient>
			<path class="st16" d="M356.9,199.7c-7.2,8.7-21.6,14.7-39.6,18.4c-51,10.4-131.7,2.3-165.9-14.2c-8.6-4.2-16.7-9.5-14.3-26.5
				c2.6-18.4,10.3-42.8,18-53.2c10.4-14.2,27.3-58.9,27.3-58.9s33.2-1.5,48.6-19.5c2.8-3.2,4.8-7.8,7.5-14.5c0-0.1,0.1-0.2,0.1-0.3
				h0c0.5-1.3,1.3-2.6,1.8-4.1c0.4-0.1,0.6-0.2,1-0.2c0.1,0,0.2,0,0.3,0c0,0,0,0,0,0c1-0.1,1.9-0.1,3,0.1c5.5,1.1,10.9,4.3,15.7,12
				c0.1,0.1,0.1,0.2,0.2,0.3c0,0,0,0.1,0.1,0.1c0.6,1,1.3,2.2,1.9,3.4c0,0.1,0.1,0.1,0.1,0.2c0.8,1.6,1.6,3.3,2.3,5.1
				c0.2,0.4,0.3,0.6,0.4,0.7c0.7,0.4-0.9-10.2-6.4-17.6c0,0,0,0,0-0.1c-0.4-0.5-0.9-1.4-1.2-1.8c0,0,0,0,0,0
				c0.2-1.8,1.8-2.9,4.1-3.4c0,0,0,0,0,0c4.1-0.9,10.3,0.1,13.1,1.6c5.8,3.2,9,8.5,9.9,9.9c0.7,1.1,1.4,2.3,2.1,3.1
				c0.4,0.5,0.7,0.9,1,1.1c0.5-0.9-5.2-9.5-6.9-12c-0.4-0.6-1.3-1.9-1.3-2c7.8-2.5,14.3-1.6,19.7,1.5c0,0,0,0,0,0
				c1.5,0.8,3,1.7,4.2,3c13,13.9,24.6,45.8,25.6,48.7c5.1,14.8,26.2,79.7,31.7,97.8C363.4,186.8,361.8,193.8,356.9,199.7z"/>
			<path class="st17" d="M241.9,3.6c-7.5,27-46,59.3-70.4,60.9C206.7,67.1,240,66,241.9,3.6z"/>
			<path class="st18" d="M399.7,223.2c-0.1,0-0.2,0-0.2-0.1c0,0-0.1,0-0.1,0c-0.9-0.3-1.7-0.5-2.4-0.5
				c-10.2-1.2-11.1,13.9-16.7,16.1c-12.9,5.2-27.1-5.8-34.7-3.2c-6.4,2.2-13,8.6-19.4,10.6c-15.1,4.6-21.7,0.9-36.8-4.7
				c-10.2-3.8-34.3,4.9-44.7,8c-17.9,5.3-18.8-3.1-28.9-4.7c-9.2-1.5-13.8,13.9-21.1,5c-8.9-11-11.9,11.9-36.3,7.3
				c-7.3-1.4-4.5-12.1-10.5-12.3c-10-0.3-5.3,13.5-50.4,3.5c-4.5-1-10.4-9.3-9.1-17.2c0,0,0,0,0,0c0.3-2,1.1-4,2.5-5.8
				c1.1-1.5,2.6-2.9,4.6-4.1c0,0,0,0,0,0c0.1-0.1,0.2-0.1,0.3-0.2c0.6-0.4,1.3-0.7,2.1-1.1c0.1-0.1,0.3,0.1,0.5,0.3c0,0,0,0,0,0.1
				c2,2.6,8.5,17,29.7,17c12.3,0,18.1,0.2,21.3,1.4h0c1.5,0.6,2.4,1.4,3.2,2.6c0.4,0.7,0.9,1.4,1.3,2c0,0,0,0,0,0
				c12.3,18.8,19.5,11.6,24.5,5.7c1-1.2,2-2.3,3-3.3c0,0,0,0,0,0c0.3-0.3,0.7-0.7,1-1c0,0,0,0,0.1-0.1c5.6-5.2,10.7-6.9,12.3-3.7
				c4.5,9.2,10.1,1.4,15-3c0,0,0,0,0,0c1.8-1.7,3.6-2.8,5.2-2.5c4.3,0.9,6.9,5.7,11.1,7.1c5.5,1.9,10.1,1.4,14-0.1
				c5.8-2.2,10.1-6.8,13.6-9.5c5.8-4.5,12.4-4.1,17.5-2.1c0,0,0,0,0,0c0.8,0.3,1.6,0.7,2.3,1c0,0,0,0,0,0c0.6,0.3,1.2,0.7,1.8,1
				c1,0.6,2.5,1.4,4.5,2.3c0,0,0,0,0,0c5.1,2.2,13.1,5,21.3,6c6.2,0.8,12.5,0.6,17.8-1.6c0.9-0.4,1.7-0.8,2.6-1.2c0,0,0,0,0,0
				c3.7-1.9,7.8-4.4,11.7-6.8c2.9-1.7,5.8-3.4,8.4-4.5c1.9-0.8,3.8-0.9,5.8-0.7c0,0,0,0,0,0c10.5,1.3,22.5,14,32.1,6.5c0,0,0,0,0,0
				c2.1-1.6,4.1-4.3,5.9-8.2c0.9-1.9,1.6-3.8,1.9-5.7c0.1-0.7,0.2-1.4,0.2-2.1c0,0,0-0.1,0-0.1c0-0.1,0.1-0.3,0.1-0.4
				c0.1,0,0.3,0,0.4,0.1c0.5,0.1,1.1,0.2,1.5,0.4c0,0,0,0,0,0c0,0,0,0,0,0c0,0,0,0,0,0c3.3,0.9,5.1,2.5,6.8,3.4
				C397.5,220.6,398.7,221.7,399.7,223.2z"/>
			
				<radialGradient id="SVGID_17_" cx="-1465.8557" cy="15584.4688" r="173.6711" gradientTransform="matrix(0.1128 0 0 0.2017 268.516 -2905.0151)" gradientUnits="userSpaceOnUse">
				<stop  offset="0.3531" style="stop-color:#FCDACB;stop-opacity:0.5"/>
				<stop  offset="0.4272" style="stop-color:#F2CFC6;stop-opacity:0.4427"/>
				<stop  offset="0.557" style="stop-color:#D8B2B7;stop-opacity:0.3424"/>
				<stop  offset="0.727" style="stop-color:#AD83A0;stop-opacity:0.211"/>
				<stop  offset="0.9286" style="stop-color:#72437F;stop-opacity:5.521822e-02"/>
				<stop  offset="1" style="stop-color:#5B2A73;stop-opacity:0"/>
			</radialGradient>
			<path class="st19" d="M118.2,238c-0.8-0.6-17.3-8.4-23.8-3.1c-4.8,3.9,0.8,10.4,3.7,13.1c-0.4-0.2-0.7-0.3-1.1-0.5
				c-2.9-1.4-12.5-8.4-7.4-16.2C94.5,223.9,108.2,230,118.2,238z"/>
			<path class="st20" d="M113.2,204c0.7,9.3,16.8,24,27.1,21.8c6.5-1.4,8.9-4.4,13.9-0.1c3.3,2.9,4.5,7.5,6.3,11.5
				c1.8,4.1,5.2,8.2,9.5,7.8c4.6-0.4,13.4-14.6,18-15c6.2-0.5,13.6,5.7,20.7,4.6c3.1-0.5,11.8-5.1,15.2-1.3c9,9.7,28.2-8.7,28.2-6.8
				c0,2.1-18.4,23.2-25.3,12.7c-7.1-10.7-13.5-4.6-16.1-3c-5.1,3-16.5-4.3-22.4-3.9c-3.4,0.3-12,11.2-15.3,14.1
				c-6.6,7.2-10.5-3.4-11.6-6.1c-1.7-3.9-5.5-10-9.3-11.7c-8.2-3.6-7.8,1.3-16.6-1.2C110.4,220.3,113.2,204,113.2,204z"/>
			<path class="st20" d="M281.1,234.3c8,3.9,18.1,6.8,25.1,5.6c12.7-2.2,16.8-13.3,29.5-16.5c14.4-3.6,40.9,12.6,44.3-1
				c1.1-4.2-0.2-9.8-0.2-9.8c0,3.7-5.5,9.1-7.8,9.8c-14.7,5-25.3-7.8-39.6-1.7c-7.3,3.1-19.3,12.2-26.9,14
				C298.4,236.4,281.1,234.3,281.1,234.3z"/>
			<g>
				<path class="st21" d="M334.6,102.1C327.1,88.3,315,39,299.5,28.9c0,0,0,0,0,0c-5.5-3.1-12-4.1-19.9-1.5c0.1,0.1,2.5,4,2.9,4.5
					c7.7-3.4,22,3.5,34.7,31.8c1.5,3.4,7.6,18.7,12.8,31.5C330.1,95.4,336.4,105.5,334.6,102.1z M286.9,40.2c-0.3-0.4-0.6-0.9-1-1.5
					c-0.8-1.2-4.2-7.9-11-11.6c-3.8-2.1-9.4-2.5-13.1-1.6c-1.8,0.4-4.7,2.1-4.1,3.5c0.2,0.5,0.8,1.4,1.2,1.8c0,0,0.1,0,0.1,0
					c12.1-3.5,23.6,3.8,27.2,9C289.5,44.5,289.3,43.9,286.9,40.2z"/>
				<path class="st21" d="M265.1,48.6c1.4,5,0,1.6-0.1,1.4c-4.1-11.1-19.5-21.4-26.5-19c0.5-1.3,1.3-2.6,1.8-4.1
					c0.2-0.1,0.6-0.2,1.2-0.3c0,0,0,0,0,0c3.2-0.2,14,1.6,20.9,16C263.2,44.2,265,48.1,265.1,48.6z"/>
			</g>
			
				<radialGradient id="SVGID_18_" cx="-547.7131" cy="13780.0215" r="293.2146" gradientTransform="matrix(0.1128 0 0 0.1128 268.516 -1520.0498)" gradientUnits="userSpaceOnUse">
				<stop  offset="0.1899" style="stop-color:#FFFFFF;stop-opacity:0"/>
				<stop  offset="0.231" style="stop-color:#E9E9E9;stop-opacity:4.717627e-02"/>
				<stop  offset="0.3924" style="stop-color:#979797;stop-opacity:0.2328"/>
				<stop  offset="0.5356" style="stop-color:#565656;stop-opacity:0.3974"/>
				<stop  offset="0.6552" style="stop-color:#282828;stop-opacity:0.5348"/>
				<stop  offset="0.7466" style="stop-color:#0B0B0B;stop-opacity:0.6399"/>
				<stop  offset="0.7989" style="stop-color:#000000;stop-opacity:0.7"/>
			</radialGradient>
			<path class="st22" d="M241.9,3.6c-7.5,27-46,59.3-70.4,60.9C206.7,67.1,240,66,241.9,3.6z"/>
			<path class="st23" d="M241.9,3.5c-7.5,27-46,59.4-70.4,61C198.8,62.2,236.6,67.7,241.9,3.5z"/>
			<g>
				<path class="st21" d="M235.8,38.1c-9.3,23.3-28.5,26.6-43.7,26.9c-0.9,0-1.4,1.9-0.6,2c7.2,1.3,33.6,0.1,44.8-28.8
					C236.4,37.9,235.9,37.8,235.8,38.1L235.8,38.1z"/>
			</g>
			<g>
				<path class="st24" d="M186.3,63.4c25-3.1,31.9-8.9,33.7-10.3c11.9-9.5,17.5-27.4,18-33.1c0.5-5.4-0.7-4.3-4.1,2.2
					c-3.4,6.5-29.6,35.3-48.7,40.3c-1.8,0.5-4.2,0.8-3.4,1.1C181.8,63.6,184.9,63.5,186.3,63.4z"/>
			</g>
			<linearGradient id="SVGID_19_" gradientUnits="userSpaceOnUse" x1="238.712" y1="26.397" x2="305.1502" y2="26.397">
				<stop  offset="9.776536e-02" style="stop-color:#2D2B2C;stop-opacity:0.8"/>
				<stop  offset="0.1375" style="stop-color:#35302D;stop-opacity:0.7497"/>
				<stop  offset="0.1975" style="stop-color:#493D2F;stop-opacity:0.6737"/>
				<stop  offset="0.2703" style="stop-color:#6B5332;stop-opacity:0.5816"/>
				<stop  offset="0.3531" style="stop-color:#9A7137;stop-opacity:0.4767"/>
				<stop  offset="0.4432" style="stop-color:#D6983C;stop-opacity:0.3627"/>
				<stop  offset="0.4927" style="stop-color:#FAAF40;stop-opacity:0.3"/>
				<stop  offset="0.4934" style="stop-color:#F9AE40;stop-opacity:0.3007"/>
				<stop  offset="0.5495" style="stop-color:#C08631;stop-opacity:0.3607"/>
				<stop  offset="0.6062" style="stop-color:#8D6324;stop-opacity:0.4215"/>
				<stop  offset="0.6639" style="stop-color:#624419;stop-opacity:0.4832"/>
				<stop  offset="0.7218" style="stop-color:#3E2C10;stop-opacity:0.5452"/>
				<stop  offset="0.7801" style="stop-color:#231909;stop-opacity:0.6076"/>
				<stop  offset="0.8389" style="stop-color:#100B04;stop-opacity:0.6705"/>
				<stop  offset="0.8984" style="stop-color:#040301;stop-opacity:0.7341"/>
				<stop  offset="0.9599" style="stop-color:#000000;stop-opacity:0.8"/>
			</linearGradient>
			<path class="st25" d="M305.2,33.6c-0.8-0.6-2.2-2.7-4-3.6c0,0,0,0,0,0c-3.2-2.2-6.8-3.6-10.8-4c-3.3-0.4-6.8,0-10.8,1.4
				c1.9,2.8,3.5,5.3,4.7,7.4c2.9,5.1,4.4,8.2,2.8,5.9c-0.4-0.5-2.1-3.4-2.6-4c-1.5-2-5.5-8.3-11-10.1c-10.2-3.5-17.5,0.4-15.6,3
				c0.3,0.5,0.6,0.9,1,1.4c0,0,0,0,0,0c2.8,4.1,4.5,8.2,5.5,11.4c0.5,1.7,1.5,4.5,0.9,6.3c0-0.1-1.1-2.7-1.4-3.1
				c-4.1-8.3-5.9-11-9.5-14l0,0c-3.7-2.7-5.7-3.8-9.8-4.7h0c-0.6-0.1-1.2-0.1-1.8-0.1c-0.5,0-0.9,0-1.4,0.1
				c-0.4,0.1-0.5,0.1-0.9,0.2c-0.1,0.3-1.6,3.4-1.7,3.7c3.2-9.2,4.9-17.8,5.1-20.7c0-0.4,0-0.7,0-1v0c0-0.3,0-0.4,0-0.6c0,0,0,0,0,0
				c0-0.1,0-0.1,0-0.2c0,0,0-0.1,0-0.1c0-0.1,0-0.2,0-0.2c0-0.1,0-0.1,0-0.1c0,0,0.1,0,0.1-0.1c0,0,0.1,0,0.1-0.1c0,0,0.1,0,0.1,0
				c0.2-0.1,0.5-0.2,0.7-0.4c0.1,0,0.1-0.1,0.2-0.1c0.1,0,0.2-0.1,0.3-0.1c0,0,0,0,0.1,0c2.6-1.3,6.4-2.8,10.9-2.6c0,0,0,0,0,0
				c0.1,0,0.1,0,0.2,0c0.1,0,0.2,0,0.3,0c0.1,0,0.2,0,0.2,0c0,0,0.1,0,0.1,0c0,0,0.1,0,0.1,0c3.9,0.5,6.9,2.9,8.2,4.1
				c0,0,0.1,0.1,0.1,0.1c0,0,0.1,0.1,0.1,0.1c0.1,0.1,0.1,0.1,0.2,0.2c0,0,0,0,0,0c1.1,1.1,2.1,2.4,3,3.6c0,0.1,0,0.1,0,0.2
				c-2.1,2.7-3.4,8.2-3.4,8.3c0,0,0,0,0.1-0.1l0,0v0c0,0,0,0,0,0c0,0,0,0,0,0c2-2.5,3.8-5.1,6.1-6.2c0,0,0.1,0,0.1-0.1
				c0.2-0.1,0.4-0.2,0.6-0.3c2.6-1,5-1.4,7.3-1.5c0,0,0,0,0,0c3.5-0.2,6.5,0.6,9.1,1.8c0,0,0,0,0,0c2.2,1.1,4.2,2.6,5.8,4.2
				c0,0,0,0,0,0c1.1,1.1,2.8,3.3,4.8,6c0.1,0.1,0.1,0.2,0.2,0.2C301.4,27.4,303.6,31,305.2,33.6z"/>
			<path class="st26" d="M313,41.7c0.1,0.5-3.3-3.9-7.2-9.2c-1.8-2.5-4.4-5.1-6.1-7.5c-0.1-0.1-0.1-0.2-0.2-0.2
				c-2-2.6-3.7-4.9-4.8-6c0,0,0,0,0,0c-1.6-1.7-3.6-3.1-5.8-4.2c0,0,0,0,0,0c-2.6-1.3-5.1-2.1-9.1-1.8c0,0,0,0,0,0
				c-2.3,0.1-4.8,0.7-7.3,1.5c-3,1-5,4.2-6.6,6.3c-0.1,0.1-0.1,0.2-0.1,0.2c0,0,0,0,0,0c0,0,0,0,0,0c0,0,0-0.1,0.1-0.3
				c0.4-1.3,1.5-5.5,3.2-7.8c0,0,0.1-0.1,0.1-0.1c0-0.1,0-0.1,0-0.2c0-0.1,0-0.1-0.1-0.2c-2.6-3.4-6.2-7.7-12.6-8
				c-4.7-0.2-8.6,1.5-10.8,2.6c0,0,0,0-0.1,0c-0.1,0-0.2,0.1-0.3,0.1c-0.1,0-0.2,0.1-0.2,0.1c-0.3,0.2-0.5,0.3-0.7,0.4
				c0,0-0.1,0-0.1,0c-0.1,0-0.1,0.1-0.1,0.1s-0.1,0-0.1,0.1c0,0,0,0,0,0.1c0,0.1,0,0.1,0,0.2c0,0,0,0.1,0,0.1c0,0.1,0,0.1,0,0.2
				c0,0,0,0,0,0c0,0.2,0,0.4,0,0.6v0c0,0.3,0,0.6,0,1c-0.2,2.9-0.6,7.6-3.4,17c-0.2,0.5-3,6.8-2.8,6.3c2.2-7,4.4-19.6,4.5-29.5
				c4.6-1.8,19.8-7.7,27.1,7.2c0.2,0.5,0.9,1.1,1.8,0.5c5.6-3.9,12.9-5.2,23.7,5.3c2.7,2.6,6.6,7.2,9.9,11.8
				C308.9,34.4,312.4,40.5,313,41.7z"/>
			<path class="st27" d="M243.8,7.7c0,0,0.1,0,0.1-0.1C243.9,7.6,243.8,7.6,243.8,7.7C243.8,7.6,243.8,7.7,243.8,7.7
				C243.8,7.7,243.8,7.7,243.8,7.7C243.8,7.7,243.8,7.7,243.8,7.7z"/>
			<path class="st27" d="M265.5,20.9C265.5,20.8,265.6,20.8,265.5,20.9C265.5,20.8,265.5,20.9,265.5,20.9L265.5,20.9z"/>
			<path class="st27" d="M271.7,14.5c0.2-0.1,0.4-0.2,0.6-0.3C272.1,14.4,271.9,14.4,271.7,14.5z"/>
			<path class="st28" d="M131.5,150.5c-0.2,0.8-0.5,1.5-0.8,2.2c-0.6,1.5-1.2,2.9-1.8,4.4c-1.1,2.8-2.1,5.7-3,8.6
				c-1.4,4.5-2.7,9.1-3.8,13.8c-0.7,3.1-1.6,6.2-2.1,9.4c-0.1,0.4-0.2,0.9-0.2,1.3c0,0.1,0,0.1,0,0.1c0,0,0,0.1,0,0.1
				c0,0.1,0,0.2,0,0.4c0,0.9,0.1,1.7,0.1,2.6c0,1.4,0,2.8,0,4.2c-0.1,2.5-0.1,5,0,7.6c0,2.4-0.1,4.8-0.4,7.2
				c-0.1,0.6-0.6,1.3-1.2,1.4c-0.3,0.1-5-8.3-4.7-10.1c1.2-0.8,1.7-2.2,3.5-15.2c0.2-0.5,1.8-8.2,2.6-11.4c0.5-1.8,1-3.5,1.5-5.3
				c4.5-13.1,10.5-23.8,10.5-23.8c0-0.2,0-0.3,0-0.5c0.2,0,0.4,0.1,0.4,0.4C131.8,148.9,131.7,149.7,131.5,150.5z"/>
			<g>
				<path class="st29" d="M247.2,8.8c-0.3,0.2-2.6,1.6-3.5,2.4c0.1-1.4,0-3.6,0-3.6c2.5-1.2,6.9-3.7,12.6-3.4
					c4.8,0.3,8.4,3.5,9.5,4.6C266,8.9,255.9,2.7,247.2,8.8z"/>
			</g>
			<g>
				<g>
					<path class="st30" d="M227.6,33.6c-1.7,3.4-3.8,5.7-9.4,8.7c-1.4,0.8-13.6,9.8-14.8,13c-0.6,1.7,4.2,1.2,12.1-1.1
						c4.4-1.3,2.9-3.7,6.3-6.6c3.2-2.7,5.1-4.6,7.2-13C229.3,33.8,229.5,29.8,227.6,33.6z"/>
				</g>
			</g>
			<g>
				<path class="st21" d="M346.4,230.3c6.9,0.1,16.9,3.4,15.1,3c-4-0.8-9.2-6-15.3-6.2c-6.1-0.2-15.6,7.3-13.7,6.3
					C333.6,232.8,340.7,230.2,346.4,230.3z"/>
			</g>
			<g>
				<path class="st21" d="M200.4,247.3c4-0.9,8.9-8,9.9-9.8c-2.2-0.7-5.7,7.8-10.6,7.8c-2.8,0-4.5-2.9-5.1-4.5
					C194.6,240.9,196.9,248.1,200.4,247.3z"/>
			</g>
			<g class="st31">
				<path class="st23" d="M118.2,238c-0.8-0.6-17.3-8.4-23.8-3.1c-1.3,1.1-1.9,2.3-1.9,3.7c-0.3-0.3-0.5-0.6-0.5-1
					c-0.1-0.7-0.1-1.4,0.1-2c0.3-1.2,1.1-2.2,2.2-2.9c1.8-1.3,4.2-1.6,6.4-1.8c2.2-0.2,4.5,0,6.7,0.4c0.1,0,0.1,0,0.2,0
					C111.2,232.9,114.9,235.3,118.2,238z"/>
			</g>
			<g>
				<path class="st32" d="M401.2,236.5c-1.2,2.3-3.5,4.6-7.2,6.4c0,0,0,0,0,0c-0.1,0.1-0.2,0.1-0.3,0.2c-0.1,0-0.2,0.1-0.3,0.1
					c0,0,0,0,0,0c-1.2,0.3-4.9,0.6-4.3,0.4c0.1-0.1,0.3-0.1,0.4-0.2c0.6-0.3,1.3-0.8,2.9-1.5c9.5-4.3,7.7-16.1,4.7-19.3
					c0,0-0.1-0.1-0.1-0.1c-1.6-1.4-6.4-1.8-9.5-3.8c-0.6-0.4-1.2-0.9-1.7-1.4c-4.3-6.9,0.7-9.2-15.9-24.4
					c-3.1-2.9-6.7-12.5-8.2-16.9c0,0,0,0,0,0c-0.5-1.5-0.8-2.4-0.7-2.2c0.2,0.5,0.4,1,0.6,1.4c0,0,0,0,0,0.1
					c0.1,0.1,0.1,0.3,0.2,0.4c0,0,0,0.1,0,0.1c0,0,0,0,0,0c0.1,0.1,0.1,0.3,0.2,0.4c0,0,0,0,0,0c0,0,0,0.1,0,0.1
					c0.1,0.2,0.2,0.5,0.3,0.7c0.3,0.7,0.6,1.4,0.9,2c0,0,0,0,0,0c0.1,0.2,0.2,0.4,0.3,0.5c0,0,0,0.1,0,0.1c0,0,0,0.1,0,0.1
					c0,0,0,0.1,0,0.1c0,0,0,0.1,0.1,0.1c0,0,0,0.1,0.1,0.1c0,0,0,0,0,0c2.8,5.7,5.2,9.6,7.2,12.3c0.1,0.1,0.1,0.1,0.2,0.2
					c0,0,0.1,0.1,0.1,0.1c1.6,2.1,3.1,3.6,4.4,4.7c0,0,0,0,0,0c2.8,2.3,5,3.2,7.2,6.3c4,5.6,2.1,11.9,4.7,12.4c0,0,0.1,0,0.1,0
					c0.1,0,0.3,0,0.4,0.1c0.5,0.1,1.1,0.2,1.5,0.4c0,0,0,0,0,0c0,0,0,0,0,0c0,0,0,0,0,0c3.3,0.9,5.1,2.5,6.8,3.4
					c0.9,0.5,2.1,1.6,3.1,3.1c0.5,0.8,1.1,1.7,1.5,2.7c0,0,0,0,0,0C402.6,229,403.1,232.8,401.2,236.5z"/>
			</g>
			<g>
				<path class="st21" d="M139.5,159.2c-0.9,0.7-1.2,1.5-1.7,2.5c-0.4,0.9-12.5,26.2,7.3,42.5c1.1,0.9,8.2,5.2,10.8,5.8
					c2.9,0.7,5.8-1.1,6.2-4.1c0.2-1.4,0.4-2.9-1-3.7c-1.4-0.9-28.9-6.9-20.3-38.7c0.3-1,0.9-1.9,0.8-3
					C141.6,159.5,140.5,158.5,139.5,159.2L139.5,159.2z"/>
			</g>
			<g>
				<path class="st21" d="M214.3,219.5c11.4,1.6,33.3,2.8,36,3c2.7,0.1,22.4,0.2,24,0c2.8-0.4,13.3-0.5,14.3-0.6
					c3.6-0.3,5.3-0.2,8-0.6c-0.5-0.3-4.1-1.7-33.9-1.7c-40.6,0-47.5-0.4-48.7-0.4C212.9,219.1,213.2,219.4,214.3,219.5z"/>
			</g>
			<path class="st33" d="M153.8,229c9.8,6.5,8.8,23.6,17.1,17.6c3.6-2.6,13.4-15.2,17.4-15.2c9.9,0,15.3,6.4,20.8,4
				c12.1-5.3,7.8-5.3,18,3.5c11.1,9.5,13.4-17.7,33.7-13.5c17.7,3.6,37.6,26.8,61.3,3.9c5.5-5.3,14.7-13.3,23.2-10.5
				c21.6,7.2,40.1,18.9,33.9-9.8c-0.5-2.3,6.9,4.7,5.7,10.5c-4.2,19.8-12.7,20.8-35.8,7.4c-13.7-7.9-18.5,22.7-60.6,11.8
				c-10.5-2.7-21.1-14.6-32.6-7.8c-15.4,9-22,20.6-31.2,11.6c-18.4-17.9-21.4,12.1-29.3-1c-6.2-10.3-15.2,9.3-26.1,12.6
				c-8.4,2.6-14.7-12.6-20.5-16c-5.9-3.4-17.4,2.8-39.2-6.4c-6.1-2.6-18.6-20.8,3.6-27.9c1.2-0.4-1.3,17.2,21.7,22.5
				C141.9,228.1,145.9,223.8,153.8,229z"/>
			<path class="st21" d="M92.5,238.5c-0.1,3.5,3.5,7.5,5.6,9.4c-0.4-0.2-0.7-0.3-1.1-0.5c-2.9-1.4-12.5-8.4-7.4-16.2
				c3.2-4.9,10.4-3.8,17.9-0.1c3.7,1.8,7.4,4.2,10.7,6.9c-0.8-0.6-17.3-8.4-23.8-3.1C93.1,235.9,92.5,237.2,92.5,238.5z"/>
			<g>
				<path class="st29" d="M299.6,25c-0.3-0.2-0.7-0.4-0.8-0.6c-5.4-4.8-14.4-13.5-26.4-8.2c-3.6,1.6-7.2,5.2-7,4.6l0,0
					c0,0,0,0,0-0.1c0,0,0,0,0,0c0-0.1,0.1-0.1,0.1-0.2c4.1-5.8,6.4-6.2,6.6-6.3c2.5-1,6.1-1.5,7.3-1.5c2.2-0.1,5.2-0.1,9.1,1.8
					c0,0,4.6,1.4,10.7,10.2C299.5,24.8,299.6,24.9,299.6,25z"/>
			</g>
			<path class="st34" d="M178.3,72.5c37.7-18.5,55.2,32.9,58,27.5C270.2,36,344.1,89,318.5,135.2c-7,12.5-14.9,26.5-52.5,16.1
				c-5.5-1.5-27.6-14.4-30.9-12.5c-65.8,39.3-87.9,5.5-91.9-8.1C152.2,118.3,176,76.6,178.3,72.5z"/>
			<g>
				<path class="st21" d="M385.4,233.8c0.5-0.6,0.5-0.6,4.3-4.8c3.6-4,6.8-2.6,6.3-5.3c-0.9-4.3-6.8-0.7-10.4,8.6
					c-0.2,0.4-0.3,0.9-0.3,1.3C385.1,233.8,385.3,234,385.4,233.8L385.4,233.8z"/>
			</g>
			<g>
				<path class="st21" d="M149,238.2c3.8,1.3,8,9.2,8.7,11.1c-3.1-4-5.8-6.2-9.7-9.2c-2-1.5-5.7-2.1-7.5-2.7
					C140.6,237.4,145.6,237,149,238.2z"/>
			</g>
			<g>
				<path class="st23" d="M319.7,112.9c0,0,0.7,28.3-20.6,34.7c-21.3,6.5-55.9,5.4-57.7-34L319.7,112.9z"/>
				
					<ellipse transform="matrix(0.3708 -0.9287 0.9287 0.3708 51.2392 329.1377)" class="st35" cx="268.5" cy="126.8" rx="15.3" ry="16.4"/>
				
					<ellipse transform="matrix(0.3896 -0.921 0.921 0.3896 44.8475 324.6106)" class="st23" cx="267.3" cy="128.5" rx="3.7" ry="4.7"/>
				
					<ellipse transform="matrix(0.3896 -0.921 0.921 0.3896 45.7826 314.3137)" class="st23" cx="260" cy="122.6" rx="1.3" ry="1.7"/>
			</g>
			
				<linearGradient id="SVGID_20_" gradientUnits="userSpaceOnUse" x1="-6147.5732" y1="95.2957" x2="-6147.2627" y2="120.8278" gradientTransform="matrix(-1 0 0 1 -5867.0791 0)">
				<stop  offset="0.4068" style="stop-color:#231F20;stop-opacity:0.9"/>
				<stop  offset="0.5985" style="stop-color:#252122;stop-opacity:0.6092"/>
				<stop  offset="0.6825" style="stop-color:#2C2829;stop-opacity:0.4818"/>
				<stop  offset="0.7454" style="stop-color:#393536;stop-opacity:0.3863"/>
				<stop  offset="0.7979" style="stop-color:#4A4748;stop-opacity:0.3066"/>
				<stop  offset="0.8439" style="stop-color:#615E5F;stop-opacity:0.2369"/>
				<stop  offset="0.8852" style="stop-color:#7D7B7B;stop-opacity:0.1741"/>
				<stop  offset="0.9232" style="stop-color:#9F9D9E;stop-opacity:0.1165"/>
				<stop  offset="0.9585" style="stop-color:#C6C5C5;stop-opacity:6.293190e-02"/>
				<stop  offset="0.9904" style="stop-color:#F1F0F0;stop-opacity:1.454306e-02"/>
				<stop  offset="1" style="stop-color:#FFFFFF;stop-opacity:0"/>
			</linearGradient>
			<path class="st36" d="M241,115.2c-5.3-31.1,78.3-22,78.8,0.3c0,1-0.1,4.9-0.7,5.7C319.1,121.1,241.3,116.9,241,115.2z"/>
			<path class="st1" d="M240.5,113.5c0,0-1.1-46.6,43.1-42.8c15.9,1.4,35.9,12.6,43.2,41.7L240.5,113.5z"/>
			<linearGradient id="SVGID_21_" gradientUnits="userSpaceOnUse" x1="240.5084" y1="92.001" x2="326.7698" y2="92.001">
				<stop  offset="5.586592e-03" style="stop-color:#6B134C"/>
				<stop  offset="6.854746e-02" style="stop-color:#73154D"/>
				<stop  offset="0.6143" style="stop-color:#B52155"/>
			</linearGradient>
			<path class="st37" d="M240.5,113.5c0,0-1.1-46.6,43.1-42.8c15.9,1.4,35.9,12.6,43.2,41.7L240.5,113.5z"/>
			<linearGradient id="SVGID_22_" gradientUnits="userSpaceOnUse" x1="239.2827" y1="106.0972" x2="326.2311" y2="106.0972">
				<stop  offset="7.092596e-03" style="stop-color:#801951;stop-opacity:0.4"/>
				<stop  offset="8.044740e-02" style="stop-color:#8B1A50;stop-opacity:0.4637"/>
				<stop  offset="0.4974" style="stop-color:#C41F4B;stop-opacity:0.8257"/>
				<stop  offset="0.6981" style="stop-color:#DA2149"/>
			</linearGradient>
			<path class="st38" d="M239.3,112.3c0,0,86.1-27.6,86.9-0.2L239.3,112.3z"/>
			<g>
				<path class="st39" d="M239.5,114.4c3.5,0.4,7,0.2,10.5,0.2c3.1,0,6.3,0,9.4,0c1.8,0,3.5,0,5.3,0.1c0.9,0,1.9,0,2.9,0.1
					c0.9,0.1,1.8,0.2,2.8,0.3c4,0.1,7.9,0.3,11.9,0.3c4,0,7.9-0.1,11.9-0.1c3.7,0,7.4-0.1,11.1-0.1c3.2,0,6.3,0.2,9.5,0.2
					c3.7,0,7.4-0.1,11-0.1c0.1,0,0.3,0,0.4,0c1.4,0,2.5-1.1,2.5-2.4c0-1.3-1.2-2.4-2.5-2.4c-3.1,0-6.3,0.1-9.4,0.2
					c-3,0.1-6,0.2-9.1,0.5c-3.5,0.3-7.1,0.2-10.7,0.3c-7.9,0.2-15.8,0.2-23.7,0.7c-3.8,0.2-7.5,0.7-11.3,0.9
					c-3.3,0.1-6.6,0.1-9.8,0.2c-4,0.1-8.1,0.2-12.1,0.2c-0.2,0-0.4,0-0.6,0C238.7,113.2,238.7,114.4,239.5,114.4L239.5,114.4z"/>
			</g>
			<path class="st40" d="M311.8,87c-0.3,2.7-14.7-7.3-27.2-8.7c-12.1-1.4-20.8,1.4-20.4-1.2c0.3-2.7,10.4-5.7,20.7-4.8
				C295.7,73.1,312.2,84.4,311.8,87z"/>
			<g>
				
					<radialGradient id="SVGID_23_" cx="1480.8561" cy="13419.8799" r="276.8199" fx="1531.8196" fy="13437.5381" gradientTransform="matrix(2.387014e-03 0.1209 0.2195 -4.980344e-03 -2784.2522 12.0918)" gradientUnits="userSpaceOnUse">
					<stop  offset="0.6273" style="stop-color:#25A9E0;stop-opacity:0.2"/>
					<stop  offset="0.6773" style="stop-color:#24A6DC;stop-opacity:0.3075"/>
					<stop  offset="0.7273" style="stop-color:#229DD0;stop-opacity:0.4147"/>
					<stop  offset="0.7772" style="stop-color:#1F8EBC;stop-opacity:0.5218"/>
					<stop  offset="0.8271" style="stop-color:#1A79A0;stop-opacity:0.6289"/>
					<stop  offset="0.8771" style="stop-color:#145D7C;stop-opacity:0.7361"/>
					<stop  offset="0.9271" style="stop-color:#0D3C4F;stop-opacity:0.8434"/>
					<stop  offset="0.9761" style="stop-color:#05151C;stop-opacity:0.9488"/>
					<stop  offset="1" style="stop-color:#000000"/>
				</radialGradient>
				<path class="st41" d="M229.6,113.4c1.8,8.1-1.1,30.9-22.8,37.3c-24.8,7.3-57.1,6.4-59.3-37L229.6,113.4z"/>
				<g class="st42">
					<path class="st43" d="M187.5,149.2c24.4,1.5,38.6-15.2,37.2-35.1c-0.1-1.2,4.2-1.2,4.4,0c0.7,7-2.8,38.8-42,36.4
						C186.5,150.5,187,149.2,187.5,149.2L187.5,149.2z"/>
				</g>
			</g>
			<g>
				<g class="st42">
					<path class="st43" d="M187.5,149.2c24.4,1.5,38.6-15.2,37.2-35.1c-0.1-1.2,4.2-1.2,4.4,0c0.7,7-2.8,38.8-42,36.4
						C186.5,150.5,187,149.2,187.5,149.2L187.5,149.2z"/>
				</g>
			</g>
			<g>
				<g class="st42">
					<path class="st43" d="M285.8,150.8c-24.4,1.5-43.3-16.1-41.9-36.1c0.1-1.2-2.7-1.3-2.8,0c-0.7,7,2.8,38.8,42,36.4
						c0.5,0,4.8-0.5,4.3-0.4L285.8,150.8z"/>
				</g>
			</g>
			<g>
				<g class="st42">
					<path class="st21" d="M310.1,131c0-0.1,0.1-0.2,0.1-0.2c0.1-0.2,0.2-0.4,0.2-0.7c0-0.1,0-0.3-0.1-0.4c-0.1-0.2-0.1-0.3-0.2-0.4
						c-0.2-0.4-0.7-0.6-1.1-0.6s-0.9,0.3-1.1,0.6c-0.1,0.1-0.1,0.2-0.2,0.4c0,0.1-0.1,0.3-0.1,0.4c0,0.2,0.1,0.5,0.2,0.7
						c0,0.1,0.1,0.2,0.1,0.2c0.2,0.4,0.7,0.6,1.1,0.6S309.9,131.4,310.1,131L310.1,131z"/>
				</g>
				<g class="st42">
					<path class="st21" d="M311.4,126.3c0.4-0.4,0.9-0.8,1.1-1.3c0.4-0.6,0.6-1.4,0.8-2.1c0.2-0.8,0.4-1.6,0.4-2.4
						c0.1-0.9,0.3-2.1-0.2-2.8c-0.3-0.5-1.1-0.5-1.4,0c-0.4,0.7-0.3,1.6-0.4,2.4c-0.1,0.7-0.2,1.5-0.3,2.2c-0.1,0.6-0.3,1.2-0.5,1.7
						c-0.2,0.5-0.3,1-0.6,1.5C310.1,126.2,310.9,126.8,311.4,126.3L311.4,126.3z"/>
				</g>
			</g>
			<g>
				<path class="st23" d="M151,112.9c0,0-0.7,28.3,20.6,34.7c21.3,6.5,55.9,5.4,57.7-34L151,112.9z"/>
				
					<ellipse transform="matrix(0.9287 -0.3708 0.3708 0.9287 -32.5867 84.0005)" class="st35" cx="202.2" cy="126.8" rx="16.4" ry="15.3"/>
				
					<ellipse transform="matrix(0.921 -0.3896 0.3896 0.921 -33.9813 89.3916)" class="st23" cx="203.4" cy="128.5" rx="4.7" ry="3.7"/>
				
					<ellipse transform="matrix(0.921 -0.3896 0.3896 0.921 -31.1238 91.7733)" class="st23" cx="210.7" cy="122.6" rx="1.7" ry="1.3"/>
			</g>
			<g>
				<g class="st42">
					<path class="st43" d="M184.3,150.2c24.4,1.5,43.3-13.7,42.8-36.5c0-1.2,1.8-0.9,1.9,0.4c0.7,7-2.8,38.8-42,36.4
						c-0.5,0-4.8-0.5-4.3-0.4L184.3,150.2z"/>
				</g>
				<g class="st42">
					<path class="st43" d="M154.1,115.3c0.4-1.2-2.9-1.5-3-0.2c-0.7,7,3.9,33.2,28.8,34.6C159.2,147.7,151.9,121.9,154.1,115.3z"/>
				</g>
			</g>
			
				<linearGradient id="SVGID_24_" gradientUnits="userSpaceOnUse" x1="-6237.5146" y1="95.2947" x2="-6237.2041" y2="120.8278" gradientTransform="matrix(1 0 0 1 6427.7251 0)">
				<stop  offset="0.4068" style="stop-color:#231F20;stop-opacity:0.9"/>
				<stop  offset="0.5985" style="stop-color:#252122;stop-opacity:0.6092"/>
				<stop  offset="0.6825" style="stop-color:#2C2829;stop-opacity:0.4818"/>
				<stop  offset="0.7454" style="stop-color:#393536;stop-opacity:0.3863"/>
				<stop  offset="0.7979" style="stop-color:#4A4748;stop-opacity:0.3066"/>
				<stop  offset="0.8439" style="stop-color:#615E5F;stop-opacity:0.2369"/>
				<stop  offset="0.8852" style="stop-color:#7D7B7B;stop-opacity:0.1741"/>
				<stop  offset="0.9232" style="stop-color:#9F9D9E;stop-opacity:0.1165"/>
				<stop  offset="0.9585" style="stop-color:#C6C5C5;stop-opacity:6.293190e-02"/>
				<stop  offset="0.9904" style="stop-color:#F1F0F0;stop-opacity:1.454306e-02"/>
				<stop  offset="1" style="stop-color:#FFFFFF;stop-opacity:0"/>
			</linearGradient>
			<path class="st44" d="M229.7,115.2c5.3-31.1-78.4-22-78.8,0.3c0,1.1,0.1,4.9,0.7,5.7C151.6,121.1,229.4,116.9,229.7,115.2z"/>
			<g>
				<g class="st42">
					<path class="st21" d="M162.8,131c0-0.1,0.1-0.2,0.1-0.2c0.1-0.2,0.2-0.4,0.2-0.7c0-0.1,0-0.3-0.1-0.4c-0.1-0.2-0.1-0.3-0.2-0.4
						c-0.2-0.4-0.7-0.6-1.1-0.6c-0.5,0-0.9,0.3-1.1,0.6c-0.1,0.1-0.1,0.2-0.2,0.4c0,0.1-0.1,0.3-0.1,0.4c0,0.2,0.1,0.5,0.2,0.7
						c0,0.1,0.1,0.2,0.1,0.2c0.2,0.4,0.7,0.6,1.1,0.6S162.6,131.4,162.8,131L162.8,131z"/>
				</g>
				<g class="st42">
					<path class="st21" d="M160.3,125.6c-0.3-0.5-0.3-0.9-0.5-1.4c-0.2-0.6-0.4-1.2-0.5-1.8c-0.1-0.7-0.2-1.4-0.3-2.1
						c-0.1-0.8,0.1-1.9-0.4-2.6c-0.3-0.5-1.1-0.5-1.4,0c-0.5,0.7-0.3,1.8-0.2,2.7c0.1,0.9,0.2,1.7,0.4,2.6c0.2,0.7,0.4,1.4,0.8,2
						c0.3,0.5,0.8,1,1.2,1.4C159.8,126.8,160.6,126.2,160.3,125.6L160.3,125.6z"/>
				</g>
			</g>
			<path class="st1" d="M230.2,113.5c0,0,1.1-46.6-43.1-42.8c-15.9,1.4-35.9,12.6-43.2,41.7L230.2,113.5z"/>
			
				<linearGradient id="SVGID_25_" gradientUnits="userSpaceOnUse" x1="342.2897" y1="127.6026" x2="398.6222" y2="80.334" gradientTransform="matrix(-1 0 0 1 560.6457 0)">
				<stop  offset="5.586592e-03" style="stop-color:#6B134C"/>
				<stop  offset="6.854746e-02" style="stop-color:#73154D"/>
				<stop  offset="0.6143" style="stop-color:#B52155"/>
			</linearGradient>
			<path class="st45" d="M230.2,113.5c0,0,1.1-46.6-43.1-42.8c-15.9,1.4-35.9,12.6-43.2,41.7L230.2,113.5z"/>
			
				<linearGradient id="SVGID_26_" gradientUnits="userSpaceOnUse" x1="329.2245" y1="106.0972" x2="416.1728" y2="106.0972" gradientTransform="matrix(-1 0 0 1 560.6457 0)">
				<stop  offset="0" style="stop-color:#801951;stop-opacity:0.2"/>
				<stop  offset="0.314" style="stop-color:#B01D4D;stop-opacity:0.5598"/>
				<stop  offset="0.5602" style="stop-color:#CE204A;stop-opacity:0.842"/>
				<stop  offset="0.6981" style="stop-color:#DA2149"/>
			</linearGradient>
			<path class="st46" d="M231.4,112.3c0,0-86.1-27.6-86.9-0.2L231.4,112.3z"/>
			<g>
				<path class="st39" d="M231.2,114.4c-3.5,0.4-7,0.2-10.5,0.2c-3.1,0-6.3,0-9.4,0c-1.8,0-3.5,0-5.3,0.1c-0.9,0-1.9,0-2.9,0.1
					c-0.9,0.1-1.8,0.2-2.8,0.3c-4,0.1-7.9,0.3-11.9,0.3c-4,0-7.9-0.1-11.9-0.1c-3.7,0-7.4-0.1-11.1-0.1c-3.2,0-6.3,0.2-9.5,0.2
					c-3.7,0-7.4-0.1-11-0.1c-0.1,0-0.3,0-0.4,0c-1.4,0-2.5-1.1-2.5-2.4c0-1.3,1.2-2.4,2.5-2.4c3.1,0,6.3,0.1,9.4,0.2
					c3,0.1,6,0.2,9.1,0.5c3.5,0.3,7.1,0.2,10.7,0.3c7.9,0.2,15.8,0.2,23.7,0.7c3.8,0.2,7.5,0.7,11.3,0.9c3.3,0.1,6.6,0.1,9.8,0.2
					c4,0.1,8.1,0.2,12.1,0.2c0.2,0,0.4,0,0.6,0C232,113.2,232,114.4,231.2,114.4L231.2,114.4z"/>
			</g>
			<path class="st40" d="M214.2,81.1c-0.3,2.7-9.5-0.1-19.8-1.3c-10.3-1.3-21.9,0.7-21.6-2c0.3-2.7,12.2-6.8,22.5-5.6
				C205.6,73.5,214.5,78.5,214.2,81.1z"/>
			<path class="st47" d="M309.9,187.7c-0.6,0.9-1.4,1.6-2.4,2.1c0.5-0.4,1-0.9,1.5-1.4C309.3,188.3,309.6,188,309.9,187.7z"/>
			<path class="st48" d="M347.3,122.2c-22.8,31-131,63-214.4,17.1c-0.7-0.4-0.9-3-0.9-3c107.6,52.7,206.9,0.7,215.1-15.4
				C347.4,121.9,347.3,122.2,347.3,122.2z"/>
			<path class="st32" d="M347.3,122.2c-9.3,12.6-30.7,25.3-59.3,33.2c-41.7,11.4-20.1,5.4,20.1-10.3c21.9-8.5,36.1-18.6,39-24.3
				C347.4,121.9,347.3,122.2,347.3,122.2z"/>
			<path class="st49" d="M340.8,129.2c-26.9,30-146.2,52.9-208.8,7.1c-1,5.3,17.7,13.9,18,14.2c4.4,3.2,24.6,21.4,81.4,22.5
				c54.2,1,75.4-13.8,85.3-25.8c11.5-5.4,22.6-14.7,25-17.1c2.4-2.3,4-5.4,5.7-8.2C345.5,124.6,343,126.7,340.8,129.2z"/>
			<g class="st50">
				<path class="st39" d="M198.6,169.4c-0.2,0.1-0.5,0.1-0.8,0C198.1,169.4,198.4,169.4,198.6,169.4z"/>
			</g>
			<g class="st31">
				<g>
					<path class="st23" d="M290.8,152.7c0.6,0,0.6-0.9,0-0.9C290.2,151.8,290.2,152.7,290.8,152.7L290.8,152.7z"/>
				</g>
			</g>
			<g>
				<path class="st32" d="M253,209.1c23.2-0.1,50.4-11.4,55.8-20.3C295.2,199.1,275.4,205.5,253,209.1z"/>
			</g>
			
				<ellipse transform="matrix(0.2159 -0.9764 0.9764 0.2159 91.8387 380.3784)" class="st51" cx="282.8" cy="133" rx="9" ry="15.2"/>
			
				<ellipse transform="matrix(0.9595 -0.2817 0.2817 0.9595 -29.8953 58.0909)" class="st51" cx="187.1" cy="133" rx="15.2" ry="9"/>
			
				<radialGradient id="SVGID_27_" cx="364.261" cy="13418.0313" r="294.0518" fx="389.623" fy="13423.2432" gradientTransform="matrix(-3.622973e-03 0.1209 0.1781 6.135056e-03 -2220.6865 -2.2698)" gradientUnits="userSpaceOnUse">
				<stop  offset="0" style="stop-color:#FFFFFF;stop-opacity:0"/>
				<stop  offset="0.5934" style="stop-color:#986C89;stop-opacity:0.3561"/>
				<stop  offset="1" style="stop-color:#540C3C;stop-opacity:0.6"/>
			</radialGradient>
			<path class="st52" d="M229.5,113.4c3.5,17.5-9.5,35.8-27.3,38.8c-24,4.1-49.7-1.1-51.1-37.1L229.5,113.4z"/>
			
				<radialGradient id="SVGID_28_" cx="-6723.2886" cy="13407.5146" r="284.6829" fx="-6698.7344" fy="13412.5605" gradientTransform="matrix(3.655253e-03 0.1209 -0.1797 6.135056e-03 2736.9966 853.2134)" gradientUnits="userSpaceOnUse">
				<stop  offset="0" style="stop-color:#FFFFFF;stop-opacity:0"/>
				<stop  offset="0.5934" style="stop-color:#986C89;stop-opacity:0.3561"/>
				<stop  offset="1" style="stop-color:#540C3C;stop-opacity:0.6"/>
			</radialGradient>
			<path class="st53" d="M241.9,112.5c-3.5,17.5,9.4,35.7,27.5,37.8c24.2,2.8,49-1.4,50.4-36L241.9,112.5z"/>
			<path class="st54" d="M150.2,147.8c0,0,0.5-0.4,0.7-0.3c25,11.9,59.5,19.3,84.2,17.7c46.8-3.1,81.7-19.4,82-19.5
				C288,165.9,212.1,184.6,150.2,147.8z"/>
		</g>
	</g>
	<path class="st23" d="M379.2,212c2.3,0.4,6.9,5,5.7,11c-4.2,20.6-11.2,18.8-35.8,7.7c-13.5-6.1-20.6,22.5-57.5,13.1
		c-10-2.6-24.3-17.4-36.7-8.7c-12.8,8.9-22.1,17.9-27.9,11.8c-19.2-20-21.7,7.4-28.5-1.6c-8.7-11.4-19.5,11.4-30.8,12.8
		c-8.8,1.1-13.2-12.2-18.9-15.7c-5.9-3.6-17.4,0.8-39.2-8.8c-6.1-2.7-18.6-19.6,3.6-27C114.4,206.1,321.7,202.4,379.2,212z"/>
	<linearGradient id="SVGID_29_" gradientUnits="userSpaceOnUse" x1="242.9701" y1="257.3405" x2="242.6129" y2="137.158">
		<stop  offset="0" style="stop-color:#717375"/>
		<stop  offset="0.1648" style="stop-color:#FFFFFF"/>
		<stop  offset="0.2956" style="stop-color:#CECECE"/>
		<stop  offset="0.5917" style="stop-color:#535353"/>
		<stop  offset="0.7849" style="stop-color:#000000"/>
	</linearGradient>
	<path class="st55" d="M385,220.6c-1.4,7.1-3.3,11.9-6.1,14.5c-5.2,5.1-13.5,2.9-27.3-5.3c-0.8-0.5-1.6-0.9-2.4-1.4
		c-4.7-2.9-8.3-1-12.8,2.3c-3.1,2.3-6.6,5.3-11.1,7.8c-3.9,2.1-8.5,3.9-14.2,4.5c-6,0.8-13.4,0.3-22.4-2.2
		c-3.8-1.1-7.6-3.3-11.4-5.5c-6.8-3.9-13.8-7.4-21.1-2.8c-8.4,5.2-14.2,11.3-19.2,14.1c-4.2,2.4-7.8,2.5-12-1.8
		c-3.9-4.1-7.2-5.8-9.9-6.2h-0.2c-6.5-0.8-10.1,6.2-13.5,8.2c-1.8,1.1-3.6,0.7-5.8-3.1c-0.8-1.5-1.7-2.4-2.7-2.8h0
		c-6-2.7-14,13.1-23.4,16.2c-1.2,0.4-2.3,0.4-3.3,0.2c0,0,0,0,0,0c-6.1-1.4-11-11.5-15.6-15.8c-0.5-0.5-1.1-0.9-1.6-1.2
		c-5.9-3.6-17.4,2.9-39.2-6.8c-6.1-2.7-18.6-22,3.6-29.5c1.2-0.4,208.5-4.2,266.1,5.5C381.6,209.9,386.2,214.5,385,220.6z"/>
	<path d="M127.5,158.6c-4.2,8.1-10.9,30-64.2,92.5l1.9-0.2c0,0,58-25.9,148.7-12.6l3.7-12.4L127.5,158.6z"/>
	<linearGradient id="SVGID_30_" gradientUnits="userSpaceOnUse" x1="63.3292" y1="204.8612" x2="217.6634" y2="204.8612">
		<stop  offset="4.469274e-02" style="stop-color:#000000"/>
		<stop  offset="0.3045" style="stop-color:#EEECEC"/>
		<stop  offset="0.413" style="stop-color:#BEBBBA"/>
		<stop  offset="0.5" style="stop-color:#9B9897"/>
		<stop  offset="0.5038" style="stop-color:#928F8E"/>
		<stop  offset="0.5225" style="stop-color:#6B6969"/>
		<stop  offset="0.5425" style="stop-color:#4A4948"/>
		<stop  offset="0.5638" style="stop-color:#2F2E2E"/>
		<stop  offset="0.5869" style="stop-color:#1A1A19"/>
		<stop  offset="0.6127" style="stop-color:#0B0B0B"/>
		<stop  offset="0.6433" style="stop-color:#030303"/>
		<stop  offset="0.6911" style="stop-color:#000000"/>
		<stop  offset="0.9721" style="stop-color:#FFFFFF;stop-opacity:0.4"/>
	</linearGradient>
	<path class="st56" d="M127.5,158.6c-4.2,8.1-10.9,30-64.2,92.5l1.9-0.2c0,0,58.5-25.6,148.7-12.6l3.7-12.4L127.5,158.6z"/>
	<path d="M355,157.2c0,0,13.8,34.5,70.1,93.9c0,0-47.3-24.8-150.2-14.2l-6.6-17L355,157.2z"/>
	<path d="M126.7,157.2c-4.2,8.1-10,31.5-63.4,93.9c0,0,47.3-24.8,150.2-14.2l3.9-12L126.7,157.2z"/>
	<circle cx="238.5" cy="226.6" r="3.3"/>
	<circle cx="238.5" cy="238.7" r="3.3"/>
	<polygon points="217.5,224.9 216.7,224.3 212.6,236.8 213.6,236.9 	"/>
	<linearGradient id="SVGID_31_" gradientUnits="userSpaceOnUse" x1="268.3522" y1="216.921" x2="275.6215" y2="237.3689">
		<stop  offset="0.1623" style="stop-color:#FFFFFF"/>
		<stop  offset="0.4744" style="stop-color:#FDFDFD"/>
		<stop  offset="0.5869" style="stop-color:#F6F6F6"/>
		<stop  offset="0.6671" style="stop-color:#EBEBEB"/>
		<stop  offset="0.7319" style="stop-color:#DADADA"/>
		<stop  offset="0.7874" style="stop-color:#C4C4C4"/>
		<stop  offset="0.8366" style="stop-color:#A8A8A8"/>
		<stop  offset="0.8811" style="stop-color:#888888"/>
		<stop  offset="0.922" style="stop-color:#626262"/>
		<stop  offset="0.9601" style="stop-color:#373737"/>
		<stop  offset="0.9938" style="stop-color:#090909"/>
		<stop  offset="1" style="stop-color:#000000"/>
	</linearGradient>
	<polygon class="st57" points="268.2,219.9 274.8,236.9 276.6,236.7 269.2,219.2 	"/>
	<linearGradient id="SVGID_32_" gradientUnits="userSpaceOnUse" x1="253.4911" y1="298.7829" x2="233.8253" y2="78.1108">
		<stop  offset="0.1598" style="stop-color:#4D4E4E"/>
		<stop  offset="0.4301" style="stop-color:#000000"/>
	</linearGradient>
	<path class="st58" d="M129.8,153.1c0,0,80.3,45,109.8,45.1c31.4,0,112-47.9,112-47.9l3.4,6.9l-103.2,76.2l-12.2-32.7l-9.6,35.5
		l-103.3-79L129.8,153.1z"/>
	<linearGradient id="SVGID_33_" gradientUnits="userSpaceOnUse" x1="218.4834" y1="186.5522" x2="178.1428" y2="242.401">
		<stop  offset="0.2191" style="stop-color:#FFFFFF"/>
		<stop  offset="0.3029" style="stop-color:#FCFCFC"/>
		<stop  offset="0.3545" style="stop-color:#F4F4F4"/>
		<stop  offset="0.3974" style="stop-color:#E5E5E5"/>
		<stop  offset="0.4356" style="stop-color:#D1D1D1"/>
		<stop  offset="0.4706" style="stop-color:#B6B6B6"/>
		<stop  offset="0.5033" style="stop-color:#969696"/>
		<stop  offset="0.5343" style="stop-color:#6F6F6F"/>
		<stop  offset="0.5638" style="stop-color:#424242"/>
		<stop  offset="0.5912" style="stop-color:#101010"/>
		<stop  offset="0.5992" style="stop-color:#000000"/>
	</linearGradient>
	<path class="st59" d="M130,149.4c0,0,79,46.9,108.5,46.9c31.4,0,113.3-49.8,113.3-49.8l3.2,10.6l-105.1,74.3l-11.4-32.6l-9.4,34.6
		l-102.4-76.4L130,149.4z"/>
	<linearGradient id="SVGID_34_" gradientUnits="userSpaceOnUse" x1="290.9379" y1="263.6875" x2="395.0583" y2="201.1257">
		<stop  offset="0" style="stop-color:#000000"/>
		<stop  offset="0.1173" style="stop-color:#FFFFFF;stop-opacity:0.6"/>
		<stop  offset="0.1264" style="stop-color:#F3F3F3;stop-opacity:0.6062"/>
		<stop  offset="0.1701" style="stop-color:#C1C1C1;stop-opacity:0.6362"/>
		<stop  offset="0.2171" style="stop-color:#939393;stop-opacity:0.6683"/>
		<stop  offset="0.2661" style="stop-color:#6B6B6B;stop-opacity:0.7019"/>
		<stop  offset="0.3177" style="stop-color:#4A4A4A;stop-opacity:0.7373"/>
		<stop  offset="0.3727" style="stop-color:#2F2F2F;stop-opacity:0.775"/>
		<stop  offset="0.4324" style="stop-color:#1A1A1A;stop-opacity:0.8159"/>
		<stop  offset="0.4989" style="stop-color:#0B0B0B;stop-opacity:0.8614"/>
		<stop  offset="0.5778" style="stop-color:#030303;stop-opacity:0.9155"/>
		<stop  offset="0.7011" style="stop-color:#000000"/>
		<stop  offset="0.8659" style="stop-color:#FFFFFF;stop-opacity:0.4"/>
		<stop  offset="0.8835" style="stop-color:#FFFFFF;stop-opacity:0.4789"/>
		<stop  offset="1" style="stop-color:#FFFFFF"/>
	</linearGradient>
	<path class="st60" d="M355,157.2c0,0,13.8,34.5,70.1,93.9c0,0-47.3-24.8-150.2-14.2l-6.6-17L355,157.2z"/>
	<path class="st61" d="M236,151.7c8-4.6,22.6-2.2,40.3,4.3c22.3,8.2,48.9,5.7,52.8-22.4c3.9,40.8-86.7,44.8-92.5,23.5L236,151.7z"/>
	<path d="M236.6,157.9c5.8,21.3,96.5,16.6,92.5-24.2c-2.6,28.1-30.9,31.5-52.2,22.2c-17.2-7.6-32.4-8.9-40.3-4.3
		c-8-4.6-23.1-3.2-40.3,4.5c-21.4,9.5-48.9,6.1-51.6-21.9C140.9,174.9,228.6,180,236.6,157.9z"/>
	<path class="st62" d="M166,257.4c-6.1-1.4-11-11.5-15.6-15.8c0.3,0.1,0.6,0.2,0.9,0.3c1.5,0.6,2.4,1.4,3.2,2.6
		c0.5,0.7,0.9,1.4,1.3,2l1.5,1C160.5,252.6,163.4,255.7,166,257.4z"/>
	<path class="st62" d="M201.2,246.9c-1.8,1.1-3.6,0.7-5.8-3.1c-0.8-1.5-1.7-2.4-2.7-2.8C195.1,241.1,197.2,246.1,201.2,246.9z"/>
	<path class="st62" d="M236.7,246.7c-4.2,2.4-7.8,2.5-12-1.8c-3.9-4.1-7.2-5.8-9.9-6.2c5.6-0.1,8.8,5.4,13,6.8
		C231.2,246.6,234.1,246.9,236.7,246.7z"/>
	<path class="st62" d="M304.6,242c2.3,0.3,4.4,0.7,6.3,1.1c-6,0.8-13.4,0.3-22.4-2.2c-3.8-1.1-7.6-3.3-11.4-5.5
		c2.4,0.6,6.5,1.5,6.5,1.5C288.7,239.1,296.5,241,304.6,242z"/>
	<path class="st62" d="M327.1,231.8c1.6-0.9,5.6-1,9.3-1.1c-3.1,2.3-6.6,5.3-11.1,7.8c0-0.2,0-0.5,0-0.7
		C325.2,235.6,324.7,233.2,327.1,231.8z"/>
	<linearGradient id="SVGID_35_" gradientUnits="userSpaceOnUse" x1="95.0099" y1="204.1237" x2="191.6893" y2="269.3348">
		<stop  offset="0" style="stop-color:#000000"/>
		<stop  offset="6.703911e-02" style="stop-color:#FFFFFF"/>
		<stop  offset="7.214958e-02" style="stop-color:#F3F3F3"/>
		<stop  offset="9.671746e-02" style="stop-color:#C1C1C1"/>
		<stop  offset="0.1231" style="stop-color:#939393"/>
		<stop  offset="0.1506" style="stop-color:#6B6B6B"/>
		<stop  offset="0.1796" style="stop-color:#4A4A4A"/>
		<stop  offset="0.2105" style="stop-color:#2F2F2F"/>
		<stop  offset="0.244" style="stop-color:#1A1A1A"/>
		<stop  offset="0.2814" style="stop-color:#0B0B0B"/>
		<stop  offset="0.3258" style="stop-color:#030303"/>
		<stop  offset="0.395" style="stop-color:#000000"/>
		<stop  offset="0.9721" style="stop-color:#FFFFFF;stop-opacity:0.4"/>
	</linearGradient>
	<path class="st63" d="M126.7,157.2c-4.2,8.1-10,31.5-63.4,93.9c0,0,47.3-24.8,150.2-14.2l3.9-12L126.7,157.2z"/>
	<path class="st62" d="M378.9,235.1c-5.2,5.1-13.5,2.9-27.3-5.3C360.5,231.8,370.4,239,378.9,235.1z"/>
	<path class="st43" d="M147.9,207.8c0,0,2.1,3.4-1.8,9.7s-9,5.3-9,5.3L147.9,207.8z"/>
	<path d="M140.8,217.4c0.2,0.2,0.5,0.4,0.6,0.6l-0.1,0C141.1,217.8,141,217.6,140.8,217.4z"/>
	<path d="M145.3,213.2L145.3,213.2c-0.1,0-0.2-0.1-0.3-0.2C145.1,213,145.2,213.1,145.3,213.2z"/>
	<g>
		<path class="st64" d="M137.1,222.7l-16.9-17.2c0,0,9.5,18.7,15.7,20.3c1.8,0.5,3.8-1.5,6.2-0.5c2.4,1,1.3,3.3,2,8.3
			c0.6,4.9,10.6,17.6,20.3,15.7c9.7-1.9,13.6-11,10-15.7c-3.5-4.7-5.9-11.2-6.1-12.3c-0.2-1.1-15.3-0.5-15.3-0.5l-12.1-3.4
			L137.1,222.7z"/>
		<path class="st65" d="M139.3,222.7c0,0,1,2,6.8-5.3c4.8-6.1,3-6.9,3-6.9L139.3,222.7z"/>
		<g>
			<radialGradient id="SVGID_36_" cx="159.5606" cy="230.9174" r="19.0058" gradientUnits="userSpaceOnUse">
				<stop  offset="0.225" style="stop-color:#E63A42"/>
				<stop  offset="0.4471" style="stop-color:#E03C4D"/>
				<stop  offset="0.8343" style="stop-color:#D1416A"/>
				<stop  offset="1" style="stop-color:#CA4478"/>
			</radialGradient>
			<path class="st66" d="M178.3,217.6c0,0.6,0,1.1-0.1,1.5c-0.3,2.6-2,3-4.1,2.9h0c-2-0.1-4.2-0.8-5.9-0.8c0,0,0,0,0,0
				c-1.3,0-2.3,0.5-2.6,1.9c-1.2,5.4,15.6,12.4,4.2,22.6c-0.2,0.2-0.5,0.4-0.7,0.6c-1.5,1.3-3.2,2.2-4.8,2.8
				c-0.6,0.2-1.2,0.4-1.9,0.5c-0.6,0.2-1.3,0.2-1.9,0.3c-2.4,0.2-4.8-0.2-7-1.1c-1.8-0.8-3.5-2-4.9-3.4c-1.1-1.1-2-2.3-2.7-3.8
				c-2.4-4.6-2.8-10.8,0.3-17.8c0,0,0,0,0-0.1c0,0-0.1-0.1-0.1-0.2v0c-0.6-0.8-2.2-2.9-4.5-5.5c0,0-0.1-0.1-0.2-0.2
				c-0.2-0.2-0.4-0.4-0.6-0.6c0.2,0.2,0.5,0.4,0.6,0.6l0.5-0.5l0.1,0l0.4-0.6l1.4-1.6l0.5-0.6l0.6-0.8l0.5-0.6
				c-0.1,0-0.2-0.2-0.3-0.3c0.1,0.1,0.2,0.2,0.3,0.2c0.2,0.2,0.4,0.3,0.6,0.4c4.9,3.1,9.9,4.8,13.3,3.4c0.3-0.1,0.6-0.3,0.8-0.4
				c0.5-0.3,1.1-0.6,1.6-0.9c0.1,0,0.2-0.1,0.2-0.1C169.2,211.4,178,208.8,178.3,217.6z"/>
			<linearGradient id="SVGID_37_" gradientUnits="userSpaceOnUse" x1="156.1497" y1="208.1082" x2="147.8918" y2="225.4646">
				<stop  offset="5.586592e-03" style="stop-color:#6B134C"/>
				<stop  offset="0.2051" style="stop-color:#6E134C"/>
				<stop  offset="0.3297" style="stop-color:#76154D"/>
				<stop  offset="0.4338" style="stop-color:#85184F"/>
				<stop  offset="0.5259" style="stop-color:#991C52"/>
				<stop  offset="0.6104" style="stop-color:#B42155"/>
				<stop  offset="0.6143" style="stop-color:#B52155"/>
			</linearGradient>
			<path class="st67" d="M161.7,215.6l-10.9,6.4c0,0-3-2.7-6.8-6.5c-0.1-0.1-0.2-0.2-0.3-0.3l0.5-0.6l0.6-0.8l0.5-0.6
				c-0.1,0-0.2-0.2-0.3-0.3c0.1,0.1,0.2,0.2,0.3,0.2l0.5-0.6l0.1-0.1l0.4-0.5c0.2,0.2,0.4,0.3,0.6,0.5
				C151.4,216.1,156.6,218.1,161.7,215.6z"/>
			<radialGradient id="SVGID_38_" cx="160.1048" cy="230.9174" r="18.7389" gradientUnits="userSpaceOnUse">
				<stop  offset="0.225" style="stop-color:#E63A42"/>
				<stop  offset="0.4471" style="stop-color:#E03C4D"/>
				<stop  offset="0.8343" style="stop-color:#D1416A"/>
				<stop  offset="1" style="stop-color:#CA4478"/>
			</radialGradient>
			<path class="st68" d="M178.3,217.6c0,0.6,0,1.1-0.1,1.5c-0.3,2.6-2,3-4.1,2.9h0c-2-0.1-4.2-0.8-5.9-0.8c0,0,0,0,0,0
				c-1.3,0-2.3,0.5-2.6,1.9c-1.2,5.4,15.6,12.4,4.2,22.6c-0.2,0.2-0.5,0.4-0.7,0.6c-1.5,1.3-3.2,2.2-4.8,2.8
				c-0.6,0.2-1.2,0.4-1.9,0.5c-0.6,0.2-1.3,0.2-1.9,0.3c-2.4,0.2-4.8-0.2-7-1.1c-1.8-0.8-3.5-2-4.9-3.4c-1.1-1.1-2-2.3-2.7-3.8
				c-2.4-4.6-2.8-10.8,0.3-17.8c0,0,0,0,0-0.1c0,0-0.1-0.1-0.1-0.2v0c-0.4-0.9-1.6-3.3-4-6.1c0,0-0.1-0.1-0.2-0.2l0.1,0l0.4-0.6
				l1.4-1.6l0.5-0.6l0.6-0.8l0.5-0.6c0.2,0.2,0.3,0.3,0.5,0.5c3.4,2.8,7.3,4.5,10.9,4.1c0.4-0.1,0.8-0.2,1.2-0.2
				c0.5-0.1,0.9-0.3,1.4-0.5c0.3-0.1,0.6-0.3,0.8-0.4c0.5-0.3,1.1-0.6,1.6-0.9c0.1,0,0.2-0.1,0.2-0.1
				C169.2,211.4,178,208.8,178.3,217.6z"/>
			<linearGradient id="SVGID_39_" gradientUnits="userSpaceOnUse" x1="141.4111" y1="230.9095" x2="178.3482" y2="230.9095">
				<stop  offset="5.586592e-03" style="stop-color:#6B134C"/>
				<stop  offset="6.854746e-02" style="stop-color:#73154D"/>
				<stop  offset="0.6143" style="stop-color:#B52155"/>
			</linearGradient>
			<path class="st69" d="M178.3,217.6c0,0.6,0,1.1-0.1,1.5c-0.4,2.3-2,2.9-4.1,2.9h0c-1.8,0-4-0.5-5.9-0.8c0,0,0,0,0,0
				c-2.4-0.3-4.4-0.3-4.9,1.7c-1.2,5.4,14.1,15.3,6.5,22.9c-0.2,0.2-0.5,0.4-0.7,0.6c-1.5,1.3-3.2,2.2-4.8,2.8
				c-0.6,0.2-1.2,0.4-1.9,0.5c-0.6,0.2-1.3,0.2-1.9,0.3c-2.4,0.2-4.8-0.2-7-1.1c-1.8-0.8-3.5-2-4.9-3.4c-1.1-1.1-2-2.3-2.7-3.8
				c-2.4-4.6-2.8-10.8,0.3-17.8c0,0,0,0,0-0.1c0,0-0.1-0.1-0.1-0.2v0c-0.5-0.8-1.9-3-4.5-5.6c0,0-0.1-0.1-0.2-0.2l0.5-0.5l0.1,0
				l0.4-0.6l1.4-1.6l0.5-0.6l0.6-0.8c0.2,0.2,0.3,0.3,0.5,0.4c3.6,2.6,7.7,4.2,11.4,3.5c0.4,0,0.8-0.1,1.2-0.2
				c0.5-0.1,0.9-0.3,1.4-0.5c0.3-0.1,0.6-0.3,0.8-0.4c0.5-0.3,1.1-0.6,1.6-0.9c0.1,0,0.2-0.1,0.2-0.1
				C169.2,211.4,178,208.8,178.3,217.6z"/>
		</g>
		<path class="st70" d="M147.3,212.8l1.5,1.1c0,0-4.1,6.3-5.4,6.7l-1.1-1.5L147.3,212.8z"/>
		<path class="st71" d="M137.9,221.2c0,0,0.6,0.8,1.5,1.5c4.4-2.1,9.8-12.1,9.8-12.1l-2.1-1.4L137.9,221.2z"/>
		<path class="st72" d="M120.2,205.5h0.8c0,0,12.6,12.4,14.6,12.5c3.8,0.3,6-11.4,9.9-11.2c2.4,0.1,2.4,1,2.4,1l-10,13.5l-0.8,1.5
			L120.2,205.5z"/>
	</g>
	<g>
		<path class="st64" d="M338.2,222.7l18.1-17.2c0,0-10.1,18.7-16.7,20.3c-1.9,0.5-4.1-1.5-6.6-0.5c-2.5,1-1.4,3.3-2.1,8.3
			c-0.7,4.9-11.3,17.6-21.7,15.7s-14.5-11-10.7-15.7c3.8-4.7,6.3-11.2,6.5-12.3c0.2-1.1,16.4-0.5,16.4-0.5l13-3.4L338.2,222.7z"/>
		<path class="st65" d="M335.8,222.7c0,0-1.1,2-7.2-5.3c-5.1-6.1-3.3-6.9-3.3-6.9L335.8,222.7z"/>
		<g>
			
				<radialGradient id="SVGID_40_" cx="755.6237" cy="230.9174" r="19.0058" gradientTransform="matrix(-1.0694 0 0 1 1122.2242 0)" gradientUnits="userSpaceOnUse">
				<stop  offset="0.225" style="stop-color:#E63A42"/>
				<stop  offset="0.4471" style="stop-color:#E03C4D"/>
				<stop  offset="0.8343" style="stop-color:#D1416A"/>
				<stop  offset="1" style="stop-color:#CA4478"/>
			</radialGradient>
			<path class="st73" d="M294.1,217.6c0,0.6,0,1.1,0.1,1.5c0.4,2.6,2.2,3,4.3,2.9h0c2.1-0.1,4.5-0.8,6.3-0.8c0,0,0,0,0,0
				c1.4,0,2.4,0.5,2.8,1.9c1.3,5.4-16.7,12.4-4.5,22.6c0.2,0.2,0.5,0.4,0.8,0.6c1.6,1.3,3.4,2.2,5.2,2.8c0.6,0.2,1.3,0.4,2,0.5
				c0.7,0.2,1.4,0.2,2,0.3c2.6,0.2,5.1-0.2,7.5-1.1c1.9-0.8,3.7-2,5.3-3.4c1.1-1.1,2.1-2.3,2.9-3.8c2.5-4.6,3-10.8-0.3-17.8
				c0,0,0,0,0-0.1c0,0,0.1-0.1,0.1-0.2v0c0.6-0.8,2.4-2.9,4.9-5.5c0,0,0.1-0.1,0.2-0.2c0.2-0.2,0.4-0.4,0.6-0.6
				c-0.2,0.2-0.5,0.4-0.7,0.6l-0.5-0.5l-0.1,0l-0.4-0.6l-1.4-1.6l-0.5-0.6l-0.7-0.8l-0.6-0.6c0.1,0,0.2-0.2,0.4-0.3
				c-0.1,0.1-0.2,0.2-0.4,0.2c-0.2,0.2-0.4,0.3-0.6,0.4c-5.2,3.1-10.6,4.8-14.2,3.4c-0.3-0.1-0.6-0.3-0.9-0.4
				c-0.6-0.3-1.1-0.6-1.7-0.9c-0.1,0-0.2-0.1-0.2-0.1C303.9,211.4,294.4,208.8,294.1,217.6z"/>
			
				<linearGradient id="SVGID_41_" gradientUnits="userSpaceOnUse" x1="752.2127" y1="208.1082" x2="743.9549" y2="225.4646" gradientTransform="matrix(-1.0694 0 0 1 1122.2242 0)">
				<stop  offset="5.586592e-03" style="stop-color:#6B134C"/>
				<stop  offset="0.2051" style="stop-color:#6E134C"/>
				<stop  offset="0.3297" style="stop-color:#76154D"/>
				<stop  offset="0.4338" style="stop-color:#85184F"/>
				<stop  offset="0.5259" style="stop-color:#991C52"/>
				<stop  offset="0.6104" style="stop-color:#B42155"/>
				<stop  offset="0.6143" style="stop-color:#B52155"/>
			</linearGradient>
			<path class="st74" d="M311.9,215.6l11.6,6.4c0,0,3.2-2.7,7.3-6.5c0.1-0.1,0.2-0.2,0.4-0.3l-0.5-0.6l-0.7-0.8l-0.6-0.6
				c0.1,0,0.2-0.2,0.4-0.3c-0.1,0.1-0.2,0.2-0.4,0.2l-0.5-0.6l-0.1-0.1l-0.4-0.5c-0.2,0.2-0.4,0.3-0.7,0.5
				C322.9,216.1,317.3,218.1,311.9,215.6z"/>
			
				<radialGradient id="SVGID_42_" cx="756.1678" cy="230.9174" r="18.7389" gradientTransform="matrix(-1.0694 0 0 1 1122.2242 0)" gradientUnits="userSpaceOnUse">
				<stop  offset="0.225" style="stop-color:#E63A42"/>
				<stop  offset="0.4471" style="stop-color:#E03C4D"/>
				<stop  offset="0.8343" style="stop-color:#D1416A"/>
				<stop  offset="1" style="stop-color:#CA4478"/>
			</radialGradient>
			<path class="st75" d="M294.1,217.6c0,0.6,0,1.1,0.1,1.5c0.4,2.6,2.2,3,4.3,2.9h0c2.1-0.1,4.5-0.8,6.3-0.8c0,0,0,0,0,0
				c1.4,0,2.4,0.5,2.8,1.9c1.3,5.4-16.7,12.4-4.5,22.6c0.2,0.2,0.5,0.4,0.8,0.6c1.6,1.3,3.4,2.2,5.2,2.8c0.6,0.2,1.3,0.4,2,0.5
				c0.7,0.2,1.4,0.2,2,0.3c2.6,0.2,5.1-0.2,7.5-1.1c1.9-0.8,3.7-2,5.3-3.4c1.1-1.1,2.1-2.3,2.9-3.8c2.5-4.6,3-10.8-0.3-17.8
				c0,0,0,0,0-0.1c0,0,0.1-0.1,0.1-0.2v0c0.4-0.9,1.7-3.3,4.3-6.1c0,0,0.1-0.1,0.2-0.2l-0.1,0l-0.4-0.6l-1.4-1.6l-0.5-0.6l-0.7-0.8
				l-0.6-0.6c-0.2,0.2-0.3,0.3-0.5,0.5c-3.7,2.8-7.8,4.5-11.7,4.1c-0.4-0.1-0.8-0.2-1.2-0.2c-0.5-0.1-1-0.3-1.4-0.5
				c-0.3-0.1-0.6-0.3-0.9-0.4c-0.6-0.3-1.1-0.6-1.7-0.9c-0.1,0-0.2-0.1-0.2-0.1C303.9,211.4,294.4,208.8,294.1,217.6z"/>
			
				<linearGradient id="SVGID_43_" gradientUnits="userSpaceOnUse" x1="737.4742" y1="230.9095" x2="774.4113" y2="230.9095" gradientTransform="matrix(-1.0694 0 0 1 1122.2242 0)">
				<stop  offset="5.586592e-03" style="stop-color:#6B134C"/>
				<stop  offset="6.854746e-02" style="stop-color:#73154D"/>
				<stop  offset="0.6143" style="stop-color:#B52155"/>
			</linearGradient>
			<path class="st76" d="M294.1,217.6c0,0.6,0,1.1,0.1,1.5c0.4,2.3,2.2,2.9,4.3,2.9h0c2,0,4.3-0.5,6.3-0.8c0,0,0,0,0,0
				c2.6-0.3,4.7-0.3,5.2,1.7c1.3,5.4-15.1,15.3-6.9,22.9c0.2,0.2,0.5,0.4,0.8,0.6c1.6,1.3,3.4,2.2,5.2,2.8c0.6,0.2,1.3,0.4,2,0.5
				c0.7,0.2,1.4,0.2,2,0.3c2.6,0.2,5.1-0.2,7.5-1.1c1.9-0.8,3.7-2,5.3-3.4c1.1-1.1,2.1-2.3,2.9-3.8c2.5-4.6,3-10.8-0.3-17.8
				c0,0,0,0,0-0.1c0,0,0.1-0.1,0.1-0.2v0c0.6-0.8,2-3,4.8-5.6c0,0,0.1-0.1,0.2-0.2l-0.5-0.5l-0.1,0l-0.4-0.6l-1.4-1.6l-0.5-0.6
				l-0.7-0.8c-0.2,0.2-0.4,0.3-0.5,0.4c-3.9,2.6-8.3,4.2-12.2,3.5c-0.4,0-0.8-0.1-1.2-0.2c-0.5-0.1-1-0.3-1.4-0.5
				c-0.3-0.1-0.6-0.3-0.9-0.4c-0.6-0.3-1.1-0.6-1.7-0.9c-0.1,0-0.2-0.1-0.2-0.1C303.9,211.4,294.4,208.8,294.1,217.6z"/>
		</g>
		<path class="st70" d="M327.3,212.8l-1.6,1.1c0,0,4.3,6.3,5.8,6.7l1.2-1.5L327.3,212.8z"/>
		<path class="st71" d="M337.4,221.2c0,0-0.6,0.8-1.6,1.5c-4.7-2.1-10.5-12.1-10.5-12.1l2.3-1.4L337.4,221.2z"/>
		<path class="st72" d="M356.3,205.5h-0.9c0,0-13.4,12.4-15.6,12.5c-4.1,0.3-6.4-11.4-10.6-11.2c-2.5,0.1-2.5,1-2.5,1l10.7,13.5
			l0.8,1.5L356.3,205.5z"/>
	</g>
	<g>
		<path d="M239.8,202.1l-24.9,6.2c0,0-1.7,0.4-2-0.5c0,0,0,0,0-0.1c0-0.1,0-0.1-0.1-0.2c-0.6-1.9-4.7-13.9,0.1-19.5
			c6,0,25.6,12.7,25.6,12.7l-0.7,0.2C239,201.7,239.8,202.1,239.8,202.1z"/>
		<linearGradient id="SVGID_44_" gradientUnits="userSpaceOnUse" x1="210.5907" y1="197.9272" x2="238.5202" y2="197.9272">
			<stop  offset="0" style="stop-color:#000000"/>
			<stop  offset="1.319374e-03" style="stop-color:#090909"/>
			<stop  offset="8.523131e-03" style="stop-color:#373737"/>
			<stop  offset="1.664175e-02" style="stop-color:#626262"/>
			<stop  offset="2.536738e-02" style="stop-color:#888888"/>
			<stop  offset="3.486499e-02" style="stop-color:#A8A8A8"/>
			<stop  offset="4.536119e-02" style="stop-color:#C4C4C4"/>
			<stop  offset="5.720803e-02" style="stop-color:#DADADA"/>
			<stop  offset="7.104757e-02" style="stop-color:#EBEBEB"/>
			<stop  offset="8.815289e-02" style="stop-color:#F6F6F6"/>
			<stop  offset="0.1122" style="stop-color:#FDFDFD"/>
			<stop  offset="0.1788" style="stop-color:#FFFFFF"/>
			<stop  offset="0.1846" style="stop-color:#F9F9F9"/>
			<stop  offset="0.2517" style="stop-color:#B8B8B8"/>
			<stop  offset="0.3178" style="stop-color:#808080"/>
			<stop  offset="0.3813" style="stop-color:#525252"/>
			<stop  offset="0.4416" style="stop-color:#2E2E2E"/>
			<stop  offset="0.4979" style="stop-color:#151515"/>
			<stop  offset="0.5488" style="stop-color:#050505"/>
			<stop  offset="0.5894" style="stop-color:#000000"/>
			<stop  offset="0.601" style="stop-color:#000000"/>
			<stop  offset="0.7542" style="stop-color:#000000"/>
		</linearGradient>
		<path class="st77" d="M238.5,200.7l-25.6,7.1c0,0-5.2-13.7,0-19.8C218.9,188,238.5,200.7,238.5,200.7z"/>
	</g>
	<g>
		<path d="M237,202.1l25.5,6.2c0,0,1.7,0.4,2-0.5c0,0,0,0,0-0.1c0-0.1,0-0.1,0.1-0.2c0.7-1.9,4.8-13.9-0.1-19.5
			c-6.1,0-26.3,12.7-26.3,12.7l0.7,0.2C237.8,201.7,237,202.1,237,202.1z"/>
		
			<linearGradient id="SVGID_45_" gradientUnits="userSpaceOnUse" x1="850.3115" y1="197.9272" x2="878.2411" y2="197.9272" gradientTransform="matrix(-1.027 0 0 1 1140.2662 0)">
			<stop  offset="0" style="stop-color:#000000"/>
			<stop  offset="1.319374e-03" style="stop-color:#090909"/>
			<stop  offset="8.523131e-03" style="stop-color:#373737"/>
			<stop  offset="1.664175e-02" style="stop-color:#626262"/>
			<stop  offset="2.536738e-02" style="stop-color:#888888"/>
			<stop  offset="3.486499e-02" style="stop-color:#A8A8A8"/>
			<stop  offset="4.536119e-02" style="stop-color:#C4C4C4"/>
			<stop  offset="5.720803e-02" style="stop-color:#DADADA"/>
			<stop  offset="7.104757e-02" style="stop-color:#EBEBEB"/>
			<stop  offset="8.815289e-02" style="stop-color:#F6F6F6"/>
			<stop  offset="0.1122" style="stop-color:#FDFDFD"/>
			<stop  offset="0.1788" style="stop-color:#FFFFFF"/>
			<stop  offset="0.1846" style="stop-color:#F9F9F9"/>
			<stop  offset="0.2517" style="stop-color:#B8B8B8"/>
			<stop  offset="0.3178" style="stop-color:#808080"/>
			<stop  offset="0.3813" style="stop-color:#525252"/>
			<stop  offset="0.4416" style="stop-color:#2E2E2E"/>
			<stop  offset="0.4979" style="stop-color:#151515"/>
			<stop  offset="0.5488" style="stop-color:#050505"/>
			<stop  offset="0.5894" style="stop-color:#000000"/>
			<stop  offset="0.601" style="stop-color:#000000"/>
			<stop  offset="0.7542" style="stop-color:#000000"/>
		</linearGradient>
		<path class="st78" d="M238.3,200.7l26.3,7.1c0,0,5.3-13.7,0-19.8C258.5,188,238.3,200.7,238.3,200.7z"/>
	</g>
	<g>
		
			<radialGradient id="SVGID_46_" cx="366.5418" cy="418.5211" r="15.4471" gradientTransform="matrix(0.704 0.7102 -0.8511 0.8437 334.8199 -415.2301)" gradientUnits="userSpaceOnUse">
			<stop  offset="0.4036" style="stop-color:#FFFFFF"/>
			<stop  offset="0.4103" style="stop-color:#FBFBFB"/>
			<stop  offset="0.4173" style="stop-color:#EEEEEE"/>
			<stop  offset="0.4245" style="stop-color:#D9D9D9"/>
			<stop  offset="0.4319" style="stop-color:#BCBCBC"/>
			<stop  offset="0.4393" style="stop-color:#969696"/>
			<stop  offset="0.4468" style="stop-color:#676767"/>
			<stop  offset="0.4542" style="stop-color:#313131"/>
			<stop  offset="0.4601" style="stop-color:#000000"/>
		</radialGradient>
		<circle class="st79" cx="238.4" cy="199.9" r="9.6"/>
		<circle cx="238.7" cy="200.3" r="9.6"/>
		
			<radialGradient id="SVGID_47_" cx="707.8459" cy="-145.2645" r="19.035" gradientTransform="matrix(-0.5643 -0.8256 0.8256 -0.5643 760.0461 705.1899)" gradientUnits="userSpaceOnUse">
			<stop  offset="0.2677" style="stop-color:#FFFFFF;stop-opacity:0.5"/>
			<stop  offset="0.6592" style="stop-color:#FFFFFF;stop-opacity:0"/>
			<stop  offset="0.903" style="stop-color:#FFFFFF;stop-opacity:0"/>
		</radialGradient>
		<circle class="st80" cx="238.7" cy="200.3" r="9.6"/>
	</g>
	<g class="st81">
		<path class="st23" d="M219.8,165.8c6.4-2.1,11.4-7.1,11.6-6.5c0.2,0.6-6.2,5.8-12.6,7.9c-6.4,2.1-34.8-0.4-20.6,0.5
			C198.9,167.7,213.4,167.8,219.8,165.8z"/>
	</g>
	<g class="st81">
		<path class="st23" d="M256.5,162.6c-12.5-4.7-10.2-16.7-15.8-5.6c-1.4,2.8,5.3,6.7,11.5,9.1c10.7,4.1,26.1,3.9,19.3,2
			C264.8,166.2,264.1,165.5,256.5,162.6z"/>
	</g>
	<g class="st81">
		<path class="st23" d="M208,154.2c8.1-2.4,19-2.6,19.2-2c0.2,0.6-8.4,7.1-16.6,9.4c-8.1,2.4-27.7,1-27.9,0.3
			C182.5,161.4,199.8,156.6,208,154.2z"/>
	</g>
	<g class="st81">
		<path class="st23" d="M273.6,158.6c11,4.2,19.6,4.6,19.5,5.3c-0.1,0.7-11,1.7-19.3,0.3s-25.3-11.4-25.1-12
			c0.1-0.5,5.4-0.4,13.1,1.7C265.2,154.9,269.8,157.2,273.6,158.6z"/>
	</g>
	<g class="st82">
		<image style="overflow:visible;" width="102" height="90" xlink:href="FABCF696.png"  transform="matrix(1 0 0 1 204 157.73)">
		</image>
	</g>
	<g class="st82">
		<image style="overflow:visible;" width="106" height="81" xlink:href="FABCF69A.png"  transform="matrix(1 0 0 1 178 160.73)">
		</image>
	</g>
	<g class="st83">
		<image style="overflow:visible;" width="382" height="92" xlink:href="FABCF69D.png"  transform="matrix(1 0 0 1 51 204.73)">
		</image>
	</g>
</g>
<path class="st64" d="M355,157.2c-0.5-0.8-42.4,22.7-54.5,30.1c-12.1,7.5-21.5,14.2-21,15c0.5,0.8,10.7-4.6,22.8-12
	S355.5,158,355,157.2z"/>
<path class="st64" d="M126.3,157.2c0.5-0.8,42.4,22.7,54.5,30.1c12.1,7.5,21.5,14.2,21,15c-0.5,0.8-10.7-4.6-22.8-12
	S125.8,158,126.3,157.2z"/>
</svg>
